<svg width="110" height="61" viewBox="0 0 110 61" fill="none" xmlns="http://www.w3.org/2000/svg">
<path fill-rule="evenodd" clip-rule="evenodd" d="M32.93 20.3899H38.76C38.52 20.5899 38.33 20.8499 38.22 21.2099C37.42 21.2499 36.62 21.3599 35.81 21.5699C34.91 21.7999 34.13 22.3499 34.13 23.2999C34.13 23.5999 34.21 23.8999 34.34 24.1499V23.9499L34.46 23.8899C34.56 23.8299 34.68 23.7799 34.8 23.7299C35.09 23.5999 35.39 23.4999 35.7 23.4099C37.47 22.8999 40.08 22.8999 41.86 23.4099C42.2818 23.5378 42.693 23.6983 43.09 23.8899L43.21 23.9499V24.1499C43.34 23.8899 43.42 23.5999 43.42 23.2999C43.42 22.3499 42.64 21.7899 41.74 21.5699C40.88 21.3699 40.03 21.2399 39.17 21.2099C39.35 20.9799 39.62 20.8299 39.9 20.6799C40.07 20.5799 40.25 20.4899 40.4 20.3799H44.62C45.19 20.3799 45.66 20.8699 45.66 21.4599V38.7399C45.66 39.3299 45.19 39.8099 44.62 39.8099H32.92C32.35 39.8099 31.89 39.3299 31.89 38.7399V21.4599C31.89 20.8599 32.35 20.3899 32.93 20.3899ZM39.64 28.7999C41.13 27.9299 41.8 26.9399 41.89 25.2799C41.29 27.2999 40.41 28.2799 39.64 28.7999ZM34.65 26.2099C34.85 29.1099 37.91 29.3599 38.77 31.0099C39.64 29.3599 42.69 29.1099 42.9 26.2099L43 24.0799C40.9 22.9599 36.64 22.9599 34.56 24.0799L34.65 26.2099ZM16.98 20.3899H28.68C29.25 20.3899 29.72 20.8699 29.72 21.4599V38.7399C29.72 39.3299 29.25 39.8099 28.67 39.8099H16.98C16.41 39.8099 15.94 39.3299 15.94 38.7399V21.4599C15.94 20.8599 16.41 20.3899 16.98 20.3899ZM23.76 33.6799C25.24 32.8099 25.92 31.8099 26.01 30.1599C25.41 32.1799 24.53 33.1599 23.76 33.6799ZM18.71 31.2499C18.91 34.1499 21.97 34.3999 22.83 36.0399C23.7 34.3999 26.75 34.1399 26.96 31.2499L27.06 29.1099C24.96 27.9999 20.7 27.9999 18.62 29.1099L18.71 31.2499ZM22.28 26.2499C21.48 26.2899 20.67 26.3999 19.87 26.5999C18.97 26.8299 18.18 27.3799 18.18 28.3299C18.18 28.6299 18.26 28.9299 18.4 29.1799V28.9799L18.52 28.9199C18.62 28.8599 18.74 28.8199 18.85 28.7599C19.15 28.6399 19.45 28.5399 19.75 28.4499C21.52 27.9299 24.14 27.9299 25.91 28.4499C26.3349 28.5741 26.7495 28.7312 27.15 28.9199L27.27 28.9799V29.1799C27.4 28.9299 27.48 28.6399 27.48 28.3299C27.48 27.3799 26.7 26.8299 25.8 26.5999C24.94 26.3999 24.09 26.2699 23.23 26.2399C23.41 26.0099 23.68 25.8599 23.96 25.7199C24.56 25.3899 25.16 25.0699 25.22 24.1499C24.1 24.2999 24.67 24.2499 23.56 24.9499C23.03 25.2399 22.49 25.5299 22.28 26.2499ZM1.04 20.3899H2.72L2.76 21.2899C2.97 24.1899 6.02 24.4399 6.89 26.0899C7.75 24.4399 10.8 24.1899 11.01 21.2899L11.05 20.3899H12.73C13.31 20.3899 13.77 20.8699 13.77 21.4599V38.7399C13.77 39.3299 13.31 39.8099 12.73 39.8099H11.05L11.11 38.6599C9.02 37.5399 4.76 37.5399 2.67 38.6599L2.72 39.8099H1.04C0.47 39.7999 0 39.3299 0 38.7399V21.4599C0 20.8599 0.47 20.3899 1.04 20.3899ZM10.08 20.3899C9.49 22.1199 8.68 22.9899 7.98 23.4699C9.32 22.6699 10.01 21.7699 10.18 20.3899H10.08ZM6.34 35.7899C5.54 35.8399 4.73 35.9499 3.93 36.1499C3.03 36.3799 2.24 36.9299 2.24 37.8799C2.24 38.1899 2.32 38.4799 2.46 38.7299V38.5299L2.57 38.4699L2.91 38.3099C3.21 38.1899 3.51 38.0899 3.81 37.9999C5.58 37.4799 8.2 37.4799 9.97 37.9999C10.3949 38.1241 10.8095 38.2812 11.21 38.4699L11.33 38.5299V38.7299C11.46 38.4799 11.53 38.1899 11.53 37.8799C11.53 36.9299 10.76 36.3799 9.86 36.1499C9 35.9499 8.15 35.8199 7.29 35.7899C7.47 35.5599 7.74 35.4099 8.02 35.2699C8.62 34.9399 9.22 34.6199 9.28 33.6999C8.16 33.8499 8.73 33.7999 7.62 34.4999C7.09 34.7799 6.54 35.0799 6.34 35.7999V35.7899ZM56.95 31.5599C59.3 31.5599 60.74 30.0599 60.74 28.0299V27.9999C60.74 25.9999 59.34 25.2199 57.91 24.9699L60.57 22.3699V20.5699H53.47V22.6099H57.6L55.1 25.1999L55.45 26.7099H56.41C57.71 26.7099 58.47 27.2099 58.47 28.0799V28.1099C58.47 28.9099 57.85 29.4199 56.97 29.4199C55.91 29.4199 55.17 28.9599 54.44 28.1199L52.86 29.6899C53.76 30.7899 55.06 31.5599 56.96 31.5599H56.95ZM72.48 31.5599C73.2183 31.5734 73.9517 31.4381 74.6366 31.1621C75.3215 30.8861 75.9438 30.475 76.4664 29.9534C76.989 29.4317 77.4012 28.8102 77.6784 28.1258C77.9556 27.4414 78.0922 26.7082 78.08 25.9699V25.9399C78.0923 25.206 77.9564 24.4771 77.6806 23.7969C77.4047 23.1167 76.9946 22.4991 76.4746 21.981C75.9547 21.4629 75.3356 21.055 74.6544 20.7816C73.9732 20.5082 73.2439 20.375 72.51 20.3899C71.7726 20.3764 71.04 20.5114 70.3558 20.7868C69.6716 21.0621 69.0497 21.4723 68.5273 21.9929C68.0048 22.5135 67.5924 23.1339 67.3146 23.8171C67.0367 24.5003 66.8992 25.2324 66.91 25.9699V25.9999C66.8964 26.7346 67.0312 27.4646 67.3065 28.1459C67.5817 28.8273 67.9916 29.4461 68.5117 29.9653C69.0318 30.4844 69.6514 30.8933 70.3332 31.1673C71.0151 31.4413 71.7453 31.5748 72.48 31.5599ZM72.51 29.3599C70.65 29.3599 69.33 27.8199 69.33 25.9699V25.9399C69.33 24.0899 70.62 22.5799 72.48 22.5799C74.35 22.5799 75.67 24.1199 75.67 25.9799V25.9999C75.67 27.8599 74.37 29.3599 72.51 29.3599ZM78.56 31.3699H80.92L81.88 28.9499H86.33L87.29 31.3699H89.7L85.2 20.4999H83.07L78.57 31.3699H78.56ZM82.71 26.8499L84.11 23.3499L85.51 26.8499H82.71ZM91.33 31.3699H93.65V28.0699L94.86 26.7699L98.12 31.3699H100.9L96.42 25.1499L100.7 20.5699H97.91L93.65 25.2899V20.5699H91.33V31.3699ZM105.88 31.5299C108.15 31.5299 109.74 30.3299 109.74 28.1799V28.1499C109.74 26.2699 108.54 25.4799 106.41 24.9099C104.6 24.4299 104.14 24.1999 104.14 23.4899V23.4599C104.14 22.9299 104.61 22.5199 105.5 22.5199C106.38 22.5199 107.3 22.9199 108.23 23.5799L109.43 21.7899C108.334 20.8849 106.951 20.3993 105.53 20.4199C103.38 20.4199 101.84 21.7199 101.84 23.6699V23.6999C101.84 25.8499 103.21 26.4499 105.33 26.9999C107.09 27.4699 107.45 27.7799 107.45 28.3799V28.4099C107.45 29.0399 106.88 29.4299 105.93 29.4299C104.73 29.4299 103.74 28.9199 102.79 28.1199L101.42 29.7999C102.637 30.9148 104.229 31.5322 105.88 31.5299ZM55.16 39.8099C55.96 39.8099 56.59 39.4899 57.04 39.0899V37.1399H55.14V37.9899H56.1V38.6399C55.8367 38.8239 55.5212 38.9186 55.2 38.9099C54.42 38.9099 53.87 38.3099 53.87 37.4799V37.4599C53.87 36.6999 54.42 36.0599 55.13 36.0599C55.63 36.0599 55.93 36.2199 56.27 36.5099L56.88 35.7599C56.43 35.3599 55.95 35.1399 55.16 35.1399C54.8538 35.1371 54.5502 35.196 54.2672 35.3131C53.9843 35.4302 53.7278 35.6032 53.5132 35.8215C53.2985 36.0399 53.13 36.2993 53.0178 36.5842C52.9056 36.8692 52.8519 37.1738 52.86 37.4799C52.86 38.8199 53.8 39.8099 55.16 39.8099ZM63.61 39.7299H64.6L65 38.7199H66.85L67.25 39.7299H68.26L66.38 35.1899H65.49L63.61 39.7299ZM65.34 37.8499L65.93 36.3799L66.51 37.8499H65.34ZM74.97 39.7299H75.91V36.8099L77.14 38.7099H77.17L78.4 36.7899V39.7299H79.36V35.2299H78.32L77.17 37.1299L76.01 35.2299H74.97V39.7299Z" fill="black"/>
<path d="M87.44 35.2197H86.48V39.7297H87.44V35.2297V35.2197Z" fill="black"/>
<path fill-rule="evenodd" clip-rule="evenodd" d="M94.5701 39.7297H95.5201V36.8597L97.6501 39.7297H98.4701V35.2297H97.5201V37.9997L95.4601 35.2197H94.5601V39.7297H94.5701ZM107.66 39.8097C108.46 39.8097 109.08 39.4897 109.54 39.0897V37.1397H107.63V37.9897H108.6V38.6397C108.337 38.8238 108.021 38.9185 107.7 38.9097C106.91 38.9097 106.36 38.3097 106.36 37.4797V37.4597C106.36 36.6997 106.92 36.0597 107.62 36.0597C108.12 36.0597 108.43 36.2197 108.76 36.5097L109.37 35.7597C108.92 35.3597 108.44 35.1397 107.65 35.1397C107.344 35.137 107.04 35.1959 106.757 35.313C106.474 35.4301 106.218 35.603 106.003 35.8214C105.789 36.0398 105.62 36.2992 105.508 36.5841C105.396 36.869 105.342 37.1736 105.35 37.4797C105.35 38.8197 106.3 39.8097 107.66 39.8097Z" fill="black"/>
</svg>
