<svg xmlns="http://www.w3.org/2000/svg" fill="none" viewBox="0 0 300 66">
  <g clip-path="url(#a)">
    <path fill="#D3E512" d="M286.36 25.3h-8.18V54h8.18V25.3Zm-136.95-.94a13.5 13.5 0 0 1 10.16 4.26 14.6 14.6 0 0 1 4.07 10.56c0 4.21-1.36 7.73-4.07 10.56A13.5 13.5 0 0 1 149.41 54a12.4 12.4 0 0 1-9.4-3.92v3.36h-7.74V17.1h7.74v11.19a12.4 12.4 0 0 1 9.4-3.93Zm-7.16 20.54a7.7 7.7 0 0 0 5.56 2.3 7.93 7.93 0 0 0 5.56-2.3 7.87 7.87 0 0 0 2.24-5.72c0-2.28-.75-4.18-2.24-5.7a7.73 7.73 0 0 0-5.57-2.26 7.96 7.96 0 0 0-5.55 2.3 7.8 7.8 0 0 0-2.24 5.65c0 2.3.75 4.2 2.24 5.73Zm39.12-20.97c4.8 0 8.65 1.75 11.56 5.25 2.9 3.5 3.97 7.66 3.18 12.48h-22.05a7.87 7.87 0 0 0 7.8 5.83c3.26 0 5.62-1.34 7.1-4.03l6.15 2.8a14.74 14.74 0 0 1-5.45 5.64 15.28 15.28 0 0 1-8 2.1c-4.37 0-8-1.44-10.9-4.32a14.56 14.56 0 0 1-4.4-10.71c0-4.27 1.44-7.84 4.32-10.72a14.52 14.52 0 0 1 10.7-4.32Zm0 6.51a7.2 7.2 0 0 0-4.46 1.49 7.71 7.71 0 0 0-2.74 3.95h14.46a7.8 7.8 0 0 0-2.72-3.95c-1.3-1-2.9-1.52-4.54-1.49Zm22.23 1.4h-5.87V25.2h5.87v-8.49l7.62-2.34V25.2h13.66v-8.49l7.62-2.34V25.2h7.5v6.64h-7.5v11.45c0 2.71 1.37 4.07 4.11 4.07H240V54h-3.4c-3.98 0-6.93-.92-8.85-2.76-1.92-1.85-2.88-4.65-2.89-8.4v-11h-13.64V43.3c0 2.72 1.37 4.08 4.12 4.08h3.44V54h-3.44c-3.99 0-6.94-.92-8.86-2.76-1.92-1.85-2.88-4.65-2.89-8.4l.01-11Zm54.13-7.91c4.8 0 8.65 1.75 11.56 5.25s3.97 7.66 3.19 12.49H250.4a7.9 7.9 0 0 0 7.81 5.83c3.26 0 5.62-1.35 7.1-4.04l6.15 2.8a14.75 14.75 0 0 1-5.45 5.64 15.27 15.27 0 0 1-8 2.1c-4.37 0-8-1.44-10.92-4.32a14.52 14.52 0 0 1-4.37-10.72c0-4.26 1.44-7.83 4.32-10.71a14.47 14.47 0 0 1 10.68-4.32Zm0 6.51a7.14 7.14 0 0 0-4.46 1.49 7.73 7.73 0 0 0-2.74 3.96h14.46a7.8 7.8 0 0 0-2.72-3.96c-1.3-1-2.9-1.52-4.54-1.49Z"/>
    <path fill="#AC0AD5" d="M300.3 28.72c.17-3.02-2.44-5.61-5.82-5.8-3.38-.18-6.27 2.1-6.44 5.12-.17 3.02 2.43 5.61 5.81 5.8 3.39.18 6.27-2.1 6.44-5.12Z"/>
    <path fill="#D3E512" d="M295.79 31.54c3.27-1.85 4.85-5.2 3.5-7.48-1.33-2.27-5.08-2.61-8.35-.76-3.28 1.86-4.85 5.21-3.51 7.49 1.33 2.27 5.08 2.61 8.36.75Z"/>
    <path fill="url(#b)" d="M51.7 41.24c-8.56-.2-10.12-12.41-5.55-16.8 4.24-4.04 13.92-2.58 13.68 7.45-.13 5.42-3.55 9.35-8.12 9.35Zm1.23-24.14c-5.08.06-7.46 1.14-9.48 2.74l-.09-2.41h-7.9c.17 9.44.17 28.24 0 36.57h7.87c.12-2.6.18-5 .25-9.52 7.65 8.08 24.22 4.23 24.6-12.13.28-12.59-8.15-15.23-15.25-15.25Z"/>
    <path fill="url(#c)" d="M81.39 22.57h-8.52c.63 8.16.64 20.5-.6 28.7h8.53c1.24-8.2 1.24-20.57.59-28.7Z"/>
    <path fill="url(#d)" d="M106.2 25.3c-4.33.1-6.94 1.52-9.28 5.06-.07-2.1-.08-2.52-.18-4.45h-7.98c.6 13.6-.31 24.62-1.49 28.09h7.79c1.07-3.09 1.52-8.44 1.72-12.4.1-1.84.33-3.81 2.13-5.85 2.85-3.22 8.68-3.09 10.98 1.46.59 1.21.85 2.55.76 3.9-.08 2.36-.3 9-1.52 12.87h7.78c.7-2.1 1.38-6.37 1.66-11.17.48-8.22-1.44-17.5-12.36-17.49v-.02Z"/>
    <path fill="url(#e)" d="M78.6 13c-10.3.03-7.29 3.88-7.26 3.92 3.05 3.74 11.92-.16 11.84-2.62-.01-.55-.5-1.3-4.57-1.3Z"/>
    <path fill="url(#f)" d="M14.7 13C-2.64 13.15.47 24.27 3.27 27.13c2.57 2.6 9.68 3.63 11.8 3.9 6.79.82 6.16 6.46-.72 6.41-4.5-.03-5.49-2.13-5.86-4.18L0 34.96c2.36 10.9 23.43 9.7 27.62 2.9 2.15-3.47.23-7.69.22-7.73a8.1 8.1 0 0 0-1.58-2.25c-2.83-2.8-10.86-3.84-11.77-3.96a8.23 8.23 0 0 1-3.84-1.26c-1.87-1.34-1.4-4.18 2.37-4.71 2.16-.3 5.9-.27 6.67 3.43l.09.51 8.45-1.68c-.37-1.97-1.37-7.2-13.54-7.21Z"/>
    <path fill="url(#g)" d="M15.6 48.53c-8.87.25-12.2 3.88-12.83 5a.35.35 0 0 0-.04.24c.02.08.07.16.13.2.06.03.12.03.19.03l8.27-.02s-.07-.04-.03-.17c.35-.98 6.82-1.6 10.28.1 2.53-.08 5.9-.18 8.43-.28-1.72-1.83-5.86-4.91-14.4-5.1Z"/>
    <path fill="url(#h)" d="M117.27 17.1h-7.65a20.7 20.7 0 0 0-.4-1.6 7.1 7.1 0 0 0-.42-1.08c-.06-.1-.29-.5-1.32-.64-2.81-.38-12.22-1.3-11.69.75.11.36.11.44.24.96.11.47.22 1 .33 1.61H88.7c-.3-2.15-.77-3.9-1.43-4.1l26.28.03c1.82.02 2.16.4 2.51.79.25.4.45.82.6 1.25.23.6.42 1.2.56 1.82l.05.2Z"/>
  </g>
  <defs>
    <linearGradient id="b" x1="51.81" x2="51.81" y1="12.88" y2="60.02" gradientUnits="userSpaceOnUse">
      <stop offset=".05" stop-color="#fff" stop-opacity="0"/>
      <stop offset=".06" stop-color="#fff" stop-opacity=".05"/>
      <stop offset=".08" stop-color="#fff" stop-opacity=".27"/>
      <stop offset=".11" stop-color="#fff" stop-opacity=".46"/>
      <stop offset=".14" stop-color="#fff" stop-opacity=".63"/>
      <stop offset=".16" stop-color="#fff" stop-opacity=".76"/>
      <stop offset=".19" stop-color="#fff" stop-opacity=".87"/>
      <stop offset=".22" stop-color="#fff" stop-opacity=".94"/>
      <stop offset=".25" stop-color="#fff" stop-opacity=".99"/>
      <stop offset=".28" stop-color="#fff"/>
      <stop offset=".31" stop-color="#fff"/>
      <stop offset=".53" stop-color="#fff"/>
      <stop offset=".67" stop-color="#fff"/>
      <stop offset=".7" stop-color="#fff"/>
      <stop offset=".72" stop-color="#fff" stop-opacity=".98"/>
      <stop offset=".75" stop-color="#fff" stop-opacity=".94"/>
      <stop offset=".78" stop-color="#fff" stop-opacity=".86"/>
      <stop offset=".81" stop-color="#fff" stop-opacity=".75"/>
      <stop offset=".83" stop-color="#fff" stop-opacity=".61"/>
      <stop offset=".86" stop-color="#fff" stop-opacity=".44"/>
      <stop offset=".89" stop-color="#fff" stop-opacity=".24"/>
      <stop offset=".91" stop-color="#fff" stop-opacity=".01"/>
      <stop offset=".92" stop-color="#fff" stop-opacity="0"/>
    </linearGradient>
    <linearGradient id="c" x1="77.04" x2="77.04" y1="12.44" y2="54.97" gradientUnits="userSpaceOnUse">
      <stop offset=".05" stop-color="#fff" stop-opacity="0"/>
      <stop offset=".06" stop-color="#fff" stop-opacity=".05"/>
      <stop offset=".08" stop-color="#fff" stop-opacity=".27"/>
      <stop offset=".11" stop-color="#fff" stop-opacity=".46"/>
      <stop offset=".14" stop-color="#fff" stop-opacity=".63"/>
      <stop offset=".16" stop-color="#fff" stop-opacity=".76"/>
      <stop offset=".19" stop-color="#fff" stop-opacity=".87"/>
      <stop offset=".22" stop-color="#fff" stop-opacity=".94"/>
      <stop offset=".25" stop-color="#fff" stop-opacity=".99"/>
      <stop offset=".28" stop-color="#fff"/>
      <stop offset=".31" stop-color="#fff"/>
      <stop offset=".53" stop-color="#fff"/>
      <stop offset=".67" stop-color="#fff"/>
      <stop offset=".7" stop-color="#fff"/>
      <stop offset=".72" stop-color="#fff" stop-opacity=".98"/>
      <stop offset=".75" stop-color="#fff" stop-opacity=".94"/>
      <stop offset=".78" stop-color="#fff" stop-opacity=".86"/>
      <stop offset=".81" stop-color="#fff" stop-opacity=".75"/>
      <stop offset=".83" stop-color="#fff" stop-opacity=".61"/>
      <stop offset=".86" stop-color="#fff" stop-opacity=".44"/>
      <stop offset=".89" stop-color="#fff" stop-opacity=".24"/>
      <stop offset=".91" stop-color="#fff" stop-opacity=".01"/>
      <stop offset=".92" stop-color="#fff" stop-opacity="0"/>
    </linearGradient>
    <linearGradient id="d" x1="102.95" x2="102.95" y1="9.29" y2="58.73" gradientUnits="userSpaceOnUse">
      <stop offset=".05" stop-color="#fff" stop-opacity="0"/>
      <stop offset=".06" stop-color="#fff" stop-opacity=".05"/>
      <stop offset=".08" stop-color="#fff" stop-opacity=".27"/>
      <stop offset=".11" stop-color="#fff" stop-opacity=".46"/>
      <stop offset=".14" stop-color="#fff" stop-opacity=".63"/>
      <stop offset=".16" stop-color="#fff" stop-opacity=".76"/>
      <stop offset=".19" stop-color="#fff" stop-opacity=".87"/>
      <stop offset=".22" stop-color="#fff" stop-opacity=".94"/>
      <stop offset=".25" stop-color="#fff" stop-opacity=".99"/>
      <stop offset=".28" stop-color="#fff"/>
      <stop offset=".3" stop-color="#fff"/>
      <stop offset=".5" stop-color="#fff"/>
      <stop offset=".63" stop-color="#fff"/>
      <stop offset=".66" stop-color="#fff"/>
      <stop offset=".69" stop-color="#fff" stop-opacity=".98"/>
      <stop offset=".72" stop-color="#fff" stop-opacity=".94"/>
      <stop offset=".75" stop-color="#fff" stop-opacity=".86"/>
      <stop offset=".79" stop-color="#fff" stop-opacity=".75"/>
      <stop offset=".82" stop-color="#fff" stop-opacity=".61"/>
      <stop offset=".85" stop-color="#fff" stop-opacity=".44"/>
      <stop offset=".88" stop-color="#fff" stop-opacity=".24"/>
      <stop offset=".91" stop-color="#fff" stop-opacity=".01"/>
      <stop offset=".92" stop-color="#fff" stop-opacity="0"/>
    </linearGradient>
    <linearGradient id="e" x1="77.05" x2="77.05" y1="10.59" y2="32.57" gradientUnits="userSpaceOnUse">
      <stop offset=".11" stop-color="#fff" stop-opacity="0"/>
      <stop offset=".14" stop-color="#fff" stop-opacity=".18"/>
      <stop offset=".2" stop-color="#fff" stop-opacity=".43"/>
      <stop offset=".24" stop-color="#fff" stop-opacity=".63"/>
      <stop offset=".29" stop-color="#fff" stop-opacity=".79"/>
      <stop offset=".33" stop-color="#fff" stop-opacity=".91"/>
      <stop offset=".37" stop-color="#fff" stop-opacity=".98"/>
      <stop offset=".39" stop-color="#fff"/>
      <stop offset=".41" stop-color="#fff"/>
      <stop offset=".53" stop-color="#fff"/>
      <stop offset=".67" stop-color="#fff"/>
      <stop offset=".7" stop-color="#fff"/>
      <stop offset=".72" stop-color="#fff" stop-opacity=".98"/>
      <stop offset=".75" stop-color="#fff" stop-opacity=".94"/>
      <stop offset=".78" stop-color="#fff" stop-opacity=".86"/>
      <stop offset=".81" stop-color="#fff" stop-opacity=".75"/>
      <stop offset=".83" stop-color="#fff" stop-opacity=".61"/>
      <stop offset=".86" stop-color="#fff" stop-opacity=".44"/>
      <stop offset=".89" stop-color="#fff" stop-opacity=".24"/>
      <stop offset=".91" stop-color="#fff" stop-opacity=".01"/>
      <stop offset=".92" stop-color="#fff" stop-opacity="0"/>
    </linearGradient>
    <linearGradient id="f" x1="14.32" x2="14.32" y1="7.95" y2="57.31" gradientUnits="userSpaceOnUse">
      <stop offset=".05" stop-color="#fff" stop-opacity="0"/>
      <stop offset=".06" stop-color="#fff" stop-opacity=".05"/>
      <stop offset=".08" stop-color="#fff" stop-opacity=".27"/>
      <stop offset=".1" stop-color="#fff" stop-opacity=".46"/>
      <stop offset=".12" stop-color="#fff" stop-opacity=".63"/>
      <stop offset=".14" stop-color="#fff" stop-opacity=".76"/>
      <stop offset=".16" stop-color="#fff" stop-opacity=".87"/>
      <stop offset=".18" stop-color="#fff" stop-opacity=".94"/>
      <stop offset=".21" stop-color="#fff" stop-opacity=".99"/>
      <stop offset=".23" stop-color="#fff"/>
      <stop offset=".27" stop-color="#fff"/>
      <stop offset=".53" stop-color="#fff"/>
      <stop offset=".71" stop-color="#fff"/>
      <stop offset=".74" stop-color="#fff"/>
      <stop offset=".76" stop-color="#fff" stop-opacity=".98"/>
      <stop offset=".78" stop-color="#fff" stop-opacity=".94"/>
      <stop offset=".8" stop-color="#fff" stop-opacity=".86"/>
      <stop offset=".83" stop-color="#fff" stop-opacity=".75"/>
      <stop offset=".85" stop-color="#fff" stop-opacity=".61"/>
      <stop offset=".87" stop-color="#fff" stop-opacity=".44"/>
      <stop offset=".89" stop-color="#fff" stop-opacity=".24"/>
      <stop offset=".91" stop-color="#fff" stop-opacity=".01"/>
      <stop offset=".92" stop-color="#fff" stop-opacity="0"/>
    </linearGradient>
    <linearGradient id="g" x1="16.36" x2="16.36" y1="-10.97" y2="63.76" gradientUnits="userSpaceOnUse">
      <stop offset=".05" stop-color="#fff" stop-opacity="0"/>
      <stop offset=".06" stop-color="#fff" stop-opacity=".05"/>
      <stop offset=".08" stop-color="#fff" stop-opacity=".27"/>
      <stop offset=".1" stop-color="#fff" stop-opacity=".46"/>
      <stop offset=".12" stop-color="#fff" stop-opacity=".63"/>
      <stop offset=".14" stop-color="#fff" stop-opacity=".76"/>
      <stop offset=".16" stop-color="#fff" stop-opacity=".87"/>
      <stop offset=".18" stop-color="#fff" stop-opacity=".94"/>
      <stop offset=".21" stop-color="#fff" stop-opacity=".99"/>
      <stop offset=".23" stop-color="#fff"/>
      <stop offset=".27" stop-color="#fff"/>
      <stop offset=".53" stop-color="#fff"/>
      <stop offset=".71" stop-color="#fff"/>
      <stop offset=".74" stop-color="#fff"/>
      <stop offset=".76" stop-color="#fff" stop-opacity=".98"/>
      <stop offset=".78" stop-color="#fff" stop-opacity=".94"/>
      <stop offset=".8" stop-color="#fff" stop-opacity=".86"/>
      <stop offset=".83" stop-color="#fff" stop-opacity=".75"/>
      <stop offset=".85" stop-color="#fff" stop-opacity=".61"/>
      <stop offset=".87" stop-color="#fff" stop-opacity=".44"/>
      <stop offset=".89" stop-color="#fff" stop-opacity=".24"/>
      <stop offset=".91" stop-color="#fff" stop-opacity=".01"/>
      <stop offset=".92" stop-color="#fff" stop-opacity="0"/>
    </linearGradient>
    <linearGradient id="h" x1="102.27" x2="102.27" y1="10.54" y2="50.38" gradientUnits="userSpaceOnUse">
      <stop offset=".05" stop-color="#fff" stop-opacity="0"/>
      <stop offset=".06" stop-color="#fff" stop-opacity=".05"/>
      <stop offset=".08" stop-color="#fff" stop-opacity=".27"/>
      <stop offset=".11" stop-color="#fff" stop-opacity=".46"/>
      <stop offset=".14" stop-color="#fff" stop-opacity=".63"/>
      <stop offset=".16" stop-color="#fff" stop-opacity=".76"/>
      <stop offset=".19" stop-color="#fff" stop-opacity=".87"/>
      <stop offset=".22" stop-color="#fff" stop-opacity=".94"/>
      <stop offset=".25" stop-color="#fff" stop-opacity=".99"/>
      <stop offset=".28" stop-color="#fff"/>
      <stop offset=".3" stop-color="#fff"/>
      <stop offset=".5" stop-color="#fff"/>
      <stop offset=".63" stop-color="#fff"/>
      <stop offset=".66" stop-color="#fff"/>
      <stop offset=".69" stop-color="#fff" stop-opacity=".98"/>
      <stop offset=".72" stop-color="#fff" stop-opacity=".94"/>
      <stop offset=".75" stop-color="#fff" stop-opacity=".86"/>
      <stop offset=".79" stop-color="#fff" stop-opacity=".75"/>
      <stop offset=".82" stop-color="#fff" stop-opacity=".61"/>
      <stop offset=".85" stop-color="#fff" stop-opacity=".44"/>
      <stop offset=".88" stop-color="#fff" stop-opacity=".24"/>
      <stop offset=".91" stop-color="#fff" stop-opacity=".01"/>
      <stop offset=".92" stop-color="#fff" stop-opacity="0"/>
    </linearGradient>
    <clipPath id="a">
      <path fill="#fff" d="M0 0h300v41H0z" transform="translate(0 13)"/>
    </clipPath>
  </defs>
</svg>
