<svg width="118" height="60" viewBox="0 0 118 60" fill="none" xmlns="http://www.w3.org/2000/svg">
<path fill-rule="evenodd" clip-rule="evenodd" d="M104.101 26.4568C104.152 26.4568 104.203 26.5078 104.254 26.5588C104.56 26.7117 104.815 26.8646 105.019 27.1195C105.375 27.4254 105.681 27.8333 105.885 28.2921C106.038 28.6489 106.14 29.0568 106.14 29.4646L113.226 21.4098L113.328 21.3078L117.713 16.3118C118.018 15.9549 118.069 15.5981 117.916 15.3432C117.916 15.2922 117.866 15.2922 117.866 15.2412C117.815 15.1902 117.764 15.1393 117.713 15.0883C117.611 15.0373 117.509 14.9863 117.407 14.9863H113.124C112.768 14.9863 112.411 15.0373 112.054 15.0883C110.881 15.4961 109.811 16.2098 108.995 17.1785C107.211 19.1667 105.681 22.4804 104.611 25.1313L104.101 26.4568ZM107.822 19.8294C107.619 20.3392 107.466 20.849 107.313 21.3588C107.211 21.7157 107.16 22.0725 107.109 22.4294C107.058 22.5823 107.058 22.7863 107.007 22.9392C106.956 23.449 106.905 23.9588 106.854 24.4686C106.854 24.8254 106.803 25.2333 106.803 25.5901C106.803 25.7431 106.803 25.896 106.752 26.049C106.701 26.4058 106.701 26.7627 106.65 27.1195C106.65 27.1705 106.65 27.2215 106.599 27.2725C106.599 27.3235 106.599 27.3235 106.599 27.3744C106.497 27.9352 106.395 28.496 106.242 29.0568C106.548 28.547 106.803 27.9862 106.956 27.3744L109.046 24.5196L110.168 23.0412L107.211 26.4568C107.211 26.3548 107.262 26.2019 107.262 26.0999C107.313 25.896 107.313 25.6411 107.364 25.4372L110.168 21.6647L107.466 24.7235V24.6725C107.466 24.6215 107.466 24.6215 107.466 24.5705L107.568 23.7549L109.556 21.002L109.964 20.4412L109.454 21.002L107.67 22.9902C107.721 22.6843 107.771 22.3274 107.822 22.0216L109.964 19.0137L107.975 21.2059C108.077 20.798 108.179 20.4412 108.281 20.0333C108.587 19.0647 108.995 18.0961 109.454 17.1785C108.842 17.9941 108.281 18.8608 107.822 19.8294Z" fill="black"/>
<path d="M39.4075 20.849C39.2035 20.849 39.0506 20.798 38.9486 20.6451C38.8467 20.4922 38.7957 20.3392 38.8467 20.1353L39.4075 17.5353C39.4584 17.3314 39.5604 17.1785 39.7133 17.0255C39.9173 16.8726 40.0702 16.8216 40.2741 16.8216H43.7407C43.9447 16.8216 44.0976 16.8726 44.1996 17.0255C44.3015 17.1785 44.3525 17.3314 44.3015 17.5353L43.7407 20.1353C43.7407 20.3392 43.6388 20.4922 43.4859 20.6451C43.3329 20.798 43.129 20.849 42.9251 20.849H39.4075Z" fill="black"/>
<path d="M35.8898 37.3155C35.6859 37.3155 35.533 37.2645 35.431 37.1116C35.3291 36.9587 35.3291 36.8057 35.3291 36.6018L38.082 23.5509C38.133 23.347 38.2349 23.1941 38.3879 23.0921C38.5408 22.9392 38.7447 22.8882 38.9486 22.8882H42.4153C42.6192 22.8882 42.7721 22.9392 42.8741 23.0921C42.9761 23.2451 43.027 23.398 42.9761 23.6019L40.2231 36.6018C40.1722 36.8057 40.0702 36.9587 39.9173 37.1116C39.7643 37.2645 39.6114 37.3155 39.4075 37.3155H35.8898Z" fill="black"/>
<path fill-rule="evenodd" clip-rule="evenodd" d="M0.15294 37.1626C0.254899 37.2645 0.356859 37.3155 0.560779 37.3155H4.38427C4.84309 37.3155 5.19995 37.1116 5.45485 36.7038L7.08621 34.0018H14.3763L14.8351 36.6528C14.8861 37.1116 15.192 37.3155 15.7018 37.3155H19.2194C19.4233 37.3155 19.5763 37.2645 19.7292 37.1116C19.8822 36.9587 19.9331 36.7547 19.8822 36.4998L17.1292 18.6569C17.0783 18.0961 16.7214 17.8412 16.1606 17.8412H11.6744C11.1136 17.8412 10.7058 18.0961 10.3999 18.6569L0.10196 36.4489C0.0509799 36.5508 0 36.6528 0 36.7547C0.0509799 36.9077 0.0509799 37.0606 0.15294 37.1626ZM14.0195 29.8215H9.07442L13.0509 22.7353L14.0195 29.8215Z" fill="black"/>
<path d="M23.5017 37.1116C23.6037 37.2136 23.8076 37.2645 24.0625 37.2645H27.2233C27.4782 37.2645 27.6821 37.2136 27.835 37.1116C27.988 36.9587 28.1409 36.8057 28.2938 36.6018L36.2977 23.7039C36.3996 23.551 36.4506 23.449 36.4506 23.296C36.4506 23.1431 36.3996 23.0412 36.2977 22.9392C36.1957 22.8372 36.0938 22.7863 35.8898 22.7863H32.3213C31.9134 22.7863 31.6075 22.9902 31.4036 23.347L26.5605 31.6567L25.286 23.398C25.235 23.1941 25.1331 23.0412 25.0311 22.9392C24.9292 22.8372 24.7762 22.7863 24.5213 22.7863H21.4116C21.1567 22.7863 20.9527 22.8372 20.7998 22.9902C20.6978 23.1431 20.6469 23.347 20.6978 23.5509L23.2468 36.4998C23.3488 36.8057 23.3998 37.0096 23.5017 37.1116Z" fill="black"/>
<path fill-rule="evenodd" clip-rule="evenodd" d="M44.6584 36.3469C45.525 37.1626 46.6976 37.5704 48.278 37.5704C49.2466 37.5704 50.0623 37.4175 50.725 37.1116C51.3877 36.8057 51.9995 36.3469 52.6622 35.7351L52.4583 36.6018C52.4073 36.8057 52.4583 36.9587 52.5603 37.1116C52.6622 37.2645 52.8152 37.3155 53.0191 37.3155H56.3328C56.5367 37.3155 56.6896 37.2645 56.8426 37.1116C56.9955 36.9587 57.0975 36.8057 57.1485 36.6018L59.9524 23.5509C60.0033 23.347 59.9524 23.1941 59.8504 23.0921C59.7484 22.9392 59.5955 22.8882 59.3916 22.8882H56.1289C55.9249 22.8882 55.721 22.9392 55.5681 23.0921C55.4151 23.2451 55.3132 23.398 55.3132 23.6019L55.1602 24.3156C54.7524 23.7549 54.2936 23.347 53.6818 23.0921C53.0701 22.7863 52.2544 22.6333 51.2348 22.6333C49.3485 22.6333 47.8191 23.1941 46.5956 24.3666C45.3721 25.4882 44.5055 27.0686 43.9957 29.1587L43.5368 31.045C43.4349 31.5038 43.3839 32.0646 43.3839 32.7273C43.3839 34.2567 43.7917 35.4802 44.6584 36.3469ZM52.3054 32.9822C51.7956 33.492 51.1328 33.7469 50.3172 33.7469C49.7054 33.7469 49.2466 33.594 48.9917 33.2881C48.7368 32.9822 48.5838 32.5234 48.5838 31.9116C48.5838 31.6058 48.6348 31.2999 48.6858 30.943C48.7368 30.4332 48.8387 29.8725 49.0427 29.2097C49.2976 28.3431 49.6544 27.6803 50.1132 27.1705C50.5721 26.6607 51.1838 26.4058 51.9995 26.4058C52.6622 26.4058 53.1211 26.5588 53.4269 26.9156C53.7328 27.2725 53.8857 27.6803 53.8857 28.2921C53.8857 28.445 53.8857 28.6489 53.8348 28.9548C53.7328 29.5666 53.5799 30.2803 53.376 31.045C53.172 31.8097 52.8152 32.4724 52.3054 32.9822Z" fill="black"/>
<path d="M68.0072 37.3155C64.5406 37.3155 62.8072 36.041 62.8072 33.441C62.8072 32.9312 62.8582 32.3705 63.0112 31.8097L64.0817 26.6607H61.8896C61.6857 26.6607 61.5327 26.6097 61.4308 26.4568C61.3288 26.3039 61.2778 26.1509 61.3288 25.947L61.7876 23.5509C61.8386 23.347 61.9406 23.1941 62.0935 23.0921C62.2465 22.9392 62.4504 22.8882 62.6543 22.8882H64.8464L65.815 18.3C65.866 18.0961 65.968 17.9432 66.1209 17.7902C66.2739 17.6373 66.4778 17.5863 66.6307 17.5863H70.0464C70.2503 17.5863 70.4032 17.6373 70.5052 17.7902C70.6071 17.9432 70.6581 18.0961 70.6072 18.249L69.6385 22.8372H73.1052C73.3091 22.8372 73.462 22.8882 73.564 23.0412C73.6659 23.1941 73.7169 23.347 73.6659 23.5509L73.1562 25.947C73.1052 26.1509 73.0032 26.3039 72.8503 26.4568C72.6973 26.6097 72.4934 26.6607 72.3405 26.6607H68.8229L67.8033 31.4018C67.7523 31.7077 67.7013 32.0136 67.7013 32.3705C67.7013 32.7273 67.8033 32.9822 67.9562 33.1352C68.1601 33.2881 68.466 33.3901 68.8738 33.3901H71.117C71.3209 33.3901 71.4738 33.441 71.5758 33.594C71.6777 33.7469 71.7287 33.8999 71.6777 34.1038L71.117 36.6528C71.066 36.8567 70.964 37.0096 70.8111 37.1626C70.6581 37.3155 70.4542 37.3665 70.3013 37.3665H68.0072V37.3155Z" fill="black"/>
<path d="M73.564 37.1116C73.6659 37.2645 73.8189 37.3155 74.0228 37.3155H77.6934C77.8973 37.3155 78.1012 37.2645 78.2541 37.1116C78.4071 36.9587 78.509 36.8057 78.56 36.6018L80.0384 29.6176C80.1914 28.8529 80.4973 28.2921 81.007 27.8842C81.4659 27.4764 82.0776 27.2725 82.8423 27.2725H85.6462C85.8501 27.2725 86.0541 27.2215 86.207 27.0686C86.3599 26.9156 86.4619 26.7627 86.4619 26.5588L87.1246 23.5509C87.1756 23.347 87.1246 23.1941 87.0227 23.0412C86.9207 22.8882 86.7678 22.8372 86.6148 22.8372H84.9835C84.0149 22.8372 83.1992 22.9902 82.5364 23.296C81.8737 23.6019 81.3129 24.0098 80.8031 24.6215L81.007 23.5509C81.058 23.347 81.007 23.1941 80.9051 23.0412C80.8031 22.8882 80.6502 22.8372 80.4463 22.8372H77.0306C76.8267 22.8372 76.6228 22.8882 76.4698 23.0412C76.3169 23.1941 76.2149 23.347 76.164 23.5509L73.462 36.6018C73.462 36.8057 73.462 36.9587 73.564 37.1116Z" fill="black"/>
<path d="M90.4383 20.849C90.2344 20.849 90.0815 20.798 89.9795 20.6451C89.8776 20.4922 89.8266 20.3392 89.8775 20.1353L90.4383 17.5353C90.4893 17.3314 90.5913 17.1785 90.7442 17.0255C90.9481 16.8726 91.1011 16.8216 91.305 16.8216H94.7716C94.9755 16.8216 95.1285 16.8726 95.2304 17.0255C95.3324 17.1785 95.3834 17.3314 95.3324 17.5353L94.7716 20.1353C94.7716 20.3392 94.6697 20.4922 94.5167 20.6451C94.3638 20.798 94.1599 20.849 93.9559 20.849H90.4383Z" fill="black"/>
<path d="M86.9207 37.3155C86.7168 37.3155 86.5639 37.2645 86.4619 37.1116C86.3599 36.9587 86.3599 36.8057 86.3599 36.6018L89.1128 23.5509C89.1638 23.347 89.2658 23.1941 89.4187 23.0921C89.5717 22.9392 89.7756 22.8882 89.9795 22.8882H93.4461C93.6501 22.8882 93.803 22.9392 93.905 23.0921C94.0069 23.2451 94.0579 23.398 94.0069 23.6019L91.254 36.6018C91.203 36.8057 91.1011 36.9587 90.9481 37.1116C90.7952 37.2645 90.6423 37.3155 90.4383 37.3155H86.9207Z" fill="black"/>
<path fill-rule="evenodd" clip-rule="evenodd" d="M96.403 23.8568L99.1049 29.2607C99.0539 29.4646 99.0539 29.6685 99.0539 29.9234C99.0539 31.7077 100.532 33.1861 102.317 33.1861C104.152 33.1861 105.579 31.7077 105.579 29.9234C105.579 28.3431 104.458 27.0686 102.979 26.7117L101.246 23.347C101.093 22.9902 100.838 22.8372 100.481 22.8372H97.0657C96.8618 22.8372 96.7089 22.9392 96.5559 23.0921C96.403 23.2451 96.352 23.398 96.352 23.6019C96.352 23.6529 96.352 23.7549 96.403 23.8568ZM102.317 31.1979C103.03 31.1979 103.591 30.6372 103.591 29.9744C103.591 29.2607 103.03 28.7509 102.317 28.7509C101.603 28.7509 101.042 29.3117 101.042 29.9744C101.042 30.6372 101.603 31.1979 102.317 31.1979Z" fill="black"/>
<path fill-rule="evenodd" clip-rule="evenodd" d="M100.481 33.441C100.532 33.492 100.583 33.492 100.634 33.543L100.125 34.8685C99.0539 37.5704 97.5245 40.8331 95.7402 42.8213C94.9246 43.739 93.854 44.4527 92.6814 44.9115C92.3246 44.9625 91.9677 45.0135 91.6109 45.0135H87.3286C87.2266 45.0135 87.1246 45.0135 87.0227 44.9115C86.9717 44.8605 86.9207 44.8096 86.8697 44.7586C86.8697 44.7076 86.8188 44.7076 86.8188 44.6566C86.6658 44.4017 86.7168 44.0449 87.0227 43.688L91.4069 38.692L91.5089 38.59L98.5951 30.4842V30.5352C98.5951 30.943 98.6971 31.3509 98.85 31.7077C99.0539 32.1666 99.3598 32.5744 99.7167 32.8803C99.9206 33.0842 100.175 33.2881 100.481 33.441ZM97.3716 38.59C97.2187 39.0998 97.0657 39.6096 96.8618 40.1194C96.454 41.088 95.8932 42.0057 95.1795 42.7704C95.6383 41.8527 96.0461 40.8841 96.352 39.9155C96.454 39.5586 96.5559 39.1508 96.6579 38.743L94.6697 40.9351L96.8108 37.9273C96.8618 37.6214 96.9128 37.2645 96.9638 36.9587L95.1795 38.9469L94.6697 39.5077L95.0775 38.9469L97.0657 36.194L97.1677 35.3783C97.1677 35.3273 97.1677 35.3273 97.1677 35.2763V35.2253L94.4657 38.2841L97.2696 34.5116C97.3206 34.3077 97.3206 34.0528 97.3716 33.8489C97.3716 33.7469 97.4226 33.594 97.4226 33.492L94.4657 36.9077L95.5873 35.4293L97.6775 32.5744C97.8304 32.0136 98.0853 31.4528 98.3912 30.8921C98.2383 31.4528 98.1363 32.0136 98.0343 32.5744C98.0343 32.6254 98.0343 32.6254 98.0343 32.6763C98.0343 32.7273 98.0343 32.7783 97.9834 32.8293C97.9324 33.1861 97.8814 33.543 97.8814 33.8999C97.8814 34.0528 97.8814 34.2057 97.8304 34.3587C97.7794 34.7155 97.7794 35.0724 97.7794 35.4802C97.7285 35.99 97.6775 36.4998 97.6265 37.0096C97.6265 37.1626 97.5755 37.3665 97.5245 37.5194C97.5245 37.8763 97.4736 38.2332 97.3716 38.59Z" fill="black"/>
<path d="M102.317 33.8489C103.744 33.8489 104.968 33.0842 105.681 31.9626L107.873 36.3469C107.924 36.4489 107.924 36.5508 107.924 36.5508C107.924 36.7547 107.873 36.9077 107.721 37.0606C107.568 37.2136 107.415 37.3155 107.211 37.3155H103.693C103.336 37.3155 103.081 37.1626 102.928 36.8057L101.297 33.6959C101.654 33.7979 101.96 33.8489 102.317 33.8489Z" fill="black"/>
</svg>
