<svg width="115" height="61" viewBox="0 0 115 61" fill="none" xmlns="http://www.w3.org/2000/svg">
<g clip-path="url(#clip0_993_6)">
<path d="M0.0908922 29.7762C0.0908922 25.686 0.0908922 21.505 0.0908922 17.4148C0.0908922 16.2332 0.272677 16.1423 1.36338 16.1423C3.36301 16.1423 5.36264 16.1423 7.36227 16.1423C9.90726 16.1423 11.9069 17.6875 12.4522 20.0507C12.5431 20.596 12.5431 21.2323 12.5431 21.7776C12.5431 23.0501 12.5431 24.4135 12.5431 25.686C12.634 27.2312 11.9069 28.4128 10.6344 29.2308C9.90726 29.6853 9.90726 29.958 10.6344 30.3215C11.9069 31.0487 12.5431 32.1394 12.5431 33.5936C12.5431 35.6842 12.5431 37.7747 12.5431 39.8652C12.5431 42.1375 11.0889 43.5918 8.81655 43.5918C6.27157 43.5918 3.72658 43.5918 1.1816 43.5918C0.272677 43.5918 0 43.41 0 42.4102C0.0908923 38.2291 0.0908922 34.0481 0.0908922 29.7762ZM5.18086 35.1388C5.18086 36.0477 5.18086 36.8658 5.18086 37.7747C5.18086 37.9565 5.27175 38.32 5.45354 38.4109C6.63514 38.9563 7.72584 38.2291 7.72584 36.9567C7.72584 35.8659 7.72584 34.8661 7.72584 33.7754C7.72584 32.2303 7.36227 31.9576 5.908 31.9576C5.36264 31.9576 5.18086 32.2303 5.18086 32.6847C5.18086 33.5028 5.18086 34.3208 5.18086 35.1388ZM5.18086 24.4135C5.18086 25.2316 5.18086 26.0496 5.18086 26.8676C5.18086 27.1403 5.36264 27.413 5.54443 27.5039C6.63514 27.9583 7.72584 27.2312 7.72584 26.0496C7.72584 25.0498 7.72584 24.05 7.72584 23.0501C7.72584 21.5959 7.36227 21.2323 5.908 21.2323C5.36264 21.2323 5.18086 21.4141 5.18086 21.9594C5.18086 22.7775 5.18086 23.5955 5.18086 24.4135Z" fill="black"/>
<path d="M83.53 29.7762C83.53 25.686 83.53 21.505 83.53 17.4148C83.53 16.1423 83.6209 16.0514 84.8934 16.0514C86.6203 16.0514 88.3473 16.0514 90.1651 16.0514C93.3464 15.9605 95.8005 17.5966 95.9822 21.2323C96.0731 23.2319 95.9822 25.1407 95.8913 27.1403C95.8005 28.4128 95.1642 29.3217 93.9826 29.958C93.2555 30.4124 93.2555 30.6851 93.9826 31.0487C95.4369 31.8667 95.9822 33.1392 95.9822 34.6844C95.9822 37.3202 95.9822 39.8652 95.9822 42.5011C95.9822 43.41 95.8005 43.5918 94.8915 43.5918C93.9826 43.5918 92.9828 43.5918 92.0739 43.5918C91.165 43.5918 90.9832 43.41 90.9832 42.4102C90.9832 39.7743 90.9832 37.1384 90.9832 34.5026C90.9832 33.321 90.0742 32.5938 88.8926 32.9574C88.62 33.0483 88.4382 33.5028 88.4382 33.8663C88.4382 36.684 88.4382 39.5925 88.4382 42.4102C88.4382 43.41 88.3473 43.5009 87.3475 43.5009C86.4386 43.5009 85.4387 43.5009 84.5298 43.5009C83.8027 43.5009 83.53 43.2282 83.53 42.5011C83.53 38.4109 83.53 34.139 83.53 29.7762ZM88.4382 25.0498C88.4382 26.0496 88.4382 27.0494 88.4382 28.0492C88.4382 28.3219 88.62 28.6855 88.8018 28.7764C89.6198 29.1399 91.0741 28.5946 90.9832 27.413C90.8923 25.9587 90.9832 24.5044 90.9832 23.0501C90.9832 21.5959 90.6196 21.3232 89.1653 21.3232C88.62 21.3232 88.4382 21.5959 88.4382 22.1412C88.4382 23.0501 88.4382 24.05 88.4382 25.0498Z" fill="black"/>
<path d="M59.8071 43.6827C59.4436 43.6827 59.08 43.6827 58.6255 43.6827C57.5348 43.6827 57.4439 43.5918 57.2621 42.5011C57.1712 41.5922 57.0803 40.7741 57.0803 39.8652C57.0803 39.3199 56.8077 39.1381 56.3532 39.1381C55.717 39.1381 55.0807 39.1381 54.3536 39.1381C53.8991 39.1381 53.6264 39.3199 53.6264 39.8652C53.5355 40.865 53.4447 41.9557 53.3538 42.9555C53.3538 43.5009 52.9902 43.6827 52.5357 43.6827C51.5359 43.6827 50.4452 43.6827 49.4454 43.6827C48.6274 43.6827 48.4456 43.41 48.5365 42.6829C48.8092 40.1379 48.9909 37.6838 49.2636 35.1388C49.5363 32.5938 49.7181 30.0488 49.8999 27.413C50.0816 24.868 50.3543 22.323 50.627 19.778C50.7179 18.96 50.8088 18.142 50.8088 17.3239C50.8997 16.3241 51.0815 16.0514 52.0813 16.0514C54.3536 16.0514 56.6259 16.0514 58.8982 16.0514C59.6253 16.0514 59.9889 16.3241 60.0798 17.0512C60.2616 18.96 60.4434 20.8687 60.5343 22.7775C60.8069 25.4133 60.9887 28.0492 61.2614 30.6851C61.4432 32.6847 61.625 34.5935 61.7159 36.5931C61.8976 38.5927 62.0794 40.5923 62.2612 42.592C62.3521 43.3191 62.1703 43.5918 61.4432 43.5918C61.3523 43.5918 61.3523 43.5918 61.2614 43.5918C60.8069 43.5918 60.2616 43.5918 59.8071 43.6827ZM54.0809 33.5936C54.0809 33.8663 53.99 34.0481 54.0809 34.2299C54.1718 34.5026 54.3536 34.957 54.5354 34.957C55.2625 34.957 55.8988 34.7752 56.6259 34.6844C56.6259 34.6844 56.7168 34.4117 56.6259 34.2299C56.6259 33.7754 56.535 33.321 56.535 32.7756C56.2623 29.1399 55.9896 25.5042 55.717 21.8685C55.717 21.6868 55.5352 21.505 55.4443 21.3232C55.3534 21.505 55.0807 21.6868 55.0807 21.8685C54.8989 23.3228 54.808 24.7771 54.7171 26.1405C54.4445 28.6855 54.2627 31.1396 54.0809 33.5936Z" fill="black"/>
<path d="M112.706 43.5918C112.252 43.5918 111.797 43.5918 111.343 43.5918C110.525 43.5918 110.252 43.3191 110.161 42.5011C110.071 41.5922 110.071 40.7741 109.98 39.8652C109.98 39.4107 109.707 39.1381 109.253 39.1381C108.525 39.1381 107.889 39.1381 107.162 39.1381C106.708 39.1381 106.526 39.3199 106.435 39.7743C106.344 40.7741 106.253 41.8648 106.162 42.8647C106.162 43.41 105.89 43.6827 105.344 43.6827C104.253 43.6827 103.163 43.6827 102.072 43.6827C101.527 43.6827 101.163 43.41 101.254 42.7738C101.436 40.865 101.618 39.0472 101.799 37.1384C101.981 35.1388 102.163 33.1392 102.345 31.1396C102.617 28.5037 102.799 25.8678 103.072 23.3228C103.254 21.3232 103.435 19.4144 103.526 17.4148C103.617 16.3241 103.708 16.2332 104.799 16.2332C107.071 16.2332 109.343 16.2332 111.525 16.2332C112.434 16.2332 112.706 16.415 112.797 17.3239C112.979 19.1418 113.161 21.0505 113.252 22.8684C113.524 25.5042 113.706 28.231 113.979 30.8669C114.161 32.8665 114.342 34.7752 114.433 36.7749C114.615 38.7745 114.797 40.6832 114.979 42.6829C115.07 43.41 114.888 43.7736 114.07 43.7736C113.706 43.6827 113.161 43.5918 112.706 43.5918ZM108.253 34.957C109.525 34.957 109.616 34.8661 109.525 33.5936V33.5027C109.343 30.9578 109.162 28.5037 108.98 25.9587C108.889 24.5953 108.798 23.2319 108.616 21.8685C108.616 21.6868 108.344 21.505 108.253 21.3232C108.162 21.505 107.98 21.5959 107.889 21.7776C107.798 21.8685 107.798 22.0503 107.798 22.1412C107.526 26.1405 107.253 30.2306 106.98 34.2299C106.98 34.6844 107.162 34.8661 107.526 34.957C107.707 34.957 107.98 34.957 108.253 34.957Z" fill="black"/>
<path d="M18.1785 29.7762C18.1785 25.5951 18.1785 21.4141 18.1785 17.233C18.1785 16.2332 18.3602 16.0514 19.3601 16.0514C22.0868 16.0514 24.8136 16.0514 27.4495 16.0514C28.3584 16.0514 28.5402 16.2332 28.5402 17.1421C28.5402 18.142 28.5402 19.2327 28.5402 20.2325C28.5402 20.9596 28.1766 21.2323 27.5404 21.2323C26.3588 21.2323 25.1772 21.2323 23.9956 21.2323C23.4502 21.2323 23.1775 21.3232 23.1775 21.9594C23.1775 23.5955 23.1775 25.2316 23.1775 26.8676C23.1775 27.413 23.4502 27.5948 23.9047 27.5948C24.7227 27.5948 25.6316 27.5948 26.4497 27.5948C27.4495 27.5948 27.5404 27.6856 27.5404 28.6855C27.5404 29.4126 27.5404 30.0488 27.5404 30.776C27.5404 31.6849 27.3586 31.8667 26.4497 31.8667C25.6316 31.8667 24.7227 31.8667 23.9047 31.8667C23.3593 31.8667 23.1775 31.9576 23.1775 32.5029C23.1775 34.2299 23.1775 35.8659 23.1775 37.5929C23.1775 38.2291 23.4502 38.4109 23.9956 38.32C25.1772 38.32 26.2679 38.32 27.4495 38.32C28.3584 38.32 28.5402 38.5018 28.5402 39.4107C28.5402 40.5015 28.5402 41.5013 28.5402 42.592C28.5402 43.2282 28.2675 43.5918 27.5404 43.5918C24.7227 43.5918 21.905 43.5918 19.0874 43.5918C18.2693 43.5918 18.0876 43.41 18.0876 42.5011C18.1785 38.32 18.1785 34.0481 18.1785 29.7762Z" fill="black"/>
<path d="M69.4417 32.3211C69.4417 28.9581 69.4417 25.5042 69.4417 22.1412C69.4417 21.505 69.2599 21.2323 68.5328 21.3232C67.8965 21.4141 67.2603 21.3232 66.5331 21.3232C65.9878 21.3232 65.6242 21.0505 65.7151 20.4143C65.7151 19.2327 65.7151 18.142 65.7151 16.9604C65.7151 16.3241 65.9878 16.0514 66.624 16.0514C70.1688 16.0514 73.8045 16.0514 77.3493 16.0514C77.9856 16.0514 78.2582 16.415 78.2582 17.0512C78.2582 18.142 78.2582 19.1418 78.2582 20.2325C78.2582 20.9596 77.8947 21.2323 77.2584 21.2323C76.6222 21.2323 75.8951 21.2323 75.2588 21.2323C74.6226 21.2323 74.4408 21.505 74.4408 22.0503C74.4408 25.7769 74.4408 29.5035 74.4408 33.321C74.4408 36.2295 74.4408 39.229 74.4408 42.1375C74.4408 43.5918 74.4408 43.5918 72.9865 43.5918C72.1685 43.5918 71.4413 43.5918 70.6233 43.5918C69.6235 43.5918 69.3508 43.41 69.3508 42.3193C69.3508 39.5925 69.3508 36.9567 69.3508 34.2299C69.4417 33.6845 69.4417 32.9574 69.4417 32.3211Z" fill="black"/>
<path d="M34.1755 29.7762C34.1755 25.686 34.1755 21.5959 34.1755 17.5057C34.1755 16.2332 34.2664 16.1423 35.5389 16.1423C36.3569 16.1423 37.1749 16.1423 38.0839 16.1423C39.0837 16.1423 39.1746 16.3241 39.1746 17.3239C39.1746 23.9591 39.1746 30.6851 39.1746 37.3202C39.1746 38.5018 39.1746 38.5018 40.3562 38.5018C41.2651 38.5018 42.2649 38.5018 43.1738 38.5018C43.8101 38.5018 44.0828 38.7745 44.0828 39.4107C44.0828 40.5015 44.0828 41.6831 44.0828 42.7738C44.0828 43.5009 43.8101 43.7736 43.0829 43.7736C40.538 43.7736 37.993 43.7736 35.448 43.7736C34.4482 43.7736 34.1755 43.5918 34.1755 42.5011C34.1755 38.2291 34.1755 33.9572 34.1755 29.7762Z" fill="black"/>
</g>
<defs>
<clipPath id="clip0_993_6">
<rect width="115" height="60" fill="white" transform="translate(0 0.410645)"/>
</clipPath>
</defs>
</svg>
