<svg width="96" height="61" viewBox="0 0 96 61" fill="none" xmlns="http://www.w3.org/2000/svg">
<path d="M59.87 30.32H56.6L56.58 21.15C56.34 18.71 57.97 15.79 61.24 15.79C61.9345 15.713 62.6375 15.7871 63.3008 16.007C63.964 16.227 64.5719 16.5877 65.0829 17.0644C65.5938 17.5412 65.9957 18.1227 66.261 18.7692C66.5263 19.4156 66.6487 20.1118 66.62 20.81V30.31H63.28V21.3C63.28 20 62.81 18.99 61.24 19.14C59.98 19.26 59.81 20.74 59.88 21.46V30.33L59.87 30.32ZM59.87 31.67H56.6L56.58 40.84C56.34 43.28 57.97 46.2 61.24 46.2C61.9345 46.277 62.6375 46.2029 63.3008 45.9829C63.964 45.763 64.5719 45.4023 65.0829 44.9256C65.5938 44.4488 65.9957 43.8673 66.261 43.2208C66.5263 42.5744 66.6487 41.8782 66.62 41.18V31.68H63.28V40.7C63.28 42 62.81 43 61.24 42.86C59.98 42.74 59.81 41.26 59.88 40.54V31.67H59.87Z" fill="black"/>
<path fill-rule="evenodd" clip-rule="evenodd" d="M8.95999 15.76V30.42H17.91C18.49 29.77 18.77 28.46 18.78 27.88C18.8 27.29 18.79 22.86 18.78 20.72C18.7763 20.0553 18.6398 19.398 18.3785 18.7868C18.1172 18.1756 17.7365 17.6227 17.2586 17.1607C16.7807 16.6986 16.2153 16.3367 15.5956 16.0962C14.976 15.8556 14.3145 15.7414 13.65 15.76H8.95999ZM15.33 21.99C15.33 20.37 14.03 19.07 12.41 19.07V29.37C13.1844 29.37 13.9271 29.0624 14.4747 28.5148C15.0223 27.9672 15.33 27.2245 15.33 26.45V21.99ZM8.95999 46.25V31.6H18.24C18.84 32.25 19.14 33.56 19.14 34.14C19.1554 36.53 19.1554 38.92 19.14 41.31C19.14 42.89 18.08 46.09 13.82 46.26H8.95999V46.25ZM15.56 39.92C15.56 40.7219 15.2421 41.4911 14.6761 42.059C14.11 42.627 13.3419 42.9474 12.54 42.95V32.65C13.3419 32.65 14.111 32.9679 14.679 33.534C15.2469 34.1 15.5673 34.8681 15.57 35.67V39.92H15.56Z" fill="black"/>
<path d="M30.36 15.76H21.56V30.42H30.36V29.3H24.88V19.16H30.36V15.76ZM30.36 46.25H21.56V31.6H30.36V32.72H24.88V42.86H30.36V46.26V46.25ZM35.98 15.76H39.26V30.42H35.98V15.76Z" fill="black"/>
<path d="M42.5 15.8V19.08H32.75V15.8H42.5ZM36.01 31.6H39.29V46.19H36.01V31.59V31.6ZM54.63 23.06H51.25C51.25 21.16 51.45 19.23 49.79 19.09C48.27 18.95 47.93 20.38 47.93 21.59C47.93 22.82 47.99 25.45 48.2 26.22C48.66 28 50.62 29.68 51.54 30.3H46.1C44.27 27.87 44.67 25.8 44.61 21.6C44.56 17.39 46.89 16.32 48.8 15.85C54.05 15.16 55.32 20.07 54.63 23.06ZM44.62 38.92H48C48 40.83 47.8 42.75 49.46 42.9C50.98 43.03 51.32 41.6 51.32 40.39C51.32 39.17 51.26 36.53 51.06 35.76C50.6 33.98 48.63 32.3 47.71 31.68H53.15C54.98 34.11 54.58 36.18 54.64 40.38C54.69 44.6 52.36 45.67 50.45 46.14C45.2 46.82 43.93 41.91 44.62 38.92ZM77.67 15.64H68.72V30.3H77.67V29.16H72.37V19.02H77.67V15.64ZM72.1 46.19H68.72V31.52H77.67V32.64H72.1V46.2V46.19ZM78.92 15.79H88.83V19.02H85.62V30.45H82.26V19.02H78.92V15.79ZM82.26 31.6H85.61V46.19H82.26V31.59V31.6ZM89.94 31L95.91 25.2V36.76L89.94 31ZM5.96 31L0 25.2V36.76L5.96 31Z" fill="black"/>
</svg>
