<svg width="140" height="61" viewBox="0 0 140 61" fill="none" xmlns="http://www.w3.org/2000/svg">
<path d="M40 42.36H38.8V16.77H40V42.37V42.36ZM6.49999 28.62H8.35999C9.04999 28.6 9.57999 28.42 9.94999 28.03C10.31 27.64 10.5 27.11 10.5 26.39C10.5 25.59 10.3 25.01 9.92999 24.64C9.54999 24.28 8.97999 24.08 8.20999 24.08H6.49999V28.62ZM6.48999 30.95V35.82H8.88999C9.58999 35.82 10.13 35.62 10.48 35.23C10.83 34.84 11.01 34.26 11.01 33.49C11.051 32.8325 10.8943 32.1777 10.56 31.61C10.26 31.17 9.76999 30.95 9.10999 30.95H6.49999H6.48999Z" fill="black"/>
<path fill-rule="evenodd" clip-rule="evenodd" d="M0.350006 19.27H16.75V40.93H0.350006V19.27ZM3.35001 21.43V38.48H9.13001C10.9 38.48 12.25 38.06 13.2 37.22C14.14 36.38 14.61 35.14 14.61 33.51C14.6327 32.6385 14.4073 31.7784 13.96 31.03C13.7342 30.6742 13.4374 30.3688 13.088 30.1331C12.7387 29.8973 12.3445 29.7363 11.93 29.66C12.6156 29.3862 13.192 28.8942 13.57 28.26C13.94 27.59 14.13 26.84 14.11 26.09C14.11 24.54 13.61 23.38 12.61 22.59C11.61 21.82 10.23 21.43 8.45001 21.43H3.35001Z" fill="black"/>
<path d="M32.24 37.52C33.0294 37.0721 33.6932 36.4324 34.17 35.66V29.46H28.82V31.19H31.77V35.06C31.54 35.5 31.18 35.86 30.75 36.12C30.3 36.39 29.65 36.53 28.84 36.53C28.3377 36.5546 27.8363 36.4648 27.3738 36.2673C26.9112 36.0698 26.4996 35.7699 26.17 35.39C25.52 34.63 25.2 33.52 25.2 32.06V26.98C25.2 25.55 25.5 24.48 26.1 23.72C26.3995 23.3501 26.7818 23.0559 27.2162 22.8614C27.6505 22.6668 28.1246 22.5772 28.6 22.6C29.64 22.6 30.43 22.88 30.95 23.43C31.48 23.99 31.76 24.81 31.8 25.88H34.08L34.1 25.81C34.1117 25.1241 33.9848 24.4429 33.7271 23.8071C33.4694 23.1714 33.086 22.5942 32.6 22.11C31.67 21.23 30.32 20.8 28.56 20.8C26.82 20.8 25.43 21.34 24.38 22.42C23.33 23.51 22.8 25.04 22.8 27.02V32.07C22.8 34.07 23.35 35.62 24.46 36.71C25.0432 37.2583 25.7304 37.6842 26.481 37.9625C27.2316 38.2407 28.0303 38.3657 28.83 38.33C30.22 38.33 31.35 38.06 32.24 37.52ZM59.85 42.36H61.05V16.77H59.85V42.37V42.36ZM82.04 42.36H80.84V16.77H82.04V42.37V42.36ZM101.9 42.36H103.1V16.77H101.9V42.37V42.36ZM124.16 42.36H122.96V16.77H124.16V42.37V42.36Z" fill="black"/>
<path fill-rule="evenodd" clip-rule="evenodd" d="M47.02 34.1301H52.53L53.79 38.4301H56.24L50.97 21.3701H48.64L43.33 38.4301H45.77L47.02 34.1301ZM51.98 32.2401H47.58L49.76 24.7801H49.83L51.98 32.2401Z" fill="black"/>
<path d="M66.88 21.3699L70.91 35.2899H70.98L75.03 21.3699H78.13V38.4199H75.75V31.8799L75.96 25.3099H75.89L71.74 38.4199H70.16L66 25.3199H65.94L66.16 31.8799V38.4199H63.77V21.3699H66.87H66.88ZM90.7 38.4199H93.1V21.3699H90.7V38.4199ZM119 38.4199H116.6L110.05 25.7399L109.99 25.7599V38.4199H107.58V21.3699H109.98L116.53 34.0199L116.6 33.9999V21.3699H119V38.4199ZM137.22 37.5999C138.01 37.1565 138.674 36.52 139.15 35.7499V29.5499H133.8V31.2699H136.75V35.1599C136.51 35.5999 136.15 35.9599 135.72 36.2099C135.13 36.5204 134.466 36.6655 133.8 36.6299C133.299 36.653 132.8 36.5624 132.339 36.365C131.879 36.1675 131.469 35.8684 131.14 35.4899C130.49 34.7299 130.16 33.6199 130.16 32.1599V27.0599C130.16 25.6399 130.48 24.5599 131.08 23.7999C131.38 23.4306 131.762 23.1369 132.197 22.9423C132.631 22.7478 133.105 22.6579 133.58 22.6799C134.61 22.6799 135.4 22.9699 135.93 23.5199C136.46 24.0799 136.73 24.8999 136.77 25.9699H139.05L139.07 25.8999C139.082 25.214 138.955 24.5328 138.697 23.897C138.439 23.2613 138.056 22.684 137.57 22.1999C136.64 21.3199 135.29 20.8899 133.53 20.8899C131.79 20.8899 130.4 21.4299 129.35 22.5099C128.29 23.5999 127.77 25.1299 127.77 27.1099V32.1699C127.77 34.1699 128.32 35.7199 129.43 36.7999C130.012 37.3505 130.699 37.7785 131.45 38.0585C132.2 38.3385 133 38.4648 133.8 38.4299C134.994 38.476 136.177 38.1923 137.22 37.6099V37.5999Z" fill="black"/>
</svg>
