<svg width="114" height="61" viewBox="0 0 114 61" fill="none" xmlns="http://www.w3.org/2000/svg">
<path d="M73.23 38.6401V29.9601C73.23 28.2201 73.48 26.7501 73.98 25.5601C74.408 24.4928 75.0837 23.5426 75.9513 22.788C76.819 22.0333 77.8537 21.4959 78.97 21.2201C80.0897 20.9067 81.2472 20.7485 82.41 20.7501H83.06V25.5301H81.56C80.29 25.5301 79.35 25.8301 78.74 26.4701C78.13 27.1001 77.82 28.0801 77.82 29.4301V38.6301H73.22L73.23 38.6401ZM84.41 15.5001H86.77C87.0648 15.4969 87.3569 15.5558 87.6274 15.6729C87.8979 15.7901 88.1407 15.9629 88.34 16.1801C88.5537 16.3895 88.7225 16.6402 88.8359 16.9171C88.9494 17.1939 89.0052 17.4909 89 17.7901V19.2001H84.4V15.5001H84.41ZM84.41 20.7501H86.77C87.37 20.7501 87.93 20.9901 88.34 21.4201C88.76 21.8501 89 22.4301 89 23.0401V38.6401H84.4V20.7501H84.41ZM105.4 38.6401H103.11C102.813 38.6533 102.517 38.603 102.241 38.4927C101.965 38.3823 101.716 38.2144 101.51 38.0001C101.296 37.7842 101.129 37.5259 101.02 37.2417C100.912 36.9576 100.864 36.6538 100.88 36.3501V27.2101C100.88 26.1301 100.57 25.3501 99.93 24.8501C99.3294 24.3748 98.5859 24.1161 97.82 24.1161C97.0541 24.1161 96.3106 24.3748 95.71 24.8501C95.09 25.3501 94.79 26.1301 94.79 27.2101V38.6401H90.2V28.1401C90.2 25.1001 90.98 23.0601 92.53 22.0301C94.0565 21.0087 95.8349 20.4274 97.67 20.3501C99.5522 20.3357 101.398 20.8709 102.98 21.8901C104.6 22.9201 105.4 25.0101 105.4 28.1501V38.6401ZM113.86 38.6401C112.3 38.7301 110.74 38.7001 109.18 38.5701C107.5 38.4401 106.66 37.3401 106.66 35.2701V15.5201H109.02C109.303 15.5205 109.583 15.5803 109.841 15.6957C110.1 15.8111 110.331 15.9796 110.52 16.1901C110.734 16.3995 110.902 16.6502 111.016 16.9271C111.129 17.2039 111.185 17.5009 111.18 17.8001V20.8301H113.87V21.7701C113.884 22.2234 113.758 22.6699 113.509 23.0492C113.261 23.4285 112.901 23.722 112.48 23.8901C112.21 24.0001 111.92 24.0501 111.63 24.0501H111.17V34.0001C111.17 34.7601 111.61 35.1401 112.48 35.1401H113.86V38.6401ZM60.45 42.9401C60.45 43.5501 60.21 44.1401 59.79 44.5601C59.587 44.7725 59.3435 44.9422 59.0738 45.059C58.8042 45.1758 58.5138 45.2373 58.22 45.2401H55.99V28.4801C55.99 25.3501 56.89 23.2001 58.68 22.0601C60.4156 20.935 62.4417 20.3408 64.51 20.3501C65.64 20.3501 66.77 20.5701 67.82 20.9901C68.8513 21.3616 69.7658 22 70.47 22.8401C71.78 24.5901 72.44 26.8301 72.44 29.5601C72.44 32.3901 71.78 34.6701 70.47 36.4201C69.8988 37.2218 69.1421 37.8734 68.2644 38.3191C67.3868 38.7649 66.4143 38.9917 65.43 38.9801C64.43 39.0001 63.45 38.8001 62.54 38.3801C61.6446 37.9121 60.9123 37.1833 60.44 36.2901V42.9401H60.45ZM67.92 29.7601C67.92 28.0101 67.59 26.6601 66.94 25.7301C66.6321 25.2705 66.2107 24.8982 65.7167 24.6494C65.2226 24.4006 64.6726 24.2837 64.12 24.3101C63.5777 24.2871 63.0388 24.406 62.5565 24.6551C62.0742 24.9041 61.6653 25.2746 61.37 25.7301C60.76 26.5801 60.45 27.9301 60.45 29.7601C60.45 31.4601 60.78 32.7401 61.42 33.6001C62.08 34.5301 63.02 35.0001 64.24 35.0001C64.773 35.0223 65.3026 34.9049 65.7762 34.6593C66.2499 34.4137 66.6511 34.0486 66.94 33.6001C67.6523 32.4507 67.9944 31.1103 67.92 29.7601ZM9.44 20.3501C8.3 20.3501 7.34 20.5701 6.56 21.0201C5.68636 21.5128 4.96109 22.2312 4.46 23.1001V17.7201C4.4637 17.422 4.40814 17.1262 4.29655 16.8499C4.18497 16.5735 4.01958 16.322 3.81 16.1101C3.60713 15.8954 3.36203 15.7251 3.09011 15.6098C2.81818 15.4945 2.52534 15.4367 2.23 15.4401H0V30.8401C0 34.0201 0.9 36.1701 2.69 37.2901C4.43134 38.4002 6.45491 38.9868 8.52 38.9801C9.65 38.9801 10.76 38.7801 11.83 38.4001C12.8792 38.0638 13.8027 37.4191 14.48 36.5501C15.8 34.8101 16.45 32.5401 16.45 29.7501C16.45 26.9701 15.79 24.7001 14.48 22.9501C13.9169 22.1373 13.1629 21.4751 12.2841 21.0218C11.4054 20.5685 10.4287 20.3378 9.44 20.3501ZM10.94 33.6601C10.6332 34.116 10.2149 34.4859 9.72478 34.7344C9.23467 34.983 8.6891 35.102 8.14 35.0801C7.59604 35.1048 7.05508 34.9868 6.57089 34.7376C6.0867 34.4885 5.67613 34.117 5.38 33.6601C4.77 32.8101 4.46 31.4401 4.46 29.5601C4.46 27.9501 4.79 26.6601 5.45 25.7301C5.76835 25.2883 6.19232 24.9332 6.68317 24.6974C7.17403 24.4616 7.71614 24.3525 8.26 24.3801C8.79248 24.3596 9.32102 24.4791 9.79298 24.7264C10.2649 24.9738 10.6639 25.3406 10.95 25.7901C11.6 26.6901 11.92 27.9501 11.92 29.5601C11.92 31.3601 11.6 32.7201 10.95 33.6601H10.94ZM19.8 15.5001H17.44V38.6401H22.02V17.7201C22.0254 17.4263 21.9705 17.1345 21.8587 16.8627C21.7469 16.591 21.5806 16.345 21.37 16.1401C21.1628 15.9367 20.9174 15.7763 20.648 15.6681C20.3785 15.56 20.0903 15.5063 19.8 15.5101V15.5001ZM34.45 21.4201C34.037 21.8567 33.8141 22.4393 33.83 23.0401V32.1801C33.83 33.2601 33.51 34.0401 32.88 34.5401C32.2809 35.023 31.5345 35.2864 30.765 35.2864C29.9955 35.2864 29.2491 35.023 28.65 34.5401C28.04 34.0401 27.73 33.2601 27.73 32.1801V20.7501H23.15V31.2401C23.15 34.3401 23.92 36.3701 25.47 37.3601C27.0131 38.3449 28.7908 38.9006 30.62 38.9701C32.4903 38.9821 34.3265 38.4694 35.92 37.4901C37.54 36.5101 38.35 34.4201 38.35 31.2401V20.7501H36.05C35.7507 20.7394 35.4527 20.7937 35.1764 20.9094C34.9002 21.0251 34.6524 21.1993 34.45 21.4201ZM53.17 22.7701C51.73 21.1501 49.7 20.3501 47.07 20.3501C44.59 20.3501 42.64 21.1801 41.25 22.8401C39.89 24.4401 39.22 26.6901 39.22 29.5601C39.22 32.5601 39.92 34.8801 41.32 36.4901C42.71 38.1501 44.65 38.9801 47.14 38.9801C48.972 39.0503 50.7746 38.5046 52.26 37.4301C53.6609 36.3713 54.6364 34.8459 55.01 33.1301H51.73C51.3 33.1001 50.88 33.2201 50.52 33.4601C50.23 33.6901 49.72 34.3701 49.31 34.6001C48.72 34.9301 48.07 35.0901 47.41 35.0801C46.27 35.0801 45.41 34.7201 44.85 34.0001C44.24 33.3301 43.91 32.3001 43.88 30.9001H55.2C55.26 30.7601 55.28 30.6001 55.27 30.4301V29.6901C55.27 26.7401 54.57 24.4301 53.17 22.7701ZM43.87 27.8801C43.91 26.7101 44.24 25.8201 44.84 25.1901C45.1477 24.8796 45.516 24.6359 45.9221 24.4742C46.3281 24.3125 46.7631 24.2362 47.2 24.2501C48.25 24.2501 49.06 24.5601 49.63 25.1901C50.15 25.7701 50.45 26.6701 50.54 27.8801H43.87Z" fill="black"/>
</svg>
