<svg width="108" height="61" viewBox="0 0 108 61" fill="none" xmlns="http://www.w3.org/2000/svg">
<path d="M44.93 21.4301C44.713 22.5837 44.0993 23.625 43.1953 24.3738C42.2913 25.1226 41.1538 25.5316 39.98 25.5301H39.88C39.52 25.5301 39.14 25.53 38.19 25.13C37.26 24.7301 37.05 24.5 36.37 23.96C35.97 23.66 35.4 23.0601 34.84 22.5601C34.29 23.1601 33.04 24.5601 32.93 24.6601C33.41 25.18 34.58 26.2001 35.06 26.5601L34.99 26.5001C35.8066 27.1844 36.7556 27.693 37.7776 27.9941C38.7996 28.2952 39.8728 28.3823 40.93 28.2501C42.4573 28.0656 43.8959 27.4336 45.0649 26.4336C46.2339 25.4336 47.0811 24.1103 47.5 22.63L44.93 21.4301ZM6.65 12.8301C7.73 12.8301 8.65 12.9301 9.41 13.1301C10.17 13.3301 10.79 13.6101 11.27 13.9801C11.75 14.3501 12.1 14.8001 12.32 15.3201C12.673 16.1973 12.7361 17.1644 12.5 18.0801C12.267 18.7724 11.8094 19.3672 11.2 19.7701C10.825 20.0278 10.4183 20.2362 9.99 20.3901C11.02 20.6401 11.78 21.0401 12.27 21.5901C12.77 22.1601 13.01 22.8901 13.01 23.7601C13.0223 24.3964 12.8923 25.0275 12.6293 25.6071C12.3663 26.1868 11.977 26.7002 11.49 27.1101C10.99 27.5401 10.39 27.8701 9.65 28.1101C8.84116 28.3634 7.99756 28.4883 7.15 28.4801H0.900002V12.8301H6.65ZM4.53 19.4101H6.42C6.82 19.4101 7.18 19.3801 7.5 19.3201C7.83 19.2701 8.1 19.1701 8.32 19.0201C8.55 18.8801 8.72 18.6901 8.84 18.4301C8.95 18.1801 9.01 17.8701 9.01 17.4901C9.01 17.1201 8.96 16.8101 8.87 16.5601C8.77 16.3201 8.63 16.1101 8.44 15.9601C8.22364 15.8002 7.97419 15.6908 7.71 15.6401C7.41 15.5701 7.06 15.5401 6.65 15.5401H4.53V19.4101ZM7.08 25.7301C7.56 25.7301 7.95 25.67 8.25 25.55C8.56 25.43 8.8 25.2801 8.97 25.0801C9.14 24.8801 9.27 24.6701 9.33 24.4301C9.45717 23.9304 9.45028 23.4061 9.31 22.9101C9.23 22.6901 9.11 22.4901 8.92 22.3301C8.70847 22.16 8.46296 22.0372 8.2 21.97C7.9 21.88 7.52 21.8401 7.06 21.8401H4.53V25.7401H7.08V25.7301ZM67.83 12.8301V28.46H64.63V19.4801L64.64 18.8001L64.7 18.0601L60.55 26.0901C60.42 26.3501 60.25 26.5401 60.03 26.6601C59.8 26.7901 59.56 26.8601 59.28 26.8601H58.78C58.5 26.8601 58.25 26.8001 58.03 26.6601C57.803 26.5271 57.6217 26.3283 57.51 26.0901L53.36 18.0401L53.41 18.8001L53.44 19.4701V28.46H50.24V12.8301H53L53.41 12.8401C53.6217 12.8448 53.8243 12.9266 53.98 13.0701C54.06 13.1501 54.13 13.2501 54.2 13.3901L58.23 21.3201C58.5297 21.8863 58.7935 22.4708 59.02 23.0701C59.13 22.7501 59.27 22.4401 59.4 22.14C59.53 21.84 59.67 21.5601 59.82 21.2801L63.83 13.3801C63.8824 13.2663 63.9572 13.1642 64.05 13.0801C64.1214 13.0029 64.2107 12.9445 64.31 12.9101C64.4089 12.8703 64.5136 12.8467 64.62 12.8401H67.83V12.8301ZM74.51 28.46H70.86V12.8301H74.51V28.46ZM91.19 12.8301V28.46H89.29C89.02 28.46 88.79 28.4201 88.59 28.3301C88.3731 28.2177 88.1823 28.061 88.03 27.8701L80.65 18.5401L80.71 19.3501L80.72 20.0901V28.46H77.52V12.8301H79.42C79.6579 12.8268 79.8946 12.864 80.12 12.9401C80.2 12.9801 80.28 13.0401 80.36 13.1001C80.44 13.1701 80.52 13.2701 80.63 13.4001L88.07 22.7801C87.9964 22.2265 87.963 21.6684 87.97 21.1101V12.8401H91.19V12.8301ZM101.73 20.3701H107.3V26.97C106.527 27.5398 105.661 27.9696 104.74 28.2401C103.83 28.5101 102.88 28.64 101.9 28.64C100.61 28.64 99.44 28.4401 98.38 28.0401C97.3775 27.6647 96.4597 27.0936 95.68 26.3601C94.9252 25.6492 94.3289 24.7871 93.93 23.8301C93.5158 22.8216 93.3083 21.7402 93.32 20.6501C93.32 19.4901 93.52 18.4201 93.9 17.4501C94.2721 16.4894 94.8445 15.6189 95.5789 14.8965C96.3134 14.174 97.1933 13.6162 98.16 13.2601C99.8474 12.6677 101.659 12.5196 103.42 12.8301C104.443 13.0248 105.425 13.397 106.32 13.9301C106.73 14.1901 107.09 14.4601 107.4 14.7601L106.35 16.3701C106.19 16.6201 105.97 16.7701 105.71 16.8301C105.45 16.8901 105.17 16.83 104.87 16.6301C104.606 16.4722 104.336 16.3254 104.06 16.1901C103.553 15.9335 103.005 15.7709 102.44 15.7101C102.115 15.6687 101.788 15.6486 101.46 15.6501C100.78 15.6501 100.16 15.7701 99.62 16.0201C99.08 16.2501 98.62 16.5901 98.23 17.0301C97.85 17.4601 97.56 17.9901 97.35 18.6101C97.15 19.2201 97.05 19.9001 97.05 20.6501C97.05 21.4701 97.16 22.2101 97.39 22.8501C97.5804 23.4468 97.9007 23.9939 98.3277 24.4521C98.7548 24.9103 99.2781 25.2682 99.86 25.5001C100.857 25.8889 101.948 25.9656 102.99 25.72C103.35 25.64 103.69 25.5201 104.03 25.38V23.0001H102.48C102.287 23.0097 102.097 22.9453 101.95 22.8201C101.885 22.7604 101.834 22.6876 101.799 22.6066C101.765 22.5256 101.748 22.4381 101.75 22.3501V20.3601H101.73V20.3701Z" fill="black"/>
<path d="M36.18 17.2C37.0325 16.2084 38.2397 15.5902 39.5426 15.478C40.8455 15.3659 42.1405 15.7687 43.15 16.6L41.95 17.46L47.48 19.99L46.91 13.95L45.48 14.95C44.7119 14.1832 43.7918 13.5856 42.7789 13.1957C41.766 12.8057 40.6828 12.632 39.5988 12.6857C38.5147 12.7394 37.4539 13.0193 36.4845 13.5074C35.5152 13.9955 34.6586 14.6811 33.97 15.52V15.54C31.9973 17.9754 29.9428 20.3435 27.81 22.64L27.51 22.91L27.45 22.95L27.07 23.28C27.0452 23.3024 27.0184 23.3224 26.99 23.34L26.65 23.61L26.56 23.69L26.33 23.86L26.25 23.93C26.0868 24.0353 25.9268 24.1454 25.77 24.26L25.48 24.45C25.4545 24.4685 25.4278 24.4852 25.4 24.5L25.16 24.65L25.06 24.7C24.5778 24.9898 24.0645 25.2246 23.53 25.4C23.16 25.51 22.88 25.57 22.31 25.57C21.0544 25.4711 19.8813 24.9057 19.0217 23.985C18.1622 23.0643 17.6785 21.8552 17.666 20.5958C17.6534 19.3363 18.1129 18.1178 18.954 17.1802C19.795 16.2426 20.9566 15.6539 22.21 15.53C23.79 15.43 25.18 16.1 26.22 17.12C26.8698 17.7848 27.5001 18.4684 28.11 19.17C28.64 18.6 29.93 17.09 29.97 17.03C29.72 16.7 28.66 15.58 28.59 15.5C27.5789 14.2953 26.2292 13.4222 24.7159 12.9937C23.2026 12.5652 21.5956 12.6012 20.103 13.0969C18.6104 13.5926 17.3011 14.5253 16.3449 15.774C15.3886 17.0227 14.8295 18.5298 14.74 20.1C14.6776 21.2174 14.8555 22.3352 15.2617 23.3781C15.6679 24.4209 16.2929 25.3646 17.0946 26.1455C17.8963 26.9264 18.8561 27.5263 19.9093 27.9048C20.9625 28.2834 22.0846 28.4318 23.2 28.34C23.56 28.3 23.88 28.22 24.16 28.16C24.6 28.06 25.05 27.82 25.06 27.82L25.13 27.79L25.4 27.66C25.4448 27.6434 25.4883 27.6233 25.53 27.6L25.83 27.45L25.93 27.39C26.21 27.24 26.51 27.08 26.81 26.89L26.94 26.81L27.28 26.59L27.44 26.49L27.78 26.24L27.93 26.14L28.29 25.87C28.3181 25.8484 28.3448 25.825 28.37 25.8L28.44 25.75C28.61 25.61 28.78 25.46 28.97 25.32L29.09 25.2L29.51 24.84L29.69 24.69L29.77 24.61L30.08 24.32C30.15 24.27 31.72 22.72 32.78 21.43C33.85 20.14 35 18.6 36.18 17.2ZM25.5 39.76H31.07V46.36C30.2974 46.9296 29.4309 47.3594 28.51 47.63C27.61 47.9 26.66 48.03 25.67 48.03C24.4726 48.0422 23.2831 47.8354 22.16 47.42C21.1512 47.05 20.2264 46.4822 19.44 45.75C18.6888 45.0382 18.0959 44.1762 17.7 43.22C17.286 42.2115 17.0786 41.1301 17.09 40.04C17.09 38.87 17.29 37.8 17.67 36.83C18.0444 35.8702 18.6188 35.001 19.355 34.2803C20.0912 33.5596 20.9724 33.0039 21.94 32.65C23.6275 32.0581 25.4388 31.91 27.2 32.22C28.2235 32.4145 29.205 32.7868 30.1 33.32C30.5 33.58 30.86 33.85 31.17 34.15L30.12 35.75C29.96 36 29.75 36.15 29.49 36.21C29.23 36.27 28.94 36.21 28.64 36.01C28.3772 35.8504 28.1069 35.7036 27.83 35.57C27.3232 35.3141 26.7744 35.1515 26.21 35.09C25.885 35.0486 25.5576 35.0286 25.23 35.03C24.55 35.03 23.93 35.15 23.39 35.39C22.85 35.63 22.39 35.97 22.01 36.41C21.62 36.84 21.33 37.37 21.12 37.98C20.92 38.6 20.82 39.28 20.82 40.02C20.82 40.85 20.93 41.59 21.16 42.24C21.3504 42.8367 21.6707 43.3839 22.0977 43.8421C22.5248 44.3003 23.0481 44.6582 23.63 44.89C24.631 45.2775 25.7263 45.3508 26.77 45.1C27.12 45.02 27.47 44.9 27.8 44.76V42.39H26.25C26.0569 42.3996 25.8673 42.3352 25.72 42.21C25.6552 42.1504 25.6038 42.0776 25.5694 41.9966C25.5349 41.9155 25.518 41.8281 25.52 41.74V39.76H25.51H25.5ZM47.3 47.85H44.48C44.2221 47.8622 43.967 47.7923 43.7514 47.6504C43.5357 47.5084 43.3707 47.3017 43.28 47.06L42.36 44.34H36.4L35.48 47.07C35.4 47.27 35.26 47.45 35.06 47.61C34.86 47.77 34.6 47.86 34.3 47.86H31.46L37.51 32.23H41.23L47.29 47.85H47.3ZM41.54 41.88L40.09 37.61C39.98 37.34 39.87 37.01 39.74 36.65C39.62 36.28 39.49 35.88 39.38 35.45C39.1981 36.1922 38.9642 36.9207 38.68 37.63L37.26 41.88H41.54ZM66.12 32.23V47.86H62.92V38.86L62.93 38.19L62.99 37.45L58.84 45.48C58.71 45.73 58.54 45.92 58.32 46.05C58.09 46.17 57.85 46.25 57.57 46.25H57.07C56.79 46.25 56.54 46.18 56.32 46.05C56.093 45.917 55.9117 45.7183 55.8 45.48L51.65 37.43L51.7 38.18L51.73 38.86V47.84H48.53V32.23H51.7C51.82 32.24 51.92 32.27 52.02 32.3C52.12 32.33 52.19 32.4 52.27 32.46C52.35 32.54 52.42 32.65 52.49 32.78L56.53 40.71C56.8298 41.2762 57.0936 41.8607 57.32 42.46C57.5396 41.8466 57.8071 41.2514 58.12 40.68L62.14 32.78C62.21 32.65 62.28 32.54 62.36 32.46C62.4296 32.3878 62.5153 32.333 62.61 32.3C62.71 32.26 62.81 32.24 62.93 32.24L63.33 32.23H66.12ZM72.8 35.02V38.66H77.71V41.35H72.8V45.07H79.23V47.86H69.14V32.23H79.22V35.02H72.79H72.8ZM90.1 35.4C89.98 35.57 89.87 35.7 89.75 35.79C89.6165 35.8767 89.4589 35.9188 89.3 35.91C89.13 35.91 88.96 35.86 88.77 35.76L88.12 35.41C87.8569 35.2707 87.5826 35.1537 87.3 35.06C87 34.96 86.64 34.91 86.25 34.91C85.57 34.91 85.05 35.05 84.73 35.34C84.39 35.63 84.23 36.02 84.23 36.51C84.23 36.83 84.33 37.09 84.53 37.29C84.73 37.49 84.99 37.68 85.32 37.83C85.64 37.98 86.02 38.12 86.44 38.23L87.72 38.65C88.15 38.81 88.59 38.98 89 39.2C89.42 39.4 89.8 39.67 90.12 40C90.4905 40.369 90.7798 40.8113 90.9692 41.2987C91.1587 41.7861 91.2441 42.3077 91.22 42.83C91.22 43.56 91.09 44.23 90.83 44.86C90.5812 45.4922 90.1999 46.0639 89.7117 46.5365C89.2236 47.0091 88.6399 47.3717 88 47.6C86.7545 48.0226 85.4195 48.1088 84.13 47.85C83.1445 47.6486 82.1986 47.2872 81.33 46.78C80.9339 46.5454 80.5678 46.2633 80.24 45.94L81.31 44.25C81.41 44.13 81.51 44.03 81.65 43.95C81.8 43.86 81.95 43.82 82.11 43.82C82.32 43.82 82.54 43.89 82.76 44.02L83.5 44.47C83.77 44.64 84.09 44.79 84.45 44.92C84.81 45.05 85.23 45.12 85.72 45.12C86.38 45.12 86.89 44.98 87.26 44.69C87.62 44.39 87.8 43.94 87.8 43.31C87.8 42.95 87.7 42.65 87.5 42.42C87.2794 42.1794 87.0101 41.9885 86.71 41.86C86.3557 41.6947 85.9877 41.5609 85.61 41.46C85.1807 41.3425 84.7539 41.2159 84.33 41.08C83.89 40.94 83.47 40.78 83.05 40.58C82.1755 40.1679 81.4946 39.4332 81.15 38.53C80.7302 37.3772 80.748 36.1105 81.2 34.97C81.44 34.41 81.79 33.91 82.24 33.47C82.7328 33.0149 83.3105 32.6615 83.94 32.43C84.59 32.17 85.36 32.03 86.22 32.03C86.7 32.03 87.16 32.08 87.62 32.15C88.4775 32.2912 89.3035 32.5823 90.06 33.01C90.41 33.21 90.73 33.44 91.01 33.7L90.11 35.4H90.1Z" fill="black"/>
</svg>
