<svg width="128" height="60" viewBox="0 0 128 60" fill="none" xmlns="http://www.w3.org/2000/svg">
<g clip-path="url(#clip0_51_113)">
<path fill-rule="evenodd" clip-rule="evenodd" d="M15.6548 52.0974C13.924 49.4296 13.7678 46.6708 15.824 42.9489C17.8541 39.2661 24.4779 34.5943 24.6341 34.4902C24.6341 34.4902 28.5121 32.3039 28.5121 30.1437V29.8574C28.5121 27.6972 24.6341 25.5109 24.6341 25.5109H24.6211C24.2957 25.2766 17.828 20.696 15.824 17.0521C13.7678 13.3303 13.924 10.5715 15.6548 7.91674C17.3986 5.24899 21.68 3.57021 28.2128 4.0127C34.7455 4.45511 41.929 6.53731 47.3165 11.6386C47.3165 11.6386 42.7358 3.03669 31.0237 0.642257C26.429 -0.349797 21.6605 -0.190544 17.1422 1.10588C12.6241 2.4023 8.4965 4.7957 5.12685 8.07289C3.74743 9.37424 3.04473 10.6365 2.8105 11.8467C2.17285 15.0872 5.00978 17.9111 7.44329 20.3315L7.63852 20.5138C10.9569 23.8061 12.4144 27.0725 12.3884 30.0005C12.4144 32.9416 10.9439 36.208 7.63852 39.4874L7.45632 39.6695C5.0228 42.0901 2.18588 44.914 2.8105 48.1674C3.17166 49.6355 3.98135 50.9546 5.12685 51.9412C8.49968 55.2133 12.628 57.6024 17.1455 58.8963C21.6629 60.1902 26.43 60.3491 31.0237 59.3589C42.7228 56.9514 47.3165 48.3625 47.3165 48.3625C41.929 53.4638 34.7455 55.559 28.2128 56.0014C21.68 56.4309 17.3856 54.7652 15.6548 52.0974Z" fill="#010101"/>
<path fill-rule="evenodd" clip-rule="evenodd" d="M38.6236 31.1197C39.374 31.1386 40.1231 31.051 40.8489 30.8595C41.1352 30.7554 41.3825 30.5342 41.5516 30.2739C41.7208 29.9746 41.8119 29.5841 41.8119 29.1026C41.8119 27.8273 41.5126 26.9033 40.8879 26.3307C40.2763 25.7452 39.3263 25.4589 38.025 25.4589C37.4134 25.4458 36.8277 25.5239 36.2421 25.6541C35.7346 25.7842 35.2661 26.0184 34.8497 26.3307C34.4332 26.6561 34.1209 27.1116 33.9127 27.7362C33.6915 28.3479 33.5874 29.0896 33.5874 29.9746C33.5874 31.7444 33.9908 32.9807 34.7716 33.7094C35.5524 34.4252 36.7756 34.7765 38.4674 34.7765C39.6777 34.7765 40.4975 34.5813 40.901 34.1779C41.3044 33.7875 41.4866 33.1108 41.4345 32.1478C40.7444 32.2667 40.0497 32.358 39.3524 32.421C38.8709 32.4731 38.3763 32.4862 37.8949 32.4862C37.3873 32.4862 36.9839 32.3951 36.6586 32.2259C36.3332 32.0567 36.164 31.7964 36.164 31.4581H36.1771C36.9657 31.1995 37.7944 31.085 38.6236 31.1197ZM36.086 29.7143C35.9298 28.6472 36.2551 27.9574 37.0359 27.6581C37.5955 27.4369 38.1811 27.4629 38.7667 27.7232C39.2092 27.9184 39.4174 28.1527 39.4174 28.4389C39.4346 28.584 39.4026 28.7307 39.3263 28.8554C39.2603 28.9809 39.1553 29.0814 39.027 29.1417C38.7407 29.2979 38.4153 29.3759 38.09 29.3759C37.7387 29.3759 37.3613 29.402 36.9578 29.454C36.5544 29.493 36.2682 29.5841 36.086 29.7143Z" fill="#010101"/>
<path fill-rule="evenodd" clip-rule="evenodd" d="M47.2775 25.4068C45.0912 25.4588 43.9851 25.8492 43.9851 26.5649V34.6333C44.3104 34.6463 44.6228 34.6463 44.9351 34.6203C45.1953 34.5943 45.4426 34.5292 45.6768 34.4251C45.9013 34.3305 46.0856 34.1602 46.1974 33.9436C46.3015 33.7223 46.3536 33.4231 46.3536 33.0847V28.556C46.3536 28.3348 46.3405 28.1135 46.3015 27.8923C46.4056 27.8533 46.796 27.7753 47.4467 27.6972C48.722 27.528 49.4377 27.8533 49.5939 28.6471V33.0977C49.5809 33.4361 49.6329 33.7223 49.737 33.9436C49.8542 34.1648 50.0363 34.334 50.2576 34.4382C50.4987 34.5362 50.7532 34.5976 51.0123 34.6203C51.3247 34.6463 51.637 34.6594 51.9493 34.6203V28.6081C51.9493 26.3958 50.3877 25.3157 47.2775 25.4068Z" fill="#010101"/>
<path fill-rule="evenodd" clip-rule="evenodd" d="M73.2785 27.6451C73.187 27.398 73.0599 27.1657 72.9011 26.9554C72.7343 26.7422 72.5469 26.5461 72.3415 26.3698C72.1109 26.1684 71.8523 26.0019 71.5738 25.8753C71.2484 25.7321 70.897 25.615 70.5456 25.563C69.5168 25.3698 68.4576 25.4144 67.4484 25.6931C66.5986 25.9305 65.872 26.4847 65.4183 27.2417C65.0636 27.8123 64.8496 28.4591 64.7937 29.1286L64.7417 29.7793L64.7677 30.0396C64.8331 30.7491 64.9461 31.4533 65.106 32.1478C65.1841 32.4471 65.3013 32.7463 65.4574 33.0066C65.8009 33.5325 66.289 33.9482 66.8629 34.2038C67.2403 34.3471 67.6176 34.4641 68.0081 34.5162C68.5286 34.5943 69.0492 34.6463 69.5566 34.6333C70.0642 34.6333 70.5717 34.5683 71.0532 34.4382C71.4436 34.334 71.808 34.1648 72.1464 33.9436C72.891 33.3678 73.3887 32.5304 73.5388 31.6012C73.6024 31.2139 73.6371 30.8224 73.6429 30.43V30.1047C73.6663 29.5116 73.6227 28.9179 73.5128 28.3348C73.4477 28.1396 73.3826 27.9054 73.2785 27.6451ZM71.3655 30.7553C71.3068 31.1394 71.1599 31.5047 70.9361 31.8224C70.7335 32.0157 70.4947 32.1669 70.2333 32.2673C69.972 32.368 69.6934 32.4157 69.4135 32.4081C68.945 32.4081 68.5546 32.369 68.2423 32.2649C67.9693 32.1843 67.7311 32.0149 67.5656 31.7834C67.4225 31.5882 67.3053 31.354 67.2533 31.1067C67.186 30.8069 67.1424 30.5023 67.1231 30.1958V30.0656C67.1102 29.8444 67.0971 29.6622 67.1102 29.519C67.1231 29.3109 67.1622 29.1026 67.2272 28.9074C67.2793 28.6732 67.3964 28.4649 67.5395 28.2827C67.6697 28.1266 67.8909 27.9835 68.1902 27.8533C68.9045 27.5923 69.6919 27.6155 70.3895 27.9184C70.6545 28.0487 70.8727 28.2578 71.0142 28.517C71.0923 28.6341 71.1443 28.7513 71.1963 28.8814C71.2715 29.1284 71.3279 29.3807 71.3655 29.6362V30.7553Z" fill="#010101"/>
<path fill-rule="evenodd" clip-rule="evenodd" d="M61.9696 22.2315C61.7874 22.1794 61.6052 22.1404 61.423 22.1404C61.2018 22.1404 60.9806 22.1274 60.7723 22.1014C60.5641 22.0754 60.3559 21.9973 60.1737 21.8671V25.8883C59.8354 25.615 59.2628 25.4849 58.4429 25.4849C58.0395 25.4849 57.6361 25.5369 57.2327 25.615C56.4022 25.8136 55.6553 26.2689 55.0985 26.9164C54.8382 27.2417 54.6039 27.6712 54.4478 28.1916C54.2656 28.7773 54.1875 29.3759 54.1875 29.9746C54.1875 31.6923 54.5389 32.9155 55.2416 33.6443C55.9444 34.3861 57.1026 34.7505 58.7162 34.7505C59.5088 34.7529 60.2989 34.6657 61.0717 34.4902C61.4641 34.3842 61.8284 34.1931 62.1388 33.9306L62.386 33.6443C62.436 33.5776 62.488 33.5125 62.5422 33.4491V23.689C62.5422 23.2466 62.4901 22.9082 62.386 22.674C62.2819 22.4397 62.1518 22.2966 61.9696 22.2315ZM60.1737 27.8013V32.33H60.1477C59.8907 32.3912 59.6299 32.4346 59.3669 32.4601C58.8859 32.521 58.3975 32.4765 57.9354 32.33C57.6752 32.2649 57.4409 32.1348 57.2327 31.9395C57.0505 31.7574 56.8813 31.5101 56.7902 31.2499C56.5553 30.5236 56.5463 29.743 56.7642 29.0115C56.8423 28.7252 56.9854 28.465 57.1676 28.2568C57.4996 27.8921 57.953 27.6608 58.4429 27.6061C59.0262 27.5484 59.6152 27.6104 60.1737 27.7882V27.8013Z" fill="#010101"/>
<path fill-rule="evenodd" clip-rule="evenodd" d="M78.9001 25.4458C78.5227 25.4328 78.1584 25.4849 77.794 25.602C77.5077 25.6931 77.2344 25.8362 76.9871 26.0184C76.5972 26.3454 76.2971 26.7664 76.1152 27.2417C75.999 27.5962 75.9249 27.963 75.894 28.3348V33.0327C75.894 33.4491 75.9851 33.7614 76.1543 33.9696C76.2918 34.1646 76.4951 34.3033 76.7268 34.3601L77.5077 34.5552C77.779 34.6174 78.0355 34.7323 78.2624 34.8936V29.5971C78.2624 29.1807 78.2885 28.8423 78.3535 28.6081C78.4033 28.3836 78.5327 28.1848 78.7179 28.0485C78.9261 27.9054 79.1474 27.8143 79.3686 27.7882C79.72 27.7492 80.0583 27.7362 80.3967 27.7362C80.658 27.7471 80.9164 27.6792 81.1384 27.5409C81.3291 27.4164 81.4678 27.2268 81.5288 27.0074C81.648 26.6114 81.6921 26.1966 81.659 25.7842L81.646 25.4458H78.9001Z" fill="#010101"/>
<path fill-rule="evenodd" clip-rule="evenodd" d="M87.3979 25.4068C86.6055 25.4044 85.8152 25.4917 85.0425 25.6671C84.6531 25.7807 84.2903 25.9709 83.9753 26.2267L83.7151 26.513L83.585 26.6952V36.4683C83.585 37.0148 83.663 37.4052 83.8322 37.6395C84.0014 37.8737 84.1836 37.9908 84.4048 37.9908L85.1856 38.0298C85.498 38.0559 85.7452 38.147 85.9404 38.2901V34.4382C86.3699 34.5944 86.9425 34.6724 87.6712 34.6724C88.1788 34.6724 88.6862 34.5944 89.1807 34.4382C89.6753 34.295 90.1308 34.0477 90.5342 33.7224C90.9636 33.3971 91.3019 32.9416 91.5492 32.33C91.8095 31.7183 91.9396 31.0026 91.9396 30.1828C91.9396 28.465 91.5752 27.2417 90.8725 26.513C90.1698 25.7712 89.0116 25.4068 87.3979 25.4068ZM89.3109 31.3019C89.1677 31.6663 88.9856 31.9265 88.7514 32.0957C88.3233 32.453 87.7711 32.6262 87.2157 32.5772C86.7857 32.5419 86.3593 32.4724 85.9404 32.369V27.8273C86.2035 27.7535 86.4742 27.7098 86.7472 27.6972C87.223 27.6335 87.7069 27.6735 88.1657 27.8143C88.426 27.8794 88.6602 28.0095 88.8554 28.1917C89.0506 28.3999 89.2068 28.6342 89.3109 28.9075C89.5756 29.6837 89.5756 30.5257 89.3109 31.3019Z" fill="#010101"/>
<path fill-rule="evenodd" clip-rule="evenodd" d="M100.594 25.7452C100.177 25.5239 99.6696 25.4199 99.0839 25.4199C98.2117 25.3744 97.3384 25.489 96.5074 25.7581L96.5203 23.5589C96.5203 23.0123 96.4292 22.6219 96.26 22.3877C96.0909 22.1535 95.8957 22.0233 95.6744 22.0233L94.8936 21.9843C94.5813 21.9582 94.3341 21.8671 94.1519 21.724V34.6464C94.9197 34.6854 95.5052 34.6074 95.9217 34.4121C96.3381 34.2039 96.5333 33.7614 96.5073 33.1108V28.0095C97.0148 27.8143 97.5354 27.7102 98.0559 27.7102C98.8757 27.7232 99.3703 27.9184 99.5264 28.2828C99.6826 28.6341 99.7607 29.6362 99.7607 31.2759V33.0978C99.7607 34.3471 100.542 34.8676 102.103 34.6464V28.1527C102.031 27.5514 101.827 26.9736 101.504 26.4609C101.322 26.1876 101.01 25.9534 100.594 25.7452Z" fill="#010101"/>
<path fill-rule="evenodd" clip-rule="evenodd" d="M105.968 25.576C105.76 25.576 105.5 25.563 105.187 25.5239C104.875 25.5109 104.628 25.4198 104.433 25.2636V34.6333C105.2 34.6724 105.799 34.5943 106.215 34.3861C106.619 34.1909 106.827 33.7484 106.801 33.0847V27.0986C106.801 26.552 106.71 26.1615 106.541 25.9273C106.385 25.6931 106.189 25.576 105.968 25.576Z" fill="#010101"/>
<path fill-rule="evenodd" clip-rule="evenodd" d="M112.423 25.3938C110.224 25.4458 109.13 25.8362 109.13 26.552V34.6074C109.446 34.6331 109.764 34.6331 110.08 34.6074C110.328 34.5813 110.575 34.5162 110.809 34.4121C111.035 34.3194 111.22 34.1485 111.33 33.9306C111.447 33.7094 111.499 33.4231 111.486 33.0847V28.53C111.499 28.3218 111.473 28.1006 111.447 27.8793C111.551 27.8403 111.941 27.7623 112.592 27.6842C113.867 27.515 114.57 27.8403 114.739 28.6341V33.0977C114.719 33.387 114.768 33.6771 114.882 33.9437C114.987 34.1686 115.173 34.3455 115.403 34.4382C115.639 34.5395 115.889 34.6052 116.145 34.6333C116.461 34.6591 116.778 34.6591 117.095 34.6333V28.5951C117.082 26.3698 115.52 25.3027 112.423 25.3938Z" fill="#010101"/>
<path fill-rule="evenodd" clip-rule="evenodd" d="M106.515 22.622C106.346 22.4373 106.123 22.3104 105.878 22.259C105.632 22.2076 105.377 22.2344 105.148 22.3356C104.918 22.4375 104.724 22.605 104.589 22.8172C104.477 23.0032 104.408 23.2121 104.387 23.4284C104.367 23.6447 104.396 23.8628 104.472 24.0664C104.524 24.2226 104.615 24.3787 104.732 24.4959C104.849 24.6197 104.99 24.7181 105.147 24.7853C105.304 24.8525 105.472 24.8868 105.643 24.8863C105.897 24.8789 106.143 24.7973 106.351 24.6517C106.559 24.5059 106.72 24.3025 106.814 24.0664C106.904 23.8218 106.924 23.5567 106.871 23.3012C106.818 23.0459 106.695 22.8105 106.515 22.622Z" fill="#010101"/>
<path fill-rule="evenodd" clip-rule="evenodd" d="M127.102 28.0615C126.985 27.4108 126.686 26.8252 126.23 26.3698C126.031 26.1722 125.797 26.0133 125.541 25.9013C125.287 25.7915 125.026 25.7001 124.76 25.628C124.499 25.5499 124.213 25.4979 123.927 25.4849C123.359 25.4627 122.791 25.4497 122.222 25.4458H121.78C121.519 25.4458 121.233 25.4849 120.986 25.576C120.798 25.6405 120.627 25.7432 120.481 25.8776C120.335 26.012 120.219 26.1751 120.14 26.3568C120.003 26.6548 119.932 26.9788 119.932 27.3067V27.6321L119.958 27.7622C120.503 27.5672 121.072 27.449 121.65 27.4108C122.382 27.3293 123.123 27.3556 123.849 27.4889C124.539 27.619 124.89 27.8793 124.89 28.2568C124.89 28.517 124.708 28.7122 124.382 28.8423C124.057 28.9725 123.432 29.0375 122.521 29.0375C122.066 29.0375 121.611 29.0636 121.181 29.1676C120.817 29.2457 120.478 29.4149 120.179 29.6362C119.867 29.8834 119.632 30.2088 119.515 30.5992C119.267 31.3969 119.24 32.2469 119.437 33.0587C119.515 33.306 119.632 33.5272 119.776 33.7354C120.164 34.1927 120.705 34.4933 121.298 34.5813L121.65 34.6203L121.793 34.6333H123.966C124.311 34.6308 124.655 34.596 124.994 34.5292C125.202 34.4902 125.423 34.4121 125.632 34.334C126.09 34.1145 126.474 33.7663 126.738 33.332C126.907 33.0457 127.024 32.7463 127.102 32.421C127.193 32.0306 127.232 31.6012 127.232 31.1848V29.3629C127.232 28.9334 127.206 28.491 127.102 28.0615ZM124.942 31.1848L124.864 31.8094C124.85 31.9558 124.806 32.0976 124.734 32.2258C124.656 32.3147 124.563 32.3895 124.46 32.4471C124.329 32.5232 124.182 32.5677 124.031 32.5772H123.38C122.691 32.5772 122.235 32.4991 122.001 32.3559C121.892 32.2944 121.802 32.2043 121.741 32.0957C121.674 31.9766 121.643 31.8414 121.65 31.7053C121.65 31.471 121.819 31.2888 122.131 31.1587C122.456 31.0286 122.873 30.9505 123.38 30.9505C123.884 30.9514 124.372 30.7765 124.76 30.456L124.942 30.2608V31.1848Z" fill="#010101"/>
</g>
<defs>
<clipPath id="clip0_51_113">
<rect width="128" height="60" fill="white"/>
</clipPath>
</defs>
</svg>
