<svg width="106" height="60" viewBox="0 0 106 60" fill="none" xmlns="http://www.w3.org/2000/svg">
<path d="M67.42 31.52C67.2495 30.779 67.1689 30.0202 67.18 29.26V12H71.52V34.59C71.0862 34.5329 70.658 34.4392 70.24 34.31C69.54 34.11 68.89 33.73 68.36 33.21C67.8976 32.7396 67.5726 32.1517 67.42 31.51V31.52Z" fill="black"/>
<path fill-rule="evenodd" clip-rule="evenodd" d="M62.4 20.2199C63.1164 20.913 63.6639 21.7615 64 22.6999C64.7104 24.7821 64.7489 27.0347 64.11 29.1399C63.8396 30.0402 63.3907 30.8769 62.79 31.5999C62.1963 32.294 61.4502 32.8416 60.61 33.1999C58.5723 33.9728 56.3174 33.9442 54.3 33.1199V37.1899H49.8V18.9299C50.2 18.8199 50.67 18.6999 51.19 18.5999C52.3154 18.3952 53.4501 18.2451 54.59 18.1499C55.19 18.1099 55.74 18.0799 56.29 18.0799C57.49 18.0599 58.67 18.2499 59.79 18.6399C60.7593 18.9754 61.6458 19.5141 62.39 20.2199H62.4ZM55.39 29.9899C55.84 30.1099 56.31 30.1699 56.78 30.1699C58.91 30.1699 59.96 28.7999 59.93 26.0699C59.9829 24.9406 59.6516 23.8267 58.99 22.9099C58.38 22.1099 57.45 21.7199 56.22 21.7199C55.5707 21.7179 54.9222 21.7647 54.28 21.8599V29.5599C54.62 29.7599 55 29.9099 55.39 29.9899ZM86.82 21.8599C86.6309 21.1023 86.2602 20.4022 85.74 19.8199C85.183 19.2326 84.4889 18.7928 83.72 18.5399C82.7001 18.2096 81.6317 18.054 80.56 18.0799C80.06 18.0799 79.57 18.1099 79.08 18.1599C78.2035 18.2563 77.3325 18.3965 76.47 18.5799C76.09 18.6699 75.78 18.7599 75.53 18.8299L76.08 22.4299C76.674 22.2076 77.2913 22.0533 77.92 21.9699C78.63 21.8599 79.35 21.7999 80.07 21.7999C81.17 21.7999 81.93 22.0299 82.37 22.4999C82.73 22.8699 82.95 23.3599 83 23.8799C81.4737 23.6632 79.9216 23.7071 78.41 24.0099C77.64 24.1699 76.91 24.4699 76.23 24.8999C75.59 25.2999 75.07 25.8599 74.7 26.5399C74.3002 27.3111 74.104 28.1716 74.13 29.0399C74.1 29.9399 74.27 30.8299 74.63 31.6399C74.94 32.3399 75.43 32.9399 76.04 33.3599C76.7006 33.8237 77.4494 34.1471 78.24 34.3099C79.04 34.4799 79.84 34.5699 80.64 34.5899H81.1C81.42 34.5899 81.72 34.5899 82.02 34.5499C82.88 34.5199 83.74 34.4399 84.6 34.2999C85.7 34.1199 86.54 33.9499 87.16 33.7999V24.5299C87.16 23.6299 87.05 22.7299 86.82 21.8599ZM83.02 30.8599L82.68 30.8799C82.28 30.8999 81.84 30.9099 81.38 30.9099C80.6936 30.9445 80.0103 30.7961 79.4 30.4799C78.92 30.1799 78.68 29.6699 78.68 28.9199C78.66 28.5799 78.75 28.2399 78.92 27.9499C79.09 27.6899 79.32 27.4699 79.6 27.3399C79.92 27.1799 80.26 27.0699 80.6 27.0399C81.3421 26.9311 82.0953 26.9211 82.84 27.0099L83.03 27.0399V30.8499L83.02 30.8599Z" fill="black"/>
<path d="M101.75 26.3901C102.71 23.8101 103.65 21.0401 104.53 18.0901H99.95L99.8 18.6901C99.6164 19.3918 99.4264 20.0919 99.23 20.7901C98.5212 23.2087 97.7138 25.5974 96.81 27.9501C96.1937 26.3962 95.63 24.822 95.12 23.2301C94.5568 21.5311 94.0399 19.8172 93.57 18.0901H88.9C90.3677 23.1589 92.327 28.0722 94.75 32.7601L94.7 32.8701C94.0534 34.3491 93.3257 35.7913 92.52 37.1901H96.85C97.31 36.4401 97.85 35.4301 98.48 34.0901L98.57 33.9101C99.7324 31.448 100.793 28.9392 101.75 26.3901Z" fill="black"/>
<path fill-rule="evenodd" clip-rule="evenodd" d="M0.289995 26.4501C0.260881 25.2064 0.4784 23.9693 0.929995 22.8101C1.31364 21.839 1.88833 20.9549 2.61999 20.2101C4.01912 18.8655 5.87958 18.107 7.81999 18.0901C10.05 18.0901 11.82 18.7601 13.11 20.1201C14.41 21.4701 15.05 23.4801 15.05 26.1201C15.05 26.4001 15.05 26.6701 15.02 26.9701L14.98 27.5001L14.96 27.7901H4.85999C4.89823 28.2268 5.03398 28.6494 5.25724 29.0267C5.4805 29.404 5.78558 29.7264 6.14999 29.9701C6.89999 30.5101 7.91999 30.7701 9.18999 30.7701C9.99999 30.7701 10.81 30.7001 11.6 30.5601C12.2571 30.4426 12.9004 30.2583 13.52 30.0101L14.12 33.6101C13.82 33.7501 13.49 33.8701 13.16 33.9601C12.73 34.0901 12.28 34.1901 11.83 34.2801C10.76 34.4685 9.67638 34.5688 8.58999 34.5801C7.33063 34.6015 6.07859 34.3844 4.89999 33.9401C3.92039 33.5685 3.03325 32.9884 2.29999 32.2401C1.61592 31.5012 1.1037 30.6201 0.799995 29.6601C0.459824 28.6244 0.290938 27.5402 0.299995 26.4501H0.289995ZM10.75 24.7501C10.7258 24.3802 10.6587 24.0144 10.55 23.6601C10.4425 23.3105 10.2658 22.986 10.0305 22.706C9.79512 22.426 9.5059 22.1961 9.17999 22.0301C8.77999 21.8301 8.33 21.7401 7.87999 21.7501C7.43999 21.7501 6.99999 21.8301 6.59999 22.0101C6.25481 22.1653 5.94766 22.3939 5.69999 22.6801C5.45999 22.9701 5.26999 23.3001 5.14999 23.6501C5.01999 24.0101 4.92999 24.3801 4.86999 24.7601H10.75V24.7501Z" fill="black"/>
<path d="M18.86 26.7601C19.7666 29.1283 20.7878 31.451 21.92 33.7201H25.56C26.6925 31.4512 27.7137 29.1284 28.62 26.7601C29.65 24.1001 30.63 21.2101 31.56 18.0801H27.02C26.2824 20.7419 25.4822 23.386 24.62 26.0101C24.33 26.8901 24.05 27.6801 23.8 28.3901C23.52 27.6801 23.24 26.8901 22.96 26.0101C22.3758 24.21 21.8124 22.4032 21.27 20.5901C21 19.6901 20.77 18.8501 20.57 18.0901H15.92C16.85 21.2101 17.82 24.1001 18.86 26.7601Z" fill="black"/>
<path fill-rule="evenodd" clip-rule="evenodd" d="M47.2 26.3C47.2 27.46 47.03 28.6 46.67 29.69C46.3627 30.654 45.8626 31.5454 45.2 32.31C44.5573 33.0312 43.7657 33.6043 42.88 33.99C41.91 34.4 40.88 34.6 39.83 34.59C38.7925 34.6034 37.7637 34.399 36.81 33.99C35.9243 33.6043 35.1328 33.0312 34.49 32.31C33.8162 31.545 33.2997 30.6547 32.97 29.69C32.5986 28.6024 32.416 27.4592 32.43 26.31C32.4169 25.1625 32.6065 24.0216 32.99 22.94C33.4505 21.4988 34.3663 20.2459 35.5997 19.3695C36.8331 18.4932 38.3175 18.0407 39.83 18.08C40.85 18.07 41.86 18.28 42.81 18.68C43.69 19.06 44.48 19.63 45.14 20.35C45.8095 21.1051 46.3227 21.9854 46.65 22.94C47.03 24.02 47.21 25.16 47.2 26.31V26.3ZM42.85 26.3C42.9106 25.1703 42.6395 24.0476 42.07 23.07C41.8256 22.6937 41.488 22.3871 41.09 22.18C40.7018 21.978 40.2673 21.8814 39.83 21.9C39.3832 21.8831 38.9397 21.9831 38.5434 22.19C38.147 22.3969 37.8115 22.7037 37.57 23.08C36.9949 24.0556 36.7201 25.1791 36.78 26.31C36.78 27.68 37.04 28.77 37.57 29.57C37.81 29.95 38.15 30.27 38.55 30.47C38.95 30.69 39.38 30.79 39.83 30.77C40.27 30.79 40.71 30.69 41.1 30.48C41.5 30.27 41.83 29.95 42.07 29.57C42.59 28.77 42.84 27.67 42.84 26.31H42.85V26.3Z" fill="black"/>
<path d="M15.06 45.21H13.26V46.21H15.44V46.75H12.44V43.3H15.29V43.8301H13.25V44.68H15.06V45.2001V45.21ZM20.86 45.01L21.36 45.59V43.3101H22.15V46.75H21.47L21.39 46.6501L20.99 46.14L20.75 45.87C20.4585 45.5226 20.1584 45.1825 19.85 44.85L19.28 44.2901V46.75H18.48V43.3H19.14C19.745 43.8337 20.3193 44.4013 20.86 45V45.01ZM26.43 43.85H25.06V43.3101H28.59V43.85H27.22V46.73H26.42V43.85H26.43ZM34.13 45.21H32.3V46.21H34.5V46.75H31.5V43.3H34.34V43.8301H32.3V44.68H34.12V45.2001L34.13 45.21Z" fill="black"/>
<path fill-rule="evenodd" clip-rule="evenodd" d="M40.13 45.5999L40.44 45.9599C40.55 46.0799 40.64 46.2099 40.74 46.3399L40.76 46.3599C40.86 46.4899 40.95 46.6199 41.02 46.7499H40.12L40 46.5799L39.86 46.3899L39.62 46.0899L39.57 46.0399L39.55 46.0099L39.29 45.7099C39.1995 45.6237 39.1095 45.537 39.02 45.4499H38.36V46.7499H37.56V43.3599L38.19 43.2899L38.78 43.2799C39.28 43.2499 39.8 43.3499 40.24 43.5499C40.4037 43.6311 40.5421 43.7556 40.64 43.9099C40.7242 44.0515 40.7626 44.2156 40.75 44.3799C40.75 44.8499 40.45 45.1599 39.86 45.3299L39.95 45.4199L40.13 45.6099V45.5999ZM39.6 44.8299C39.7 44.7899 39.77 44.7299 39.82 44.6599C39.8721 44.5762 39.8966 44.4783 39.89 44.3799C39.8897 44.2841 39.862 44.1904 39.81 44.1099C39.7535 44.0343 39.6774 43.9755 39.59 43.9399C39.49 43.8899 39.37 43.8599 39.25 43.8399C39.104 43.8222 38.957 43.8155 38.81 43.8199H38.56L38.34 43.8299V44.9399H38.69C38.87 44.9399 39.05 44.9399 39.22 44.9199C39.35 44.9099 39.48 44.8799 39.6 44.8199V44.8299Z" fill="black"/>
<path d="M44.85 43.8501H43.49V43.3101H47.02V43.8501H45.66V46.7301H44.85V43.8501Z" fill="black"/>
<path fill-rule="evenodd" clip-rule="evenodd" d="M52.04 44.0501L52.46 44.8501L52.72 45.3701L52.89 45.7401C53.05 46.0401 53.2 46.3801 53.37 46.7501H52.5C52.3825 46.4807 52.2592 46.214 52.13 45.9501H50.27C50.1543 46.2202 50.0309 46.487 49.9 46.7501H49.07C49.4878 45.8377 49.9313 44.9374 50.4 44.0501L50.83 43.3101H51.6L52.04 44.0501ZM50.87 44.6201C50.7314 44.8874 50.598 45.1575 50.47 45.4301H51.93C51.8139 45.1733 51.6906 44.9198 51.56 44.6701L51.54 44.6101L51.2 43.9801C51.1 44.1501 51 44.3701 50.87 44.6201Z" fill="black"/>
<path d="M57.03 46.75H56.23V43.3H57.03V46.7401V46.75ZM62.77 45.01L63.27 45.59V43.3101H64.07V46.75H63.39C63.0592 46.3112 62.7089 45.8874 62.34 45.48C61.9827 45.0559 61.5986 44.655 61.19 44.28V46.75H60.39V43.3H61.06C61.4459 43.6187 61.807 43.9664 62.14 44.34L62.19 44.39C62.39 44.59 62.59 44.79 62.77 45V45.01ZM71.9 44.1101L72 44.98C72.0267 45.2804 72.0567 45.5804 72.09 45.8801L72.14 46.66V46.75H71.35L71.29 45.5201L71.19 44.2901L71.01 44.5601L70.81 44.91L70.67 45.1501L70.59 45.2901L70.37 45.67L70.02 46.2901H69.42L69.27 46.0201L69.07 45.67L68.88 45.32L68.86 45.28L68.64 44.9001L68.44 44.5601L68.27 44.2901C68.2053 45.1095 68.1486 45.9295 68.1 46.75H67.3L67.36 45.8601V45.84L67.44 44.96C67.494 44.4086 67.5607 43.8584 67.64 43.3101H68.39C68.6381 43.638 68.8589 43.9859 69.05 44.35L69.41 44.9501L69.73 45.53L70.05 44.9501C70.3607 44.3878 70.6978 43.8406 71.06 43.3101H71.79L71.9 44.1101ZM77.98 45.2001H76.17V46.2001H78.37V46.7401H75.37V43.3H78.21V43.8301H76.17V44.68H77.98V45.2001ZM83.78 45L84.28 45.5801V43.3101H85.08V46.75H84.4L83.91 46.14L83.77 45.9701L83.36 45.48C82.9968 45.0613 82.6129 44.6608 82.21 44.28V46.7401H81.41V43.3H82.07C82.4594 43.6184 82.8238 43.966 83.16 44.34L83.2 44.39C83.4 44.59 83.6 44.8 83.78 45.01V45ZM87.98 43.84V43.3H91.5V43.84H90.14V46.73H89.34V43.84H87.98Z" fill="black"/>
</svg>
