<svg xmlns="http://www.w3.org/2000/svg" xmlns:xlink="http://www.w3.org/1999/xlink" preserveAspectRatio="xMidYMid meet" width="32" height="32" viewBox="0 0 32 32" style="width:100%;height:100%"><defs><animateMotion repeatCount="indefinite" dur="1s" begin="0s" xlink:href="#_R_G_L_0_G_L_0_G_L_0_G_L_1_G" fill="freeze" keyTimes="0;0.0333333;0.5333333;0.9666667;1" path="M146.99 72.01 C146.99,72.01 146.99,72.01 146.99,72.01 C146.99,72.01 147.99,71.01 147.99,71.01 C147.99,71.01 146.99,72.01 146.99,72.01 C146.99,72.01 146.99,72.01 146.99,72.01 " keyPoints="0;0;0.5;1;1" keySplines="0.333 0.333 0.667 0.667;0.333 0 0.667 1;0.333 0 0.667 1;0 0 0 0" calcMode="spline"/><animateTransform repeatCount="indefinite" dur="1s" begin="0s" xlink:href="#_R_G_L_0_G_L_0_G_L_0_G_L_1_G" fill="freeze" attributeName="transform" from="0" to="0" type="rotate" additive="sum" keyTimes="0;0.0333333;0.5333333;0.9666667;1" values="0;0;14;0;0" keySplines="0.167 0 0.833 1;0.333 0 0.667 1;0.333 0 0.667 1;0 0 0 0" calcMode="spline"/><animateTransform repeatCount="indefinite" dur="1s" begin="0s" xlink:href="#_R_G_L_0_G_L_0_G_L_0_G_L_1_G" fill="freeze" attributeName="transform" from="1 1" to="1 1" type="scale" additive="sum" keyTimes="0;0.5333333;0.9666667;1" values="1 1;1.06 1.06;1 1;1 1" keySplines="0.167 0.167 0.833 0.833;0.167 0.167 0.833 0.833;0 0 0 0" calcMode="spline"/><animate repeatCount="indefinite" dur="1s" begin="0s" xlink:href="#_R_G_L_0_G_L_0_G_L_0_G_L_0_G_D_0_P_0" fill="freeze" attributeName="d" attributeType="XML" from=" M-26.31 -44.15 C-18.22,-49.45 -12.9,-50.37 -12.9,-50.37 C-12.9,-50.37 -12.92,-50.35 -12.92,-50.35 C-12.92,-50.35 -12.23,-39.39 -12.23,-39.39 C-12.23,-39.39 -27.08,-30.67 -27.08,-30.67 C-27.08,-30.67 -36.68,-36 -36.68,-36 C-36.68,-36 -31.81,-40.53 -26.31,-44.15z  M-13.17 52.13 C-13.17,52.13 -19.49,50.03 -25.31,46.93 C-25.31,46.93 -25.29,46.93 -25.29,46.93 C-33.79,42.39 -37.15,38.15 -37.15,38.15 C-37.15,38.15 -27.83,32.33 -27.83,32.33 C-27.83,32.33 -13.05,41.18 -13.05,41.18 C-13.05,41.18 -13.17,52.13 -13.17,52.13z  M-53.77 -1.25 C-53.77,-10.87 -51.63,-15.82 -51.63,-15.82 C-51.63,-15.82 -42.06,-10.39 -42.06,-10.39 C-42.06,-10.39 -42.88,6.78 -42.88,6.78 C-42.88,6.78 -52.6,11.86 -52.6,11.86 C-52.6,11.86 -53.77,5.32 -53.77,-1.25z  M28.05 44.55 C19.89,49.68 14.54,50.52 14.54,50.52 C14.54,50.52 14.54,50.54 14.54,50.54 C14.54,50.54 14.04,39.57 14.04,39.57 C14.04,39.57 29.05,31.09 29.05,31.09 C29.05,31.09 38.55,36.57 38.55,36.57 C38.55,36.57 33.62,41.03 28.05,44.55z M-34.62 -0.85 C-34.62,-18.25 -21.79,-32.67 -5.05,-35.23 C-3.97,-35.4 -2.88,-35.51 -1.78,-35.58 C-1.78,-35.58 -1.75,-35.6 -1.75,-35.6 C-3.12,-40.24 -3.92,-45.14 -4.04,-50.27 C-4.12,-53.07 -3.94,-55.82 -3.57,-58.52 C-5.39,-58.41 -7.19,-58.21 -8.96,-57.94 C-37.04,-53.65 -58.5,-30.51 -58.5,-0.09 C-58.5,32.26 -32.18,58.47 -0.16,58.52 C20.71,58.52 38.89,48.02 49.43,32.1 C50.52,30.45 51.53,28.73 52.45,26.97 C53.52,24.94 54.47,22.83 55.29,20.66 C56.05,18.68 56.69,16.64 57.23,14.56 C57.77,12.48 58.19,10.35 58.5,8.19 C56.81,8.19 55.09,8.09 53.38,7.87 C53,11.09 52.4,12.75 52.4,12.75 C52.4,12.75 42.48,7.97 42.48,7.97 C42.48,7.97 42.43,5.59 42.43,5.59 C39.89,4.85 37.4,4 34.99,3.01 C34.58,6.71 33.61,10.22 32.15,13.48 C31.84,14.15 31.52,14.82 31.18,15.47 C25.38,26.46 13.84,33.94 -0.16,33.94 C-18.99,33.94 -34.62,17.66 -34.62,-0.85z " to=" M-26.31 -44.15 C-18.22,-49.45 -12.9,-50.37 -12.9,-50.37 C-12.9,-50.37 -12.92,-50.35 -12.92,-50.35 C-12.92,-50.35 -12.23,-39.39 -12.23,-39.39 C-12.23,-39.39 -27.08,-30.67 -27.08,-30.67 C-27.08,-30.67 -36.68,-36 -36.68,-36 C-36.68,-36 -31.81,-40.53 -26.31,-44.15z  M-13.17 52.13 C-13.17,52.13 -19.49,50.03 -25.31,46.93 C-25.31,46.93 -25.29,46.93 -25.29,46.93 C-33.79,42.39 -37.15,38.15 -37.15,38.15 C-37.15,38.15 -27.83,32.33 -27.83,32.33 C-27.83,32.33 -13.05,41.18 -13.05,41.18 C-13.05,41.18 -13.17,52.13 -13.17,52.13z  M-53.77 -1.25 C-53.77,-10.87 -51.63,-15.82 -51.63,-15.82 C-51.63,-15.82 -42.06,-10.39 -42.06,-10.39 C-42.06,-10.39 -42.88,6.78 -42.88,6.78 C-42.88,6.78 -52.6,11.86 -52.6,11.86 C-52.6,11.86 -53.77,5.32 -53.77,-1.25z  M28.05 44.55 C19.89,49.68 14.54,50.52 14.54,50.52 C14.54,50.52 14.54,50.54 14.54,50.54 C14.54,50.54 14.04,39.57 14.04,39.57 C14.04,39.57 29.05,31.09 29.05,31.09 C29.05,31.09 38.55,36.57 38.55,36.57 C38.55,36.57 33.62,41.03 28.05,44.55z M-34.62 -0.85 C-34.62,-18.25 -21.79,-32.67 -5.05,-35.23 C-3.97,-35.4 -2.88,-35.51 -1.78,-35.58 C-1.78,-35.58 -1.75,-35.6 -1.75,-35.6 C-3.12,-40.24 -3.92,-45.14 -4.04,-50.27 C-4.12,-53.07 -3.94,-55.82 -3.57,-58.52 C-5.39,-58.41 -7.19,-58.21 -8.96,-57.94 C-37.04,-53.65 -58.5,-30.51 -58.5,-0.09 C-58.5,32.26 -32.18,58.47 -0.16,58.52 C20.71,58.52 38.89,48.02 49.43,32.1 C50.52,30.45 51.53,28.73 52.45,26.97 C53.52,24.94 54.47,22.83 55.29,20.66 C56.05,18.68 56.69,16.64 57.23,14.56 C57.77,12.48 58.19,10.35 58.5,8.19 C56.81,8.19 55.09,8.09 53.38,7.87 C53,11.09 52.4,12.75 52.4,12.75 C52.4,12.75 42.48,7.97 42.48,7.97 C42.48,7.97 42.43,5.59 42.43,5.59 C39.89,4.85 37.4,4 34.99,3.01 C34.58,6.71 33.61,10.22 32.15,13.48 C31.84,14.15 31.52,14.82 31.18,15.47 C25.38,26.46 13.84,33.94 -0.16,33.94 C-18.99,33.94 -34.62,17.66 -34.62,-0.85z " keyTimes="0;0.5333333;0.9666667;1" values=" M-26.31 -44.15 C-18.22,-49.45 -12.9,-50.37 -12.9,-50.37 C-12.9,-50.37 -12.92,-50.35 -12.92,-50.35 C-12.92,-50.35 -12.23,-39.39 -12.23,-39.39 C-12.23,-39.39 -27.08,-30.67 -27.08,-30.67 C-27.08,-30.67 -36.68,-36 -36.68,-36 C-36.68,-36 -31.81,-40.53 -26.31,-44.15z  M-13.17 52.13 C-13.17,52.13 -19.49,50.03 -25.31,46.93 C-25.31,46.93 -25.29,46.93 -25.29,46.93 C-33.79,42.39 -37.15,38.15 -37.15,38.15 C-37.15,38.15 -27.83,32.33 -27.83,32.33 C-27.83,32.33 -13.05,41.18 -13.05,41.18 C-13.05,41.18 -13.17,52.13 -13.17,52.13z  M-53.77 -1.25 C-53.77,-10.87 -51.63,-15.82 -51.63,-15.82 C-51.63,-15.82 -42.06,-10.39 -42.06,-10.39 C-42.06,-10.39 -42.88,6.78 -42.88,6.78 C-42.88,6.78 -52.6,11.86 -52.6,11.86 C-52.6,11.86 -53.77,5.32 -53.77,-1.25z  M28.05 44.55 C19.89,49.68 14.54,50.52 14.54,50.52 C14.54,50.52 14.54,50.54 14.54,50.54 C14.54,50.54 14.04,39.57 14.04,39.57 C14.04,39.57 29.05,31.09 29.05,31.09 C29.05,31.09 38.55,36.57 38.55,36.57 C38.55,36.57 33.62,41.03 28.05,44.55z M-34.62 -0.85 C-34.62,-18.25 -21.79,-32.67 -5.05,-35.23 C-3.97,-35.4 -2.88,-35.51 -1.78,-35.58 C-1.78,-35.58 -1.75,-35.6 -1.75,-35.6 C-3.12,-40.24 -3.92,-45.14 -4.04,-50.27 C-4.12,-53.07 -3.94,-55.82 -3.57,-58.52 C-5.39,-58.41 -7.19,-58.21 -8.96,-57.94 C-37.04,-53.65 -58.5,-30.51 -58.5,-0.09 C-58.5,32.26 -32.18,58.47 -0.16,58.52 C20.71,58.52 38.89,48.02 49.43,32.1 C50.52,30.45 51.53,28.73 52.45,26.97 C53.52,24.94 54.47,22.83 55.29,20.66 C56.05,18.68 56.69,16.64 57.23,14.56 C57.77,12.48 58.19,10.35 58.5,8.19 C56.81,8.19 55.09,8.09 53.38,7.87 C53,11.09 52.4,12.75 52.4,12.75 C52.4,12.75 42.48,7.97 42.48,7.97 C42.48,7.97 42.43,5.59 42.43,5.59 C39.89,4.85 37.4,4 34.99,3.01 C34.58,6.71 33.61,10.22 32.15,13.48 C31.84,14.15 31.52,14.82 31.18,15.47 C25.38,26.46 13.84,33.94 -0.16,33.94 C-18.99,33.94 -34.62,17.66 -34.62,-0.85z  M-0.16 29.58 C14.85,29.58 27.08,19.2 29.82,5.45 C30.11,3.98 30.3,2.47 30.36,0.93 C16.61,-5.79 5.66,-16.69 0.04,-30.4 C-1.06,-30.39 -2.14,-30.32 -3.21,-30.2 C-18.17,-28.49 -29.82,-15.86 -29.82,-0.41 C-29.82,16.15 -16.78,29.58 -0.16,29.58z ; M-26.31 -44.15 C-18.22,-49.45 -12.9,-50.37 -12.9,-50.37 C-12.9,-50.37 -12.92,-50.35 -12.92,-50.35 C-12.92,-50.35 -12.23,-39.39 -12.23,-39.39 C-12.23,-39.39 -27.08,-30.67 -27.08,-30.67 C-27.08,-30.67 -36.68,-36 -36.68,-36 C-36.68,-36 -31.81,-40.53 -26.31,-44.15z  M-13.17 52.13 C-13.17,52.13 -19.49,50.03 -25.31,46.93 C-25.31,46.93 -25.29,46.93 -25.29,46.93 C-33.79,42.39 -37.15,38.15 -37.15,38.15 C-37.15,38.15 -27.83,32.33 -27.83,32.33 C-27.83,32.33 -13.05,41.18 -13.05,41.18 C-13.05,41.18 -13.17,52.13 -13.17,52.13z  M-53.77 -1.25 C-53.77,-10.87 -51.63,-15.82 -51.63,-15.82 C-51.63,-15.82 -42.06,-10.39 -42.06,-10.39 C-42.06,-10.39 -42.88,6.78 -42.88,6.78 C-42.88,6.78 -52.6,11.86 -52.6,11.86 C-52.6,11.86 -53.77,5.32 -53.77,-1.25z  M28.05 44.55 C19.89,49.68 14.54,50.52 14.54,50.52 C14.54,50.52 14.54,50.54 14.54,50.54 C14.54,50.54 14.04,39.57 14.04,39.57 C14.04,39.57 29.05,31.09 29.05,31.09 C29.05,31.09 38.55,36.57 38.55,36.57 C38.55,36.57 33.62,41.03 28.05,44.55z M-34.62 -0.85 C-34.62,-18.29 -21.73,-32.74 -4.94,-35.25 C-3.9,-35.41 -2.84,-35.51 -1.78,-35.58 C-1.78,-35.58 6.22,-36.06 6.22,-36.06 C4.85,-40.69 6.69,-44.3 6.57,-49.43 C6.5,-52.23 7.55,-56.44 7.92,-59.14 C6.16,-59.03 -7.08,-58.22 -8.8,-57.97 C-36.95,-53.74 -58.5,-30.57 -58.5,-0.09 C-58.5,32.26 -32.18,58.47 -0.16,58.52 C20.67,58.52 38.82,48.06 49.36,32.19 C50.48,30.51 51.11,29.89 52.05,28.09 C52.62,27.01 52.36,27.1 52.49,26.8 C52.25,27.41 52.61,26.74 52.13,26.97 C51.6,26.42 52.26,27.04 51.42,26.43 C49.22,25.22 49.79,25.4 48.15,24.47 C46.33,23.25 45.92,23.24 45.92,23.24 C45.92,23.24 36.6,17.07 36.6,17.07 C36.6,17.07 35.43,16.08 35.43,16.08 C34.56,15.67 34.09,15.25 33.16,14.73 C32.81,14.39 31.83,13.96 31.54,14.82 C31.42,15.02 31.29,15.26 31.15,15.53 C25.34,26.48 13.81,33.94 -0.16,33.94 C-18.99,33.94 -34.62,17.66 -34.62,-0.85z  M-0.16 29.58 C14.88,29.58 24.1,23.24 28.17,10.93 C28.63,9.53 29.79,11.95 27.69,10.28 C11.7,-5.98 11.09,-16.76 5.46,-30.46 C4.41,-30.45 -2.06,-30.33 -3.08,-30.21 C-18.11,-28.56 -29.82,-15.91 -29.82,-0.41 C-29.82,16.15 -16.78,29.58 -0.16,29.58z ; M-26.31 -44.15 C-18.22,-49.45 -12.9,-50.37 -12.9,-50.37 C-12.9,-50.37 -12.92,-50.35 -12.92,-50.35 C-12.92,-50.35 -12.23,-39.39 -12.23,-39.39 C-12.23,-39.39 -27.08,-30.67 -27.08,-30.67 C-27.08,-30.67 -36.68,-36 -36.68,-36 C-36.68,-36 -31.81,-40.53 -26.31,-44.15z  M-13.17 52.13 C-13.17,52.13 -19.49,50.03 -25.31,46.93 C-25.31,46.93 -25.29,46.93 -25.29,46.93 C-33.79,42.39 -37.15,38.15 -37.15,38.15 C-37.15,38.15 -27.83,32.33 -27.83,32.33 C-27.83,32.33 -13.05,41.18 -13.05,41.18 C-13.05,41.18 -13.17,52.13 -13.17,52.13z  M-53.77 -1.25 C-53.77,-10.87 -51.63,-15.82 -51.63,-15.82 C-51.63,-15.82 -42.06,-10.39 -42.06,-10.39 C-42.06,-10.39 -42.88,6.78 -42.88,6.78 C-42.88,6.78 -52.6,11.86 -52.6,11.86 C-52.6,11.86 -53.77,5.32 -53.77,-1.25z  M28.05 44.55 C19.89,49.68 14.54,50.52 14.54,50.52 C14.54,50.52 14.54,50.54 14.54,50.54 C14.54,50.54 14.04,39.57 14.04,39.57 C14.04,39.57 29.05,31.09 29.05,31.09 C29.05,31.09 38.55,36.57 38.55,36.57 C38.55,36.57 33.62,41.03 28.05,44.55z M-34.62 -0.85 C-34.62,-18.25 -21.79,-32.67 -5.05,-35.23 C-3.97,-35.4 -2.88,-35.51 -1.78,-35.58 C-1.78,-35.58 -1.75,-35.6 -1.75,-35.6 C-3.12,-40.24 -3.92,-45.14 -4.04,-50.27 C-4.12,-53.07 -3.94,-55.82 -3.57,-58.52 C-5.39,-58.41 -7.19,-58.21 -8.96,-57.94 C-37.04,-53.65 -58.5,-30.51 -58.5,-0.09 C-58.5,32.26 -32.18,58.47 -0.16,58.52 C20.71,58.52 38.89,48.02 49.43,32.1 C50.52,30.45 51.53,28.73 52.45,26.97 C53.52,24.94 54.47,22.83 55.29,20.66 C56.05,18.68 56.69,16.64 57.23,14.56 C57.77,12.48 58.19,10.35 58.5,8.19 C56.81,8.19 55.09,8.09 53.38,7.87 C53,11.09 52.4,12.75 52.4,12.75 C52.4,12.75 42.48,7.97 42.48,7.97 C42.48,7.97 42.43,5.59 42.43,5.59 C39.89,4.85 37.4,4 34.99,3.01 C34.58,6.71 33.61,10.22 32.15,13.48 C31.84,14.15 31.52,14.82 31.18,15.47 C25.38,26.46 13.84,33.94 -0.16,33.94 C-18.99,33.94 -34.62,17.66 -34.62,-0.85z  M-0.16 29.58 C14.85,29.58 27.08,19.2 29.82,5.45 C30.11,3.98 30.3,2.47 30.36,0.93 C16.61,-5.79 5.66,-16.69 0.04,-30.4 C-1.06,-30.39 -2.14,-30.32 -3.21,-30.2 C-18.17,-28.49 -29.82,-15.86 -29.82,-0.41 C-29.82,16.15 -16.78,29.58 -0.16,29.58z ; M-26.31 -44.15 C-18.22,-49.45 -12.9,-50.37 -12.9,-50.37 C-12.9,-50.37 -12.92,-50.35 -12.92,-50.35 C-12.92,-50.35 -12.23,-39.39 -12.23,-39.39 C-12.23,-39.39 -27.08,-30.67 -27.08,-30.67 C-27.08,-30.67 -36.68,-36 -36.68,-36 C-36.68,-36 -31.81,-40.53 -26.31,-44.15z  M-13.17 52.13 C-13.17,52.13 -19.49,50.03 -25.31,46.93 C-25.31,46.93 -25.29,46.93 -25.29,46.93 C-33.79,42.39 -37.15,38.15 -37.15,38.15 C-37.15,38.15 -27.83,32.33 -27.83,32.33 C-27.83,32.33 -13.05,41.18 -13.05,41.18 C-13.05,41.18 -13.17,52.13 -13.17,52.13z  M-53.77 -1.25 C-53.77,-10.87 -51.63,-15.82 -51.63,-15.82 C-51.63,-15.82 -42.06,-10.39 -42.06,-10.39 C-42.06,-10.39 -42.88,6.78 -42.88,6.78 C-42.88,6.78 -52.6,11.86 -52.6,11.86 C-52.6,11.86 -53.77,5.32 -53.77,-1.25z  M28.05 44.55 C19.89,49.68 14.54,50.52 14.54,50.52 C14.54,50.52 14.54,50.54 14.54,50.54 C14.54,50.54 14.04,39.57 14.04,39.57 C14.04,39.57 29.05,31.09 29.05,31.09 C29.05,31.09 38.55,36.57 38.55,36.57 C38.55,36.57 33.62,41.03 28.05,44.55z M-34.62 -0.85 C-34.62,-18.25 -21.79,-32.67 -5.05,-35.23 C-3.97,-35.4 -2.88,-35.51 -1.78,-35.58 C-1.78,-35.58 -1.75,-35.6 -1.75,-35.6 C-3.12,-40.24 -3.92,-45.14 -4.04,-50.27 C-4.12,-53.07 -3.94,-55.82 -3.57,-58.52 C-5.39,-58.41 -7.19,-58.21 -8.96,-57.94 C-37.04,-53.65 -58.5,-30.51 -58.5,-0.09 C-58.5,32.26 -32.18,58.47 -0.16,58.52 C20.71,58.52 38.89,48.02 49.43,32.1 C50.52,30.45 51.53,28.73 52.45,26.97 C53.52,24.94 54.47,22.83 55.29,20.66 C56.05,18.68 56.69,16.64 57.23,14.56 C57.77,12.48 58.19,10.35 58.5,8.19 C56.81,8.19 55.09,8.09 53.38,7.87 C53,11.09 52.4,12.75 52.4,12.75 C52.4,12.75 42.48,7.97 42.48,7.97 C42.48,7.97 42.43,5.59 42.43,5.59 C39.89,4.85 37.4,4 34.99,3.01 C34.58,6.71 33.61,10.22 32.15,13.48 C31.84,14.15 31.52,14.82 31.18,15.47 C25.38,26.46 13.84,33.94 -0.16,33.94 C-18.99,33.94 -34.62,17.66 -34.62,-0.85z  M-0.16 29.58 C14.85,29.58 27.08,19.2 29.82,5.45 C30.11,3.98 30.3,2.47 30.36,0.93 C16.61,-5.79 5.66,-16.69 0.04,-30.4 C-1.06,-30.39 -2.14,-30.32 -3.21,-30.2 C-18.17,-28.49 -29.82,-15.86 -29.82,-0.41 C-29.82,16.15 -16.78,29.58 -0.16,29.58z " keySplines="0.333 0 0.667 1;0.333 0 0.667 1;0 0 0 0" calcMode="spline"/><animate repeatCount="indefinite" dur="1s" begin="0s" xlink:href="#_R_G_L_0_G_L_0_G_L_0_G_L_0_G" fill="freeze" attributeName="opacity" from="1" to="0.98" keyTimes="0;0.0333333;0.9333333;1" values="1;1;0.98;0.98" keySplines="0.333 0 0.667 1;0.333 0 0.667 1;0 0 0 0" calcMode="spline"/><animateMotion repeatCount="indefinite" dur="1s" begin="0s" xlink:href="#_R_G_L_0_G_L_0_G_L_0_G_L_0_G" fill="freeze" keyTimes="0;0.5333333;0.9666667;1" path="M85.5 127.53 C85.5,127.53 83.5,128.03 83.5,128.03 C83.5,128.03 85.5,127.53 85.5,127.53 C85.5,127.53 85.5,127.53 85.5,127.53 " keyPoints="0;0.5;1;1" keySplines="0.333 0 0.667 1;0.333 0 0.667 1;0 0 0 0" calcMode="spline"/><animateTransform repeatCount="indefinite" dur="1s" begin="0s" xlink:href="#_R_G_L_0_G_L_0_G_L_0_G_L_0_G" fill="freeze" attributeName="transform" from="0" to="0" type="rotate" additive="sum" keyTimes="0;0.5333333;0.9666667;1" values="0;-14;0;0" keySplines="0.333 0 0.667 1;0.333 0 0.667 1;0 0 0 0" calcMode="spline"/><animateTransform repeatCount="indefinite" dur="1s" begin="0s" xlink:href="#_R_G_L_0_G_L_0_G_L_0_G_L_0_G" fill="freeze" attributeName="transform" from="1 1" to="1 1" type="scale" additive="sum" keyTimes="0;0.5333333;0.9666667;1" values="1 1;1.06 1.06;1 1;1 1" keySplines="0.333 0 0.667 1;0.333 0 0.667 1;0 0 0 0" calcMode="spline"/><animate attributeType="XML" attributeName="opacity" dur="1s" from="0" to="1" xlink:href="#time_group"/></defs><g id="_R_G"><g id="_R_G_L_0_G" transform=" translate(16, 16) scale(0.14, 0.14) translate(-120, -120)"><g id="_R_G_L_0_G_L_0_G" transform=" translate(120, 120) translate(-117, -117)"><g id="_R_G_L_0_G_L_0_G_L_0_G" transform=" translate(117.013, 116.975) translate(-117, -99)"><g id="_R_G_L_0_G_L_0_G_L_0_G_L_1_G"><path id="_R_G_L_0_G_L_0_G_L_0_G_L_1_G_D_0_P_0" fill="#ffffff" fill-opacity="1" fill-rule="nonzero" d=" M-30.37 -0.33 C-30.37,16.63 -16.67,29.93 0.23,29.93 C17.12,29.93 30.83,16.63 30.83,-0.33 C30.83,-17.29 17.12,-31.05 0.23,-31.05 C-16.67,-31.05 -30.37,-17.29 -30.37,-0.33z  M42.79 -9.39 C42.79,-9.39 52.3,-15.26 52.3,-15.26 C52.3,-15.26 52.33,-15.28 52.33,-15.28 C52.33,-15.28 53.94,-8.66 54.4,-1.96 C55.08,7.89 53.24,13.1 53.24,13.1 C53.24,13.1 43.14,8.2 43.14,8.2 C43.14,8.2 42.79,-9.39 42.79,-9.39z  M14.24 40.13 C14.24,40.13 29.49,31.45 29.49,31.45 C29.49,31.45 29.49,31.48 29.49,31.48 C29.49,31.48 39.15,37.09 39.15,37.09 C39.15,37.09 34.14,42.12 28.02,45.26 C20.18,51 14.29,51.38 14.29,51.38 C14.29,51.38 14.24,40.13 14.24,40.13z  M14.29 -50.77 C14.29,-50.77 21.14,-48.54 27.01,-45.26 C27.01,-45.26 27.01,-45.29 27.01,-45.29 C35.58,-40.51 38.95,-36.12 38.95,-36.12 C38.95,-36.12 29.36,-30.29 29.36,-30.29 C29.36,-30.29 14.47,-39.58 14.47,-39.58 C14.47,-39.58 14.29,-50.77 14.29,-50.77z  M0.23 34.83 C-19.37,34.83 -35.25,18.86 -35.25,-0.81 C-35.25,-20.51 -19.37,-36.45 0.23,-36.45 C19.83,-36.45 35.71,-20.51 35.71,-0.81 C35.71,18.89 19.83,34.83 0.23,34.83z  M-26.81 -45.16 C-18.59,-50.6 -13.18,-51.53 -13.18,-51.53 C-13.18,-51.53 -13.2,-51.51 -13.2,-51.51 C-13.2,-51.51 -12.49,-40.29 -12.49,-40.29 C-12.49,-40.29 -27.59,-31.35 -27.59,-31.35 C-27.59,-31.35 -37.35,-36.81 -37.35,-36.81 C-37.35,-36.81 -32.4,-41.46 -26.81,-45.16z  M-13.46 53.49 C-13.46,53.49 -19.88,51.33 -25.8,48.16 C-25.8,48.16 -25.77,48.16 -25.77,48.16 C-34.42,43.51 -37.83,39.17 -37.83,39.17 C-37.83,39.17 -28.35,33.2 -28.35,33.2 C-28.35,33.2 -13.33,42.27 -13.33,42.27 C-13.33,42.27 -13.46,53.49 -13.46,53.49z  M-54.73 -1.19 C-54.73,-11.04 -52.55,-16.12 -52.55,-16.12 C-52.55,-16.12 -42.82,-10.56 -42.82,-10.56 C-42.82,-10.56 -43.65,7.03 -43.65,7.03 C-43.65,7.03 -53.54,12.24 -53.54,12.24 C-53.54,12.24 -54.73,5.53 -54.73,-1.19z  M-59.99 0 C-59.99,33.13 -32.77,59.99 0.23,59.99 C0.23,59.99 0.23,60.01 0.23,60.01 C33.23,60.01 59.99,33.15 59.99,0 C59.99,-33.15 33.23,-60.01 0.23,-60.01 C-32.77,-60.01 -59.99,-33.13 -59.99,0z "/></g><g id="_R_G_L_0_G_L_0_G_L_0_G_L_0_G"><path id="_R_G_L_0_G_L_0_G_L_0_G_L_0_G_D_0_P_0" fill="#ffffff" fill-opacity="1" fill-rule="nonzero" d=" M-26.31 -44.15 C-18.22,-49.45 -12.9,-50.37 -12.9,-50.37 C-12.9,-50.37 -12.92,-50.35 -12.92,-50.35 C-12.92,-50.35 -12.23,-39.39 -12.23,-39.39 C-12.23,-39.39 -27.08,-30.67 -27.08,-30.67 C-27.08,-30.67 -36.68,-36 -36.68,-36 C-36.68,-36 -31.81,-40.53 -26.31,-44.15z  M-13.17 52.13 C-13.17,52.13 -19.49,50.03 -25.31,46.93 C-25.31,46.93 -25.29,46.93 -25.29,46.93 C-33.79,42.39 -37.15,38.15 -37.15,38.15 C-37.15,38.15 -27.83,32.33 -27.83,32.33 C-27.83,32.33 -13.05,41.18 -13.05,41.18 C-13.05,41.18 -13.17,52.13 -13.17,52.13z  M-53.77 -1.25 C-53.77,-10.87 -51.63,-15.82 -51.63,-15.82 C-51.63,-15.82 -42.06,-10.39 -42.06,-10.39 C-42.06,-10.39 -42.88,6.78 -42.88,6.78 C-42.88,6.78 -52.6,11.86 -52.6,11.86 C-52.6,11.86 -53.77,5.32 -53.77,-1.25z  M28.05 44.55 C19.89,49.68 14.54,50.52 14.54,50.52 C14.54,50.52 14.54,50.54 14.54,50.54 C14.54,50.54 14.04,39.57 14.04,39.57 C14.04,39.57 29.05,31.09 29.05,31.09 C29.05,31.09 38.55,36.57 38.55,36.57 C38.55,36.57 33.62,41.03 28.05,44.55z  M-34.62 -0.85 C-34.62,-18.25 -21.79,-32.67 -5.05,-35.23 C-3.97,-35.4 -2.88,-35.51 -1.78,-35.58 C-1.78,-35.58 -1.75,-35.6 -1.75,-35.6 C-3.12,-40.24 -3.92,-45.14 -4.04,-50.27 C-4.12,-53.07 -3.94,-55.82 -3.57,-58.52 C-5.39,-58.41 -7.19,-58.21 -8.96,-57.94 C-37.04,-53.65 -58.5,-30.51 -58.5,-0.09 C-58.5,32.26 -32.18,58.47 -0.16,58.52 C20.71,58.52 38.89,48.02 49.43,32.1 C50.52,30.45 51.53,28.73 52.45,26.97 C53.52,24.94 54.47,22.83 55.29,20.66 C56.05,18.68 56.69,16.64 57.23,14.56 C57.77,12.48 58.19,10.35 58.5,8.19 C56.81,8.19 55.09,8.09 53.38,7.87 C53,11.09 52.4,12.75 52.4,12.75 C52.4,12.75 42.48,7.97 42.48,7.97 C42.48,7.97 42.43,5.59 42.43,5.59 C39.89,4.85 37.4,4 34.99,3.01 C34.58,6.71 33.61,10.22 32.15,13.48 C31.84,14.15 31.52,14.82 31.18,15.47 C25.38,26.46 13.84,33.94 -0.16,33.94 C-18.99,33.94 -34.62,17.66 -34.62,-0.85z "/></g></g></g></g></g><g id="time_group"/></svg>