<svg width="128" height="60" viewBox="0 0 128 60" fill="none" xmlns="http://www.w3.org/2000/svg">
<path d="M68.4943 35.4561C68.2423 35.6071 68.0513 35.7991 67.9093 36.0411C67.7673 36.2831 67.6973 36.5551 67.6973 36.8471V42.5321C67.6973 42.8241 67.7573 43.0861 67.9093 43.3381C68.0603 43.5901 68.2523 43.7811 68.4943 43.9231C68.7363 44.0641 69.0083 44.1351 69.3003 44.1351V44.1251H76.5573V42.7951H69.4823C69.3513 42.7951 69.2503 42.7551 69.1593 42.6641C69.0683 42.5831 69.0283 42.4721 69.0283 42.3411V37.0291C69.0283 36.8981 69.0783 36.7971 69.1593 36.7061C69.2403 36.6151 69.3513 36.5751 69.4823 36.5751H76.5573V35.2451H69.3003C69.0083 35.2451 68.7363 35.3151 68.4943 35.4561Z" fill="black"/>
<path d="M88.3889 35.4561C88.1469 35.3151 87.8749 35.2441 87.5829 35.2441H81.8979C81.6059 35.2441 81.3339 35.3151 81.0919 35.4561C80.8499 35.6071 80.6489 35.7991 80.5069 36.0411C80.3649 36.2831 80.2949 36.5551 80.2949 36.8471V42.5321C80.2949 42.8241 80.3659 43.0961 80.5069 43.3381C80.6579 43.5901 80.8499 43.7811 81.0919 43.9231C81.3339 44.0641 81.6059 44.1351 81.8979 44.1351H87.5829C87.8749 44.1351 88.1469 44.0641 88.3889 43.9231C88.6309 43.7721 88.8319 43.5801 88.9739 43.3381C89.1159 43.0961 89.1859 42.8241 89.1859 42.5321V36.8471C89.1859 36.5551 89.1259 36.2831 88.9739 36.0411C88.8219 35.7991 88.6309 35.5981 88.3889 35.4561ZM87.8449 42.5011C87.8449 42.5821 87.8149 42.6521 87.7539 42.7131C87.6939 42.7731 87.6229 42.8041 87.5419 42.8041H81.9379C81.8569 42.8041 81.7869 42.7741 81.7259 42.7131C81.6659 42.6531 81.6349 42.5821 81.6349 42.5011V36.8971C81.6349 36.8161 81.6649 36.7461 81.7259 36.6851C81.7859 36.6251 81.8569 36.5941 81.9379 36.5941H87.5419C87.6229 36.5941 87.6929 36.6241 87.7539 36.6851C87.8139 36.7451 87.8449 36.8161 87.8449 36.8971V42.5011Z" fill="black"/>
<path d="M101.099 35.4759C100.847 35.3249 100.575 35.2539 100.283 35.2539H93.0059V44.1339L93.0159 44.1239H94.3459V40.9489H97.6289L100.293 44.1339V44.1239H101.845V43.8819L99.3739 40.9489H100.283C100.585 40.9489 100.858 40.8779 101.099 40.7369C101.341 40.5859 101.542 40.3939 101.684 40.1519C101.825 39.9099 101.896 39.6379 101.896 39.3459V36.8559C101.896 36.5639 101.825 36.3019 101.684 36.0599C101.543 35.8179 101.351 35.6269 101.099 35.4749V35.4759ZM100.555 39.3159C100.555 39.3969 100.525 39.4669 100.464 39.5279C100.404 39.5879 100.333 39.6189 100.252 39.6189H94.6479C94.5669 39.6189 94.4969 39.5889 94.4359 39.5279C94.3759 39.4679 94.3449 39.3969 94.3449 39.3159V36.8969C94.3449 36.8159 94.3749 36.7459 94.4359 36.6849C94.4959 36.6249 94.5669 36.5939 94.6479 36.5939H100.252C100.333 36.5939 100.403 36.6239 100.464 36.6849C100.524 36.7449 100.555 36.8159 100.555 36.8969V39.3159Z" fill="black"/>
<path d="M113.759 35.4759C113.507 35.3249 113.235 35.2539 112.943 35.2539H105.666V44.1339L105.676 44.1239H107.006V40.9489H112.943C113.245 40.9489 113.518 40.8779 113.759 40.7369C114.001 40.5859 114.202 40.3939 114.344 40.1519C114.485 39.9099 114.556 39.6379 114.556 39.3459V36.8559C114.556 36.5639 114.486 36.3019 114.344 36.0599C114.202 35.8179 114.011 35.6269 113.759 35.4749V35.4759ZM113.215 39.3159C113.215 39.3969 113.185 39.4669 113.124 39.5279C113.064 39.5879 112.993 39.6189 112.912 39.6189H107.308C107.227 39.6189 107.157 39.5889 107.096 39.5279C107.036 39.4679 107.005 39.3969 107.005 39.3159V36.8969C107.005 36.8159 107.035 36.7459 107.096 36.6849C107.157 36.6239 107.227 36.5939 107.308 36.5939H112.912C112.993 36.5939 113.063 36.6239 113.124 36.6849C113.184 36.7449 113.215 36.8159 113.215 36.8969V39.3159Z" fill="black"/>
<path d="M125.934 35.4659C125.692 35.3249 125.42 35.2539 125.128 35.2539H119.443C119.151 35.2539 118.879 35.3249 118.637 35.4659C118.385 35.6169 118.194 35.8089 118.052 36.0509C117.911 36.2929 117.84 36.5649 117.84 36.8569V38.7619C117.84 39.0539 117.911 39.3259 118.052 39.5679C118.203 39.8199 118.395 40.0109 118.637 40.1529C118.879 40.2939 119.151 40.3649 119.443 40.3649H125.087C125.168 40.3649 125.238 40.3949 125.299 40.4559C125.359 40.5159 125.39 40.5869 125.39 40.6779V42.5019C125.39 42.5829 125.36 42.6529 125.299 42.7139C125.239 42.7739 125.168 42.8049 125.087 42.8049H119.483C119.402 42.8049 119.332 42.7749 119.271 42.7139C119.211 42.6539 119.18 42.5829 119.18 42.5019V42.0179H117.85V42.5319C117.85 42.8239 117.91 43.0859 118.062 43.3379C118.213 43.5899 118.405 43.7809 118.647 43.9229C118.889 44.0639 119.161 44.1349 119.453 44.1349H125.127C125.419 44.1349 125.691 44.0749 125.933 43.9229C126.175 43.7719 126.376 43.5799 126.518 43.3379C126.66 43.0959 126.73 42.8239 126.73 42.5319V40.6269C126.73 40.3349 126.659 40.0629 126.518 39.8209C126.367 39.5789 126.175 39.3779 125.933 39.2359C125.691 39.0949 125.419 39.0239 125.127 39.0239H119.483C119.402 39.0239 119.332 38.9939 119.271 38.9329C119.211 38.8729 119.18 38.8019 119.18 38.7109V36.8869C119.18 36.8059 119.21 36.7359 119.271 36.6749C119.331 36.6149 119.402 36.5839 119.483 36.5839H125.087C125.168 36.5839 125.238 36.6139 125.299 36.6749C125.359 36.7349 125.39 36.8059 125.39 36.8869V37.3709H126.731V36.8569C126.731 36.5649 126.66 36.2929 126.519 36.0509C126.368 35.8089 126.176 35.6079 125.934 35.4659Z" fill="black"/>
<path d="M0.390625 21.3757V25.1457C0.390625 28.2597 2.94063 30.7997 6.04463 30.7997H20.0946V21.3757H12.8476L10.6706 25.1457H15.3776V27.0407H7.47563C6.17563 27.0407 5.10663 25.9727 5.10663 24.6617V21.8697C5.10663 20.5597 6.16463 19.4907 7.47563 19.4907H20.0946V15.7207H6.04463C2.93063 15.7207 0.390625 18.2717 0.390625 21.3757Z" fill="black"/>
<path d="M31.071 15.7207L22.373 30.7997H27.806L33.793 20.4377L39.78 30.7997H45.222L36.514 15.7207H31.071Z" fill="black"/>
<path d="M72.0722 30.7997V15.7207H67.3652L59.8662 24.8627L52.3672 15.7207H47.6602V30.7997H52.3672V21.6677L59.8662 30.7997L67.3652 21.6677V30.7997H72.0722Z" fill="black"/>
<path d="M80.3769 15.7207H75.6699V30.7987H80.3769V15.7207Z" fill="black"/>
<path d="M99.9016 25.7497L88.6936 15.7207H83.9766V30.7997H88.6836V20.7707L99.8916 30.7997H104.608V15.7207H99.9016V25.7497Z" fill="black"/>
<path d="M114.776 19.4907H127.395V15.7207H113.345C110.231 15.7207 107.691 18.2707 107.691 21.3747V25.1447C107.691 28.2587 110.241 30.7987 113.345 30.7987H127.395V21.3747H120.148L117.971 25.1447H122.678V27.0397H114.776C113.476 27.0397 112.407 25.9717 112.407 24.6607V21.8687C112.407 20.5587 113.465 19.4907 114.776 19.4907Z" fill="black"/>
<path d="M29.8916 30.8397C29.8916 30.8397 37.4306 30.9407 37.6726 30.8397C37.9246 30.7487 33.7816 24.0967 33.7816 24.0967L29.8906 30.8397H29.8916Z" fill="black"/>
</svg>
