<svg width="150" height="61" viewBox="0 0 150 61" fill="none" xmlns="http://www.w3.org/2000/svg">
<path d="M144.34 30.17H143.47V27.69H142.67V26.95H145.2V27.69H144.34V30.17ZM149.66 30.17H148.82L148.88 27.7H148.85L148.05 30.17H147.31L146.5 27.7H146.47L146.54 30.17H145.69V26.95H147.05L147.65 28.97H147.69L148.27 26.95H149.66V30.17ZM44.04 40.41H40.38V35.03H35.64V40.41H31.97V26.71H35.64V31.89H40.38V26.71H44.04V40.41ZM49.87 38.05L49.22 40.41H45.42L49.51 26.71H55.05L59.21 40.41H55.48L54.77 38.05H49.87ZM52.33 29.45L50.65 35.4H54.05L52.33 29.45ZM60.58 26.71H68C69.24 26.73 70.23 26.96 70.97 27.42C71.7 27.88 72.07 28.82 72.07 30.22C72.09 30.92 71.97 31.62 71.75 32.29C71.55 32.87 70.94 33.25 69.95 33.41V33.51C70.87 33.61 71.49 33.91 71.81 34.39C72.13 34.89 72.29 35.59 72.29 36.49C72.29 38.02 71.99 39.06 71.39 39.6C70.78 40.14 69.67 40.41 68.06 40.41H60.56V26.71H60.58ZM66.58 32.2L66.74 32.22H66.88C67.26 32.22 67.63 32.15 67.99 32.04C68.3 31.94 68.45 31.61 68.45 31.04C68.45 30.55 68.37 30.22 68.2 30.03C68.03 29.84 67.7 29.75 67.2 29.75H64.24V32.2H66.57H66.58ZM66.68 37.4C67.15 37.42 67.63 37.37 68.1 37.24C68.47 37.12 68.66 36.73 68.66 36.06C68.66 35.42 68.51 35.04 68.22 34.92C67.92 34.8 67.49 34.74 66.92 34.74H64.24V37.39H66.67L66.68 37.4ZM77.17 38.05L76.52 40.41H72.72L76.81 26.71H82.35L86.5 40.41H82.78L82.06 38.05H77.17ZM79.63 29.45L77.95 35.4H81.35L79.63 29.45ZM101.1 40.41H94.9L91.05 29.88H90.89L91.05 40.41H87.46V26.71H93.62L97.47 37.13H97.61L97.47 26.71H101.09V40.41H101.1ZM106.56 32.2H112.37V34.74H106.56V37.39H112.9V40.41H102.9V26.71H112.78V29.73H106.56V32.2ZM114.62 26.71H121.5C123.24 26.73 124.49 27.02 125.24 27.61C125.99 28.19 126.37 29.4 126.37 31.23C126.393 32.0763 126.278 32.9207 126.03 33.73C125.81 34.36 125.06 34.82 123.79 35.09V35.22C124.63 35.27 125.26 35.52 125.66 35.99C126.06 36.45 126.26 37.09 126.26 37.93V40.41H122.54V38.58C122.54 38.03 122.44 37.6 122.22 37.28C122.02 36.96 121.61 36.8 121 36.8H118.28V40.41H114.62V26.71ZM121.19 33.66C121.86 33.66 122.26 33.52 122.41 33.2C122.55 32.89 122.62 32.44 122.62 31.85C122.62 31.18 122.55 30.68 122.4 30.37C122.25 30.05 121.78 29.9 121 29.9L118.28 29.88V33.66H121.18H121.19ZM127.8 32.85C127.8 32.0135 127.861 31.178 127.98 30.35C128.24 28.82 128.93 27.82 130.07 27.37C131.24 26.91 132.47 26.67 133.73 26.65H134.13C136.5 26.65 138.15 27.05 139.09 27.85C140.03 28.65 140.5 30.29 140.5 32.77C140.5 35.31 140.23 37.23 139.68 38.54C139.12 39.86 137.31 40.52 134.24 40.52L133.57 40.51L132.87 40.47C131.87 40.44 130.87 40.22 129.95 39.84C129.03 39.45 128.41 38.68 128.09 37.54C127.953 37.0778 127.869 36.6014 127.84 36.12C127.81 35.64 127.8 35.16 127.8 34.68V32.85ZM131.54 33.6V34.42C131.54 35.39 131.64 36.12 131.85 36.63C132.05 37.14 132.72 37.39 133.85 37.39C135.11 37.39 135.91 37.19 136.24 36.79C136.57 36.39 136.74 35.6 136.74 34.44V33.94C136.74 33.78 136.74 33.61 136.76 33.44V32.44C136.76 31.53 136.63 30.86 136.38 30.44C136.12 30.01 135.5 29.79 134.51 29.8C133.1 29.8 132.25 29.99 131.99 30.37C131.72 30.76 131.57 31.81 131.55 33.54V33.6H131.54Z" fill="black"/>
<path fill-rule="evenodd" clip-rule="evenodd" d="M11.6 19.32C11.691 19.3213 11.7813 19.3044 11.8656 19.2702C11.95 19.236 12.0266 19.1852 12.0909 19.1209C12.1553 19.0566 12.206 18.98 12.2402 18.8956C12.2744 18.8113 12.2914 18.721 12.29 18.63V16.65C12.2874 16.4704 12.2149 16.299 12.088 16.172C11.961 16.045 11.7895 15.9726 11.61 15.97C11.4297 15.97 11.2567 16.0416 11.1292 16.1692C11.0016 16.2967 10.93 16.4696 10.93 16.65V18.63C10.9287 18.7201 10.9453 18.8096 10.9789 18.8933C11.0124 18.9769 11.0623 19.0531 11.1256 19.1173C11.1889 19.1815 11.2643 19.2325 11.3474 19.2673C11.4306 19.3021 11.5199 19.32 11.61 19.32H11.6ZM8.88 21.14C8.97015 21.14 9.0594 21.1221 9.14256 21.0873C9.22572 21.0525 9.30113 21.0015 9.36441 20.9373C9.42768 20.8731 9.47756 20.7969 9.51114 20.7133C9.54472 20.6296 9.56133 20.5401 9.56 20.45V18.47C9.55742 18.2904 9.48495 18.119 9.35798 17.992C9.23101 17.865 9.05955 17.7926 8.88 17.79C8.69966 17.79 8.52669 17.8616 8.39917 17.9892C8.27165 18.1167 8.2 18.2896 8.2 18.47V20.45C8.19998 20.6313 8.27131 20.8053 8.39855 20.9344C8.5258 21.0635 8.69874 21.1374 8.88 21.14ZM8.88 16.56C9.06035 16.56 9.23331 16.4883 9.36084 16.3608C9.48836 16.2333 9.56 16.0603 9.56 15.88V15.89C9.56266 15.7985 9.54711 15.7075 9.51426 15.6221C9.4814 15.5367 9.43189 15.4587 9.36861 15.3927C9.30533 15.3266 9.22955 15.2738 9.14567 15.2373C9.06178 15.2007 8.97148 15.1813 8.88 15.18C8.78812 15.1799 8.69718 15.1984 8.61266 15.2345C8.52814 15.2705 8.4518 15.3233 8.38824 15.3896C8.32469 15.456 8.27525 15.5346 8.24289 15.6205C8.21054 15.7065 8.19595 15.7982 8.2 15.89V15.88C8.20259 16.0595 8.27506 16.231 8.40203 16.358C8.529 16.4849 8.70046 16.5574 8.88 16.56ZM14.34 21.66C14.5204 21.66 14.6933 21.5884 14.8208 21.4608C14.9484 21.3333 15.02 21.1603 15.02 20.98V20.99C15.0213 20.8994 15.0048 20.8094 14.9713 20.7252C14.9379 20.6409 14.8881 20.5641 14.825 20.4991C14.7619 20.4341 14.6865 20.3822 14.6033 20.3463C14.5201 20.3104 14.4306 20.2913 14.34 20.29C14.2482 20.2886 14.157 20.3058 14.072 20.3406C13.987 20.3755 13.9099 20.4271 13.8454 20.4926C13.7809 20.558 13.7304 20.6358 13.6968 20.7213C13.6632 20.8068 13.6473 20.8982 13.65 20.99V20.98C13.6526 21.1613 13.7265 21.3342 13.8556 21.4614C13.9847 21.5887 14.1587 21.66 14.34 21.66Z" fill="black"/>
<path fill-rule="evenodd" clip-rule="evenodd" d="M19.8 26.74C19.7099 26.7387 19.6204 26.7553 19.5367 26.7889C19.453 26.8225 19.3769 26.8723 19.3127 26.9356C19.2485 26.9989 19.1975 27.0743 19.1627 27.1575C19.1279 27.2406 19.11 27.3299 19.11 27.42V27.77C19.0948 27.9442 19.0141 28.1061 18.8842 28.223C18.7543 28.3399 18.5848 28.4032 18.41 28.4C18.2331 28.3948 18.0653 28.3209 17.942 28.1939C17.8188 28.0669 17.7499 27.8969 17.75 27.72V26.02C17.754 25.9277 17.7395 25.8356 17.7072 25.7491C17.675 25.6625 17.6257 25.5833 17.5623 25.5162C17.4989 25.449 17.4226 25.3953 17.3381 25.3582C17.2535 25.321 17.1623 25.3013 17.07 25.3C16.9312 25.2992 16.7954 25.341 16.681 25.4196C16.5666 25.4983 16.479 25.6101 16.43 25.74C16.3941 25.8289 16.377 25.9242 16.38 26.02V26.05C16.3827 26.1415 16.3671 26.2325 16.3343 26.3179C16.3014 26.4033 16.2519 26.4813 16.1886 26.5473C16.1253 26.6134 16.0495 26.6662 15.9657 26.7027C15.8818 26.7393 15.7915 26.7587 15.7 26.76C15.609 26.76 15.5189 26.7418 15.4351 26.7064C15.3512 26.671 15.2754 26.6191 15.212 26.5538C15.1485 26.4885 15.0989 26.4112 15.0659 26.3264C15.0329 26.2416 15.0173 26.151 15.02 26.06V23.19C15.0174 23.0105 14.9449 22.839 14.818 22.712C14.691 22.5851 14.5195 22.5126 14.34 22.51C14.1597 22.51 13.9867 22.5817 13.8592 22.7092C13.7316 22.8367 13.66 23.0097 13.66 23.19V24.29C13.6549 24.4705 13.5802 24.6419 13.4516 24.7687C13.3231 24.8954 13.1505 24.9675 12.97 24.97C12.8799 24.97 12.7906 24.9521 12.7074 24.9173C12.6243 24.8825 12.5489 24.8315 12.4856 24.7673C12.4223 24.7031 12.3724 24.627 12.3389 24.5433C12.3053 24.4596 12.2887 24.3701 12.29 24.28V21.2C12.2909 21.0641 12.2516 20.931 12.177 20.8173C12.1025 20.7037 11.9961 20.6146 11.8712 20.5612C11.7462 20.5078 11.6083 20.4925 11.4746 20.5172C11.341 20.5419 11.2176 20.6055 11.12 20.7C11.0544 20.7653 11.0028 20.8434 10.9684 20.9294C10.934 21.0153 10.9175 21.1074 10.92 21.2V23.88C10.9174 24.0595 10.8449 24.231 10.718 24.358C10.591 24.485 10.4195 24.5574 10.24 24.56C10.1052 24.5603 9.97331 24.5206 9.86114 24.4458C9.74896 24.371 9.66155 24.2646 9.61 24.14C9.57671 24.0574 9.55973 23.9691 9.56 23.88V22.91C9.56132 22.8194 9.54478 22.7294 9.51132 22.6452C9.47786 22.561 9.42814 22.4842 9.365 22.4192C9.30185 22.3542 9.22652 22.3022 9.1433 22.2663C9.06009 22.2305 8.97062 22.2113 8.88 22.21C8.74233 22.2085 8.60744 22.2488 8.49316 22.3255C8.37889 22.4023 8.29061 22.512 8.24 22.64C8.20882 22.7264 8.19522 22.8182 8.2 22.91V24.97C8.2 25.0606 8.18215 25.1503 8.14748 25.2341C8.1128 25.3178 8.06198 25.3938 7.9979 25.4579C7.93383 25.522 7.85777 25.5728 7.77405 25.6075C7.69034 25.6422 7.60061 25.66 7.51 25.66C7.41985 25.66 7.3306 25.6421 7.24744 25.6073C7.16428 25.5725 7.08887 25.5215 7.0256 25.4573C6.96232 25.3931 6.91244 25.317 6.87886 25.2333C6.84528 25.1496 6.82867 25.0601 6.83 24.97V22.12C6.83002 21.9387 6.7587 21.7647 6.63145 21.6356C6.50421 21.5065 6.33126 21.4326 6.15 21.43C6.05985 21.43 5.9706 21.4479 5.88744 21.4827C5.80428 21.5175 5.72887 21.5685 5.6656 21.6327C5.60232 21.6969 5.55244 21.7731 5.51886 21.8567C5.48528 21.9404 5.46867 22.0299 5.47 22.12V26.5C5.47172 26.6363 5.43241 26.77 5.35719 26.8838C5.28196 26.9975 5.17429 27.0859 5.04815 27.1377C4.92201 27.1894 4.78323 27.2021 4.64982 27.174C4.5164 27.1458 4.39452 27.0783 4.3 26.98C4.17329 26.8522 4.10152 26.68 4.1 26.5V25.34C4.10266 25.2486 4.08711 25.1575 4.05425 25.0721C4.0214 24.9867 3.97189 24.9087 3.90861 24.8427C3.84533 24.7766 3.76955 24.7238 3.68566 24.6873C3.60178 24.6508 3.51148 24.6313 3.42 24.63C3.32899 24.63 3.2389 24.6482 3.15507 24.6836C3.07124 24.719 2.99537 24.7709 2.93196 24.8362C2.86854 24.9015 2.81888 24.9788 2.78591 25.0636C2.75293 25.1485 2.73732 25.239 2.74 25.33V28.56C2.74002 28.7413 2.6687 28.9153 2.54145 29.0444C2.41421 29.1735 2.24126 29.2474 2.06 29.25C1.96985 29.25 1.8806 29.2321 1.79744 29.1973C1.71428 29.1625 1.63887 29.1115 1.5756 29.0473C1.51232 28.9831 1.46244 28.907 1.42886 28.8233C1.39528 28.7396 1.37867 28.6501 1.38 28.56V27.5C1.37737 27.3187 1.30352 27.1458 1.1744 27.0186C1.04529 26.8913 0.87128 26.82 0.69 26.82C0.509653 26.82 0.336692 26.8917 0.209167 27.0192C0.0816427 27.1467 0.01 27.3197 0.01 27.5L0 28.56V40.43L10.24 46.36L20.47 40.43V27.43C20.4713 27.3394 20.4548 27.2494 20.4213 27.1652C20.3879 27.081 20.3381 27.0042 20.275 26.9392C20.2118 26.8742 20.1365 26.8222 20.0533 26.7863C19.9701 26.7505 19.8806 26.7313 19.79 26.73L19.8 26.74ZM15.06 38.37H11.84V35.92H8.63V38.37H5.4V30.68H8.62V33.27H11.83V30.68H15.05V38.38L15.06 38.37Z" fill="black"/>
</svg>
