<svg width="128" height="60" viewBox="0 0 128 60" fill="none" xmlns="http://www.w3.org/2000/svg">
<path d="M86.5898 28.8005C86.5898 23.3369 82.891 22.4183 80.0383 21.7172C78.2372 21.2699 76.7746 20.9073 76.7746 19.5414C76.7746 18.5381 77.6087 18.0909 78.757 18.0909C80.0866 18.0909 81.4163 18.6953 82.7217 20.1095C82.758 20.1458 82.8063 20.1821 82.8547 20.1941C82.9028 20.2066 82.9538 20.2013 82.9983 20.179C83.0427 20.1568 83.0776 20.1192 83.0965 20.0733L85.7557 16.2898C85.8071 16.2237 85.8339 16.1418 85.8317 16.058C85.8294 15.9744 85.7984 15.894 85.7436 15.8305C84.9468 14.7976 83.9201 13.9649 82.7449 13.3984C81.5699 12.8318 80.279 12.5472 78.9746 12.5669C75.3483 12.5669 71.444 14.4042 71.444 20.2304C71.444 25.9237 75.1307 26.7819 78.0197 27.4346C79.8691 27.8577 81.38 28.2082 81.38 29.7071C81.38 30.8916 80.4614 31.4719 79.1196 31.4719C77.4395 31.4719 75.7835 30.5895 74.1154 28.2807C74.0308 28.1599 73.8736 28.1115 73.789 28.2807L71.1902 32.0279L85.937 32.4268C86.3964 31.2785 86.6139 30.0455 86.6018 28.8005H86.5898ZM61.1333 27.1445L58.6312 30.8916V31.7015L53.3126 31.5686V13.6548C53.3126 13.4493 53.3973 13.3284 53.5544 13.3284H58.3894C58.5345 13.3284 58.6312 13.4493 58.6312 13.6548V21.9952L63.8167 13.4976C63.8419 13.4413 63.8825 13.3932 63.9338 13.359C63.9851 13.3248 64.0452 13.3058 64.1069 13.3042H70.0298C70.2232 13.3042 70.3199 13.4734 70.1748 13.691L64.5783 22.0435L68.954 31.9554L63.0311 31.8103L61.1333 27.1324V27.1445ZM8.83034 27.4588H12.4566V30.4807L18.2103 30.6378V13.6548C18.2103 13.4493 18.1136 13.3284 17.9686 13.3284H12.7105C12.5533 13.3284 12.4566 13.4493 12.4566 13.6548V21.693H8.83034V13.6548C8.83034 13.4493 8.70946 13.3284 8.56441 13.3284H3.39093C3.23379 13.3284 3.125 13.4493 3.125 13.6548V30.2389L8.83034 30.3961V27.4588Z" fill="black"/>
<path fill-rule="evenodd" clip-rule="evenodd" d="M31.5434 13.582C31.4951 13.3886 31.3984 13.3281 31.2775 13.3281H25.5963C25.4754 13.3281 25.3787 13.3886 25.3304 13.582L20.5195 30.698L36.3543 31.1331L31.5434 13.582ZM26.9139 27.9904L28.4127 18.3203L29.8632 27.9904H26.9139ZM98.4482 13.3281C98.569 13.3281 98.6658 13.3886 98.7141 13.582L104.033 32.8979L87.1825 32.4507L92.5011 13.5941C92.5494 13.3886 92.6461 13.3281 92.767 13.3281H98.4482ZM95.5955 18.3203L94.0846 27.9904H97.0339L95.5834 18.3203H95.5955Z" fill="black"/>
<path d="M114.549 23.5544L116.048 33.2244L122.189 33.3816L127.58 13.6788C127.628 13.4491 127.556 13.3162 127.398 13.3162H122.322C122.177 13.3162 122.08 13.425 122.056 13.6305L119.372 25.0774L117.184 13.6305C117.16 13.4733 117.064 13.3283 116.918 13.3283H112.18C112.035 13.3283 111.938 13.4491 111.914 13.6305L109.726 25.0774L107.031 13.6184C107.007 13.425 106.91 13.3041 106.765 13.3041H101.7C101.531 13.3041 101.458 13.4371 101.507 13.6667L106.801 32.9827L113.063 33.1519L114.549 23.5665V23.5544ZM50.8236 29.6465V31.4959L38.3008 31.1695C37.5057 29.2679 37.1107 27.2229 37.1404 25.162C37.1404 18.1875 41.1172 12.6514 47.294 12.6514C48.4181 12.6514 49.5423 12.8327 50.6181 13.2195C50.686 13.2426 50.7449 13.2866 50.7861 13.3452C50.8274 13.4039 50.8489 13.4742 50.8477 13.5458V19.8918C50.846 19.9086 50.8394 19.9243 50.8285 19.9373C50.8178 19.9502 50.8035 19.9596 50.7873 19.9644C50.7694 19.9698 50.7503 19.9693 50.7328 19.9627C50.7153 19.9561 50.7005 19.9439 50.6906 19.9281C50.3467 19.4069 49.8752 18.9821 49.3208 18.6944C48.7666 18.4066 48.1478 18.2654 47.5236 18.2842C44.4534 18.2842 43.3655 21.3182 43.3655 24.739C43.3655 28.5224 44.6831 31.3509 47.4753 31.3509C48.1113 31.3623 48.7398 31.2105 49.3005 30.91C49.8613 30.6095 50.3357 30.1704 50.6785 29.6344L50.7148 29.5982C50.7304 29.5926 50.7475 29.5926 50.7631 29.5982H50.7752C50.7862 29.6024 50.7961 29.6089 50.8045 29.6173C50.8128 29.6256 50.8193 29.6355 50.8236 29.6465ZM9.73786 36.9111C9.73786 37.1045 9.83456 37.2254 9.97962 37.2254H15.2256C15.2638 37.2223 15.3008 37.2109 15.3342 37.1922C15.3675 37.1734 15.3965 37.1477 15.419 37.1166C15.4422 37.0881 15.4594 37.0552 15.4698 37.0199C15.4802 36.9846 15.4835 36.9477 15.4795 36.9111V31.5563L9.72578 31.3992V36.9111H9.73786ZM5.85775 37.2254H0.660089C0.515038 37.2254 0.40625 37.1045 0.40625 36.9111V31.1575L6.11159 31.3025V36.9232C6.11729 36.9617 6.11486 37.001 6.10446 37.0384C6.09405 37.0759 6.07588 37.1108 6.05115 37.1408C6.02748 37.1696 5.99804 37.193 5.96472 37.2097C5.93141 37.2264 5.89497 37.2358 5.85775 37.2375V37.2254ZM16.5069 37.2254H21.7408C21.8134 37.2254 21.8859 37.2013 21.9342 37.1529C21.9845 37.1039 22.0182 37.0406 22.0309 36.9716L22.6958 34.0101H28.5824L29.2472 36.9716C29.2472 37.0441 29.2956 37.1045 29.3439 37.1529C29.3923 37.2013 29.4648 37.2375 29.5252 37.2375H34.7712C34.9405 37.2375 35.013 37.0804 34.9646 36.8507L33.635 32.0278L17.8003 31.6168L16.3135 36.8507C16.2531 37.0804 16.3377 37.2375 16.5069 37.2375V37.2254ZM62.1496 37.165C62.0979 37.1252 62.0599 37.0702 62.0408 37.0078L60.3123 32.7288L66.2352 32.886L67.9758 36.8386C68.0725 37.0804 68 37.2375 67.8066 37.2375H62.3309C62.2641 37.2341 62.2004 37.2086 62.1496 37.165ZM50.8115 37.2254H55.6465C55.8036 37.2254 55.8883 37.1045 55.8883 36.9232V32.6321L50.5697 32.4871V36.9232C50.5697 37.1166 50.6664 37.2496 50.8115 37.2496V37.2254ZM71.5296 36.9353C70.1591 36.2417 68.9677 35.2406 68.0484 34.0101C67.9983 33.9463 67.9712 33.8676 67.9712 33.7865C67.9712 33.7054 67.9983 33.6267 68.0484 33.5629L68.4714 32.9585L83.2183 33.3453C81.9612 36.4397 79.0481 37.9869 75.9295 37.9869C74.4064 37.9869 72.9076 37.6243 71.5296 36.9353ZM83.6897 37.2254H88.9115C88.9796 37.222 89.0446 37.1967 89.0969 37.153C89.1493 37.1094 89.186 37.05 89.2016 36.9837L89.8664 34.0101H95.7531L96.43 36.9716C96.4421 37.0441 96.4784 37.1045 96.5267 37.1529C96.5871 37.2013 96.6476 37.2254 96.7201 37.2375H101.942C102.111 37.2375 102.184 37.0804 102.135 36.8507L101.301 33.8167L84.4633 33.3695L83.4963 36.8507C83.3996 37.0804 83.5084 37.2375 83.6776 37.2375L83.6897 37.2254ZM114.017 37.2254C113.872 37.2254 113.776 37.1045 113.752 36.9474L113.316 34.131L119.457 34.3002L118.732 36.9474C118.707 37.1408 118.611 37.2375 118.478 37.2375H114.005L114.017 37.2254ZM105.169 37.2254H109.63C109.775 37.2254 109.871 37.1045 109.896 36.9474L110.343 34.0464L104.069 33.8892L104.915 36.9474C104.928 37.1408 105.036 37.2375 105.169 37.2375V37.2254ZM47.8742 37.6243C46.8401 37.962 45.7589 38.1334 44.671 38.132C42.7198 38.1742 40.8026 37.6175 39.1773 36.5369C37.5521 35.4564 36.2971 33.9038 35.5811 32.0882L48.1038 32.4146V37.2979C48.1032 37.3693 48.081 37.4386 48.04 37.497C47.9989 37.5553 47.9412 37.5998 47.8742 37.6243ZM8.28735 44.6593H6.30499V43.7406C6.30499 43.5714 6.20829 43.4989 6.01489 43.4989H5.60391C5.41051 43.4989 5.3259 43.5714 5.3259 43.7406V47.8504C5.3259 48.0196 5.41051 48.1042 5.60391 48.1042H6.01489C6.20829 48.1042 6.30499 48.0196 6.30499 47.8625V46.6537H5.72479V45.4208H8.26318V48.0075C8.26318 48.9383 7.70715 49.3976 6.59509 49.3976H4.99953C3.88747 49.3976 3.33144 48.9383 3.33144 48.0075V43.5835C3.33144 42.6648 3.88747 42.2055 4.99953 42.1934H6.61927C7.73132 42.1934 8.29944 42.6648 8.29944 43.5835L8.28735 44.6714V44.6593Z" fill="black"/>
<path fill-rule="evenodd" clip-rule="evenodd" d="M29.2105 48.2975L29.4401 49.3854H31.4467L29.561 42.1812H27.1435L25.2578 49.3733H27.216L27.4578 48.2975H29.2105ZM28.9083 46.9074H27.772L28.3401 44.3207L28.9083 46.9074Z" fill="black"/>
<path d="M50.3046 49.3734H48.5156V42.1934H50.6793L51.8881 46.0372L53.0726 42.1934H55.2242V49.3734H53.4715V44.8164L52.5529 47.8383H51.187L50.2804 44.8405L50.3046 49.3734ZM74.7699 42.1934H72.7754V49.3734H74.7699V42.1934ZM95.6572 42.1934H97.4703V49.3734H95.766L94.1342 45.6021V49.3734H92.321V42.1934H94.0133L95.633 46.0372L95.6451 42.1934H95.6572ZM117.935 44.6592H119.917V43.5834C119.917 42.6648 119.349 42.1934 118.237 42.1934H116.617C115.505 42.1934 114.949 42.6648 114.949 43.5834V48.0075C114.949 48.9382 115.505 49.3976 116.617 49.3976H118.237C119.349 49.3976 119.905 48.9382 119.905 48.0075V45.4207H117.342V46.6537H117.91V47.8624C117.91 48.0196 117.826 48.1042 117.632 48.1042H117.246C117.052 48.1042 116.956 48.0196 116.956 47.8624V43.7406C116.956 43.5713 117.052 43.4988 117.246 43.4988H117.645C117.838 43.4988 117.935 43.5713 117.935 43.7406V44.6592Z" fill="black"/>
</svg>
