<svg width="141" height="61" viewBox="0 0 141 61" fill="none" xmlns="http://www.w3.org/2000/svg">
<path d="M140.34 28.9099L139.61 29.3099C139.71 29.7199 139.87 30.1199 139.91 30.5299C140.06 32.5499 138.94 33.7999 136.77 33.9699C135.94 34.0299 135.09 33.8799 134.25 33.8699C134.19 33.8699 134.15 33.8799 134.09 33.8999C133.82 33.9799 133.7 34.3799 133.89 34.5999C133.93 34.6499 133.99 34.6999 134.05 34.7099C135.13 35.0199 136.23 35.2599 137.33 35.5399C137.73 35.6399 138.13 35.7699 138.53 35.9299C139.71 36.3999 140.11 37.0299 140.09 38.2499C140.06 39.3899 139.56 40.1299 138.43 40.5199C136.81 41.0614 135.061 41.0789 133.43 40.5699C131.5 40.0099 130.67 37.7699 132.3 35.9499C131.4 34.6299 131.39 33.9999 132.14 33.0199C131.94 32.3699 131.67 31.7999 131.62 31.2199C131.42 28.9999 132.65 27.6799 135.07 27.5399C136.63 27.4399 138.18 27.4999 139.73 27.5099C139.94 27.5099 140.14 27.6899 140.35 27.7799V28.9099H140.34ZM135.99 32.3099C136.09 32.2899 136.39 32.2599 136.69 32.1899C137.33 32.0499 137.63 31.6399 137.66 30.9899C137.69 30.3199 137.58 29.6299 136.84 29.4799C136.141 29.3323 135.419 29.3323 134.72 29.4799C134.38 29.5699 134 30.0899 133.9 30.4799C133.61 31.6599 134.32 32.2999 135.99 32.2999V32.3099ZM135.87 39.2099C136.35 39.2099 136.7 39.2099 137.04 39.0399C137.34 38.8999 137.7 38.5399 137.74 38.2399C137.78 38.0099 137.74 37.6899 137.16 37.4599C136.43 37.1799 135.64 37.0099 134.86 36.8199C134.06 36.6199 133.78 36.8399 133.71 37.6899C133.64 38.5399 133.95 38.9499 134.81 39.0899C135.16 39.1399 135.51 39.1699 135.87 39.1999V39.2099ZM56.92 31.2999V36.3999C56.92 37.3799 56.92 37.3999 55.96 37.3799C54.29 37.3799 54.5 37.5799 54.5 35.9199C54.5 32.3499 54.5 28.7699 54.48 25.1899C54.48 24.5899 54.65 24.3699 55.28 24.3899C56.92 24.4099 56.92 24.3899 56.92 26.0299V30.1899C57.15 29.9399 57.27 29.8099 57.37 29.6799C58.57 28.0799 59.75 26.4599 60.97 24.8799C61.25 24.5199 61.17 24.4099 61.88 24.4099L63.58 24.3999C63.8 24.3999 63.93 24.6399 63.81 24.8299L63.53 25.2599C62.27 26.8999 61.01 28.5499 59.73 30.1699C59.43 30.5499 59.41 30.7999 59.7 31.1999C61 32.9799 62.27 34.7999 63.55 36.5999C63.69 36.7999 63.81 37.0199 64.05 37.3699C63 37.3699 62.12 37.3999 61.25 37.3499C61.05 37.3399 60.85 37.0499 60.7 36.8499C59.6 35.2499 58.53 33.6199 57.44 31.9899L56.92 31.2899V31.2999Z" fill="black"/>
<path d="M74.08 37.3702C72.88 37.3402 72.97 37.6002 72.65 36.2702C72.49 35.5602 72.35 34.8402 72.13 34.1502C72.0794 34.0398 72.003 33.9431 71.9073 33.8683C71.8116 33.7935 71.6994 33.7427 71.58 33.7202C70.54 33.6802 69.51 33.7202 68.47 33.6902C68.09 33.6902 67.94 33.8402 67.87 34.1902C67.69 35.0502 67.46 35.8902 67.27 36.7402C67.17 37.1902 66.97 37.3902 66.47 37.3902H65.34C64.78 37.3902 64.69 37.1602 64.81 36.6902C65.76 33.1102 66.68 29.5202 67.64 25.9402C67.94 24.7902 68.74 24.2802 70.03 24.2902C71.31 24.2902 72.07 24.8202 72.39 25.9902C73.34 29.5502 74.26 33.1102 75.19 36.6802C75.34 37.1902 75.19 37.4502 74.63 37.3802C74.44 37.3702 74.26 37.3602 74.08 37.3702ZM71.57 31.7202C71.14 29.9902 70.74 28.3102 70.31 26.6202C70.2487 26.4866 70.1374 26.3824 70 26.3302C69.95 26.3102 69.76 26.4802 69.74 26.5902L68.46 31.7202H71.56H71.57Z" fill="black" fill-opacity="0.8"/>
<path d="M87.4 35.43C87.4 33.98 87.42 32.64 87.39 31.31C87.37 30.74 87.56 30.57 88.12 30.58C90.12 30.64 89.77 30.31 89.79 32.26C89.81 33.67 89.79 35.08 89.81 36.49C89.81 36.98 89.48 37.26 89.16 37.29C87.84 37.35 86.53 37.55 85.22 37.49C83.03 37.37 81.37 35.76 81.12 33.35C80.95 31.57 80.98 29.78 81.22 28.01C81.52 25.67 83.34 24.24 85.7 24.27C86.85 24.28 88 24.45 89.15 24.52C89.54 24.52 89.79 24.78 89.79 25.29C89.77 25.48 89.79 25.65 89.79 25.85C89.79 26.35 89.63 26.51 89.13 26.48C88.08 26.41 87.02 26.38 85.96 26.36C84.66 26.34 83.75 26.92 83.63 28.21C83.4699 29.9864 83.4699 31.7736 83.63 33.55C83.76 34.87 84.68 35.44 86.02 35.43H87.4Z" fill="black"/>
<path fill-rule="evenodd" clip-rule="evenodd" d="M97.39 31.0801V30.5501C97.32 29.6601 97.01 29.3201 96.11 29.3001C95.4832 29.2898 94.8562 29.2998 94.23 29.3301L93.36 29.3601C93.1709 29.362 92.9875 29.2951 92.844 29.1718C92.7005 29.0486 92.6067 28.8774 92.58 28.6901C92.44 27.6901 92.68 27.5801 93.96 27.4901C95.06 27.4201 96.17 27.3701 97.25 27.5301C98.73 27.7301 99.62 28.8101 99.65 30.3101C99.68 31.6901 99.68 33.0701 99.67 34.4501V36.8101C99.67 37.2301 99.64 37.3901 99.36 37.3801L97.95 37.4301H97.75C97.43 37.4501 97.39 37.4501 97.39 36.9101C96.56 37.3501 95.25 37.7101 94.06 37.4301C92.84 37.1301 92.16 36.3601 92.04 35.1301C91.89 33.4301 92.34 32.3701 93.59 31.9101C94.2393 31.7012 94.9103 31.567 95.59 31.5101L95.85 31.4701C96.19 31.4301 96.53 31.4401 96.9 31.4501H97.38V31.0801H97.39ZM96.77 33.0301H97.39V34.8301C97.39 34.9201 97.38 35.0101 97.34 35.1001C97.14 35.4801 95.68 35.8001 95.02 35.6301C94.33 35.4601 94.29 34.9301 94.32 34.3601C94.35 33.5501 94.71 33.1501 95.59 33.0501C95.97 33.0101 96.35 33.0201 96.77 33.0301ZM102.36 27.2401C102.12 27.2401 101.93 27.4401 101.93 27.6701V28.3201C101.96 30.1901 101.95 32.0601 101.95 33.9201V35.9401C101.95 36.7501 101.9 37.1101 102.05 37.2601C102.21 37.4201 102.58 37.3701 103.43 37.4001C104.04 37.4201 104.25 37.2201 104.24 36.6001C104.22 35.1801 104.22 33.7601 104.23 32.3501V30.5201C104.23 30.3201 104.23 30.0801 104.33 29.9301C104.62 29.5301 105.89 29.2301 106.37 29.4001C107.02 29.6501 107.02 30.2301 107.02 30.7601V33.3801L107.03 35.8401C107.03 36.7201 106.98 37.1001 107.13 37.2601C107.3 37.4201 107.67 37.3701 108.56 37.4001C109.16 37.4101 109.33 37.2001 109.32 36.6201C109.3 34.9601 109.3 33.3001 109.3 31.6401V30.2701C109.3 30.0801 109.33 29.7701 109.44 29.7201C110.13 29.3901 110.86 29.1601 111.61 29.4601C112.19 29.7001 112.2 30.2501 112.21 30.7401V33.6801L112.22 35.8101C112.23 36.7101 112.16 37.1001 112.32 37.2601C112.48 37.4301 112.88 37.3701 113.85 37.3901C114.34 37.4001 114.51 37.2201 114.51 36.7301V34.1101C114.51 32.9101 114.51 31.7101 114.49 30.5201C114.43 28.0601 113.07 26.9901 110.64 27.4201L110.48 27.4501C110.28 27.5001 110.08 27.5701 109.88 27.6501L109.68 27.7201C109.4 27.8201 109.08 27.9001 108.88 27.9401L108.63 27.8201C108.33 27.6701 108.19 27.5901 107.68 27.4201C107.199 27.3261 106.71 27.2859 106.22 27.3001C105.25 27.3201 105.12 27.4101 104.48 27.8401L104.34 27.9401V27.6801C104.343 27.6233 104.334 27.5665 104.314 27.5132C104.294 27.4599 104.264 27.4112 104.224 27.3701C104.185 27.3289 104.138 27.2962 104.086 27.2739C104.033 27.2515 103.977 27.24 103.92 27.2401H102.36ZM117.09 23.9601C117.033 23.9587 116.977 23.9689 116.924 23.99C116.871 24.0111 116.823 24.0428 116.783 24.083C116.743 24.1232 116.711 24.1711 116.69 24.2239C116.669 24.2767 116.659 24.3332 116.66 24.3901V25.7901C116.66 26.0301 116.86 26.2201 117.09 26.2201H118.61C118.85 26.2201 119.04 26.0301 119.04 25.8001V24.3901C119.041 24.3332 119.031 24.2767 119.01 24.2239C118.989 24.1711 118.957 24.1232 118.917 24.083C118.877 24.0428 118.829 24.0111 118.776 23.99C118.723 23.9689 118.667 23.9587 118.61 23.9601H117.09ZM116.67 31.2101V35.9401C116.67 36.7601 116.63 37.1101 116.77 37.2601C116.94 37.4201 117.31 37.3701 118.18 37.4001C118.88 37.4301 119.04 37.1701 119.03 36.5401C119.012 35.1068 119.008 33.6734 119.02 32.2401V29.0601C119.01 28.1801 119.08 27.8001 118.92 27.6301C118.76 27.4601 118.36 27.5201 117.39 27.4901C116.79 27.4801 116.65 27.7101 116.66 28.2401C116.68 29.2401 116.68 30.2201 116.67 31.2101ZM121.42 27.8701V36.8301H121.43C121.43 37.0501 121.46 37.1801 121.54 37.2601C121.66 37.3801 121.9 37.3901 122.38 37.3901L122.94 37.4001C123.59 37.4201 123.74 37.1801 123.73 36.5801V30.0201C123.85 29.6201 124.13 29.4101 124.62 29.2701L124.85 29.2001L125.15 29.1001C126.6 28.7801 127.2 29.5201 127.22 31.0001V36.8801C127.22 37.1801 127.47 37.4401 127.78 37.4401H129.08C129.31 37.4401 129.5 37.2401 129.5 37.0101V34.5101C129.51 33.0501 129.51 31.5801 129.44 30.1201C129.34 28.2201 128.29 27.3101 126.39 27.3901C125.78 27.4201 125.17 27.5701 124.55 27.7201L123.74 27.9201V27.8701C123.74 27.8141 123.729 27.7586 123.707 27.707C123.685 27.6554 123.654 27.6086 123.613 27.5695C123.573 27.5304 123.526 27.4996 123.474 27.4791C123.422 27.4586 123.366 27.4488 123.31 27.4501H121.85C121.794 27.4488 121.738 27.4586 121.686 27.4791C121.634 27.4996 121.587 27.5304 121.547 27.5695C121.506 27.6086 121.475 27.6554 121.453 27.707C121.431 27.7586 121.42 27.8141 121.42 27.8701Z" fill="black"/>
<path fill-rule="evenodd" clip-rule="evenodd" d="M44.35 16.9599C44.201 16.3969 43.9201 15.8775 43.5306 15.4445C43.1411 15.0115 42.6542 14.6774 42.11 14.4699C42.0385 14.4258 41.9611 14.3921 41.88 14.3699L41.76 14.3399C41.59 14.2799 41.41 14.2399 41.22 14.1899L20.75 8.63991C19.5016 8.29996 18.1743 8.3988 16.99 8.91991L3.59001 14.8199C3.30001 14.9499 3.09001 15.1499 2.95001 15.3799L2.36001 15.3699C1.16001 16.1699 -0.299994 17.4199 0.0600061 21.8699L0.200006 44.4499V44.6799C0.239788 45.1602 0.42322 45.6173 0.726426 45.9919C1.02963 46.3664 1.43857 46.641 1.90001 46.7799L9.70001 49.1799L21.86 53.5299C24.64 54.6499 28.31 55.0599 31.56 52.4599L31.62 52.3999L41.7 44.4199C42.3494 43.9055 42.8778 43.2545 43.2476 42.5131C43.6174 41.7718 43.8197 40.9581 43.84 40.1299L44.4 17.2399C44.4027 17.1441 44.3857 17.0488 44.35 16.9599ZM6.48001 24.1999L5.78001 23.9799C5.6656 23.9442 5.54858 23.9174 5.43001 23.8999C4.65001 23.7999 4.23001 24.2499 4.23001 25.1499L4.25001 25.5099L4.26001 25.6499L4.30001 26.3199L4.80001 36.4299V36.5699L4.90001 38.7499V38.9999L5.09001 42.6299V42.8599C5.13001 43.3599 5.23001 43.8599 5.77001 44.0699L6.21001 44.2399C7.25001 44.6399 8.3 45.0099 9.36001 45.3399C10.16 45.5699 10.7 45.0999 10.72 44.2799C10.72 44.0299 10.72 43.7799 10.7 43.5299C10.5284 37.8768 10.3651 32.2235 10.21 26.5699C10.19 25.5899 9.61001 25.0899 9.33001 24.9499L9.15001 24.9199C8.22001 24.7299 7.35001 24.4599 6.48001 24.1999ZM17.7 35.7299C18.84 34.4299 19.93 33.0999 21.02 31.7699L22.03 30.5299C22.57 29.8699 22.5 29.4999 21.7 29.2299C20.6 28.8699 19.48 28.5299 18.36 28.1899L17.06 27.7899C16.9269 27.7504 16.7888 27.7302 16.65 27.7299C16.25 27.7299 15.95 27.9299 15.68 28.3199C14.34 30.2199 12.99 32.1199 11.63 34.0099C11.01 34.8599 10.86 35.6899 11.37 36.6899C13.09 40.0799 14.76 43.4999 16.42 46.9199C16.5987 47.3059 16.8526 47.6524 17.1668 47.9392C17.4811 48.2259 17.8493 48.4472 18.25 48.5899L21.65 49.8299L22.02 49.9599C22.1844 50.0039 22.3514 50.0373 22.52 50.0599C22.5939 50.0623 22.6678 50.0556 22.74 50.0399C23 49.9799 23.09 49.7799 23.01 49.4699C22.9227 49.1786 22.8054 48.8971 22.66 48.6299L17.43 38.2399C16.97 37.3199 16.99 36.5399 17.7 35.7299ZM37.27 38.9299C36.49 39.5099 35.73 40.0599 34.99 40.6299C34.87 40.7299 34.83 40.9299 34.8 41.1299V41.1699L34.79 41.2099L34.62 42.1599C34.37 43.5799 34.12 44.9899 33.89 46.4099C33.8506 46.7608 33.7343 47.0987 33.5494 47.3994C33.3644 47.7002 33.1154 47.9564 32.82 48.1499L32.32 48.5299C32.1138 48.7006 31.8967 48.8576 31.67 48.9999C31.37 49.1499 30.97 48.9499 30.93 48.6199C30.9193 48.547 30.9193 48.4729 30.93 48.3999C31.0724 47.554 31.2291 46.7105 31.4 45.8699L31.59 44.9399L35.06 26.8899C35.27 25.7999 36.66 24.5999 37.78 24.5699C38.29 24.5499 38.62 24.7599 38.72 25.3099C39.64 30.3099 40.58 35.3299 41.52 40.3399C41.62 40.9099 41.49 41.3399 41.02 41.6899L40.32 42.2499C40.08 42.4499 39.84 42.6499 39.59 42.8299C39.08 43.2099 38.93 43.1499 38.82 42.5299C38.62 41.3799 38.42 40.2299 38.24 39.0899L38.19 38.7699L38.13 38.5299L38.08 38.3299L37.28 38.9299H37.27ZM35.73 35.3999L35.93 35.5199L36.31 35.2599C36.65 35.0399 36.98 34.8199 37.27 34.5599C37.365 34.4608 37.4382 34.3428 37.4847 34.2136C37.5312 34.0844 37.5501 33.9469 37.54 33.8099C37.39 32.6899 37.21 31.5799 37.03 30.4699L36.89 29.6399H36.76L35.73 35.3999ZM33.36 17.2199C35.59 17.2199 37.4 16.3599 37.4 15.3099C37.4 14.2499 35.59 13.3999 33.36 13.3999C31.13 13.3999 29.32 14.2499 29.32 15.2999C29.32 16.3599 31.12 17.2199 33.36 17.2199ZM26.19 15.3099C26.19 16.3599 24.39 17.2099 22.15 17.2099C19.92 17.2099 18.11 16.3599 18.11 15.3099C18.11 14.2499 19.92 13.3999 22.15 13.3999C24.38 13.3999 26.19 14.2499 26.19 15.2999V15.3099ZM10.94 17.2099C13.18 17.2099 14.98 16.3599 14.98 15.3099C14.98 14.2499 13.18 13.3999 10.94 13.3999C8.71 13.3999 6.91001 14.2499 6.91001 15.2999C6.91001 16.3599 8.71001 17.2199 10.95 17.2199L10.94 17.2099Z" fill="black" fill-opacity="0.8"/>
<path fill-rule="evenodd" clip-rule="evenodd" d="M3.29 18.6C2.93171 18.4907 2.55282 18.4668 2.18365 18.5303C1.81447 18.5937 1.46527 18.7426 1.16398 18.9652C0.862694 19.1878 0.617683 19.4778 0.448557 19.812C0.27943 20.1462 0.190884 20.5154 0.190002 20.89V44.54C0.190655 45.0412 0.348198 45.5296 0.640528 45.9367C0.932857 46.3438 1.3453 46.6492 1.82 46.81L23.14 53.92C23.4979 54.0395 23.8789 54.0729 24.2522 54.0176C24.6254 53.9623 24.9804 53.8197 25.2882 53.6015C25.596 53.3833 25.8481 53.0956 26.0239 52.7617C26.1997 52.4279 26.2943 52.0572 26.3 51.68L26.68 27.59C26.6874 27.0698 26.5257 26.5613 26.2191 26.1411C25.9124 25.7209 25.4776 25.4116 24.98 25.26L3.28 18.59L3.29 18.6ZM6.49 24.2L5.79 23.98C5.67236 23.9436 5.55197 23.9169 5.43 23.9C4.65 23.8 4.23 24.25 4.24 25.15C4.24 25.27 4.24 25.39 4.26 25.51V25.65L4.3 26.32L4.8 36.43V36.58L4.9 38.75L4.91 39L5.09 42.63V42.65L5.1 42.86C5.14 43.36 5.23 43.86 5.77 44.07C6.95709 44.526 8.15763 44.9462 9.37 45.33C10.16 45.57 10.7 45.1 10.72 44.28C10.73 44.03 10.72 43.78 10.7 43.53L10.69 43.15C10.52 37.62 10.36 32.1 10.21 26.57C10.19 25.59 9.61 25.09 9.33 24.95L9.15 24.92C8.23 24.73 7.35 24.46 6.48 24.2H6.49ZM17.7 35.73C18.84 34.43 19.93 33.1 21.02 31.77L22.04 30.53C22.57 29.87 22.5 29.5 21.7 29.23C20.6 28.87 19.48 28.53 18.36 28.19L17.06 27.79C16.9301 27.7514 16.7955 27.7312 16.66 27.73C16.26 27.73 15.96 27.93 15.68 28.32C14.3464 30.2282 12.9963 32.125 11.63 34.01C11.01 34.86 10.87 35.69 11.37 36.69C13.0827 40.087 14.7694 43.4971 16.43 46.92C16.6076 47.305 16.8599 47.651 17.1724 47.9376C17.4848 48.2243 17.8511 48.4461 18.25 48.59L21.65 49.83L22.02 49.96C22.1843 50.0041 22.3513 50.0375 22.52 50.06C22.61 50.06 22.68 50.06 22.74 50.04C23 49.98 23.09 49.78 23.01 49.47C22.92 49.17 22.81 48.89 22.66 48.63L17.43 38.24C16.97 37.33 16.99 36.54 17.7 35.73Z" fill="black" fill-opacity="0.5"/>
<path fill-rule="evenodd" clip-rule="evenodd" d="M2.50001 15.2999C2.31652 15.3836 2.16298 15.5214 2.05993 15.6947C1.95687 15.8681 1.90923 16.0688 1.92336 16.27C1.9375 16.4712 2.01275 16.6633 2.13903 16.8205C2.26532 16.9777 2.43662 17.0927 2.63001 17.1499L21.86 22.6799C24.58 23.4599 27.48 23.1899 30.01 21.9299L40.7 16.6099C40.9596 16.4857 41.1746 16.2846 41.3158 16.0339C41.457 15.7832 41.5175 15.495 41.4891 15.2087C41.4606 14.9224 41.3447 14.6517 41.157 14.4337C40.9693 14.2156 40.7189 14.0606 40.44 13.9899L20.74 8.63991C19.4916 8.29996 18.1643 8.3988 16.98 8.91991L2.50001 15.2999ZM33.36 17.2199C35.59 17.2199 37.4 16.3599 37.4 15.3099C37.4 14.2499 35.59 13.3999 33.36 13.3999C31.13 13.3999 29.32 14.2499 29.32 15.2999C29.32 16.3599 31.12 17.2199 33.36 17.2199ZM26.19 15.3099C26.19 16.3599 24.39 17.2099 22.15 17.2099C19.92 17.2099 18.11 16.3599 18.11 15.3099C18.11 14.2499 19.91 13.3999 22.15 13.3999C24.38 13.3999 26.19 14.2499 26.19 15.2999V15.3099ZM10.95 17.2099C13.18 17.2099 14.99 16.3599 14.99 15.3099C14.99 14.2499 13.18 13.3999 10.95 13.3999C8.71001 13.3999 6.91001 14.2499 6.91001 15.2999C6.91001 16.3599 8.71001 17.2199 10.95 17.2199V17.2099ZM43.32 16.6199C43.4279 16.5526 43.552 16.516 43.6791 16.5139C43.8062 16.5118 43.9315 16.5444 44.0414 16.6082C44.1514 16.6719 44.242 16.7644 44.3034 16.8757C44.3648 16.987 44.3947 17.1129 44.39 17.2399L43.82 40.1399C43.7994 40.9656 43.598 41.7768 43.23 42.5163C42.862 43.2558 42.3363 43.9056 41.69 44.4199L31.59 52.4199C31.2752 52.6706 30.8955 52.8264 30.4954 52.8693C30.0952 52.9121 29.6911 52.8402 29.3304 52.6619C28.9696 52.4836 28.667 52.2063 28.458 51.8624C28.249 51.5185 28.1422 51.1223 28.15 50.7199L28.62 29.0199C28.6451 27.9278 28.945 26.8596 29.4921 25.914C30.0391 24.9684 30.8157 24.176 31.75 23.6099L43.32 16.6099V16.6199ZM37.27 38.9199L38.09 38.3299L38.14 38.5299L38.19 38.7799L38.24 39.0899L38.82 42.5299C38.92 43.1599 39.08 43.2099 39.59 42.8299C39.84 42.6499 40.09 42.4499 40.33 42.2499C40.56 42.0499 40.8 41.8699 41.03 41.6899C41.5 41.3399 41.63 40.9099 41.52 40.3399L38.72 25.3099C38.62 24.7599 38.3 24.5499 37.79 24.5699C36.66 24.5999 35.28 25.7999 35.07 26.8899L31.59 44.9399L31.41 45.8699C31.2357 46.7105 31.0757 47.5539 30.93 48.3999C30.9193 48.4729 30.9193 48.547 30.93 48.6199C30.98 48.9599 31.37 49.1499 31.67 48.9999L31.82 48.9199C32 48.7999 32.16 48.6699 32.32 48.5299L32.82 48.1499C33.46 47.7299 33.78 47.1599 33.89 46.4199C34.12 44.9899 34.37 43.5799 34.62 42.1599L34.79 41.2099L34.81 41.1199C34.84 40.9399 34.87 40.7199 34.99 40.6299C35.73 40.0599 36.49 39.5099 37.27 38.9299V38.9199ZM35.93 35.5199L35.73 35.3999L36.76 29.6299L36.9 29.6399L37.03 30.4699C37.21 31.5799 37.4 32.6899 37.55 33.8099C37.5573 33.9459 37.5362 34.082 37.488 34.2094C37.4398 34.3368 37.3656 34.4528 37.27 34.5499C36.98 34.8199 36.65 35.0399 36.32 35.2499C36.19 35.3499 36.05 35.4299 35.92 35.5199H35.93Z" fill="black"/>
</svg>
