<svg width="128" height="60" viewBox="0 0 128 60" fill="none" xmlns="http://www.w3.org/2000/svg">
<path d="M65.6457 52.2216V9.63379H66.9398V17.8293H83.1869V22.8328H70.678V28.354H81.3753V33.3576H70.678V39.0657H83.1869V44.0261H66.9398V52.2216H65.6457ZM16.329 33.8896V17.8293H21.7927V44.0261H16.861L10.3191 34.2059L6.26444 27.9227V44.0261H0.800781V17.8293H5.71808L5.78997 17.9155L11.7137 26.758L16.3146 33.8896H16.329ZM24.8696 44.0261H42.8565V39.0657H30.3476V33.3576H41.0449V28.354H30.362V22.8328H42.8709V17.8293H24.8696V44.0261ZM51.3539 22.8616H45.0707V17.8293H63.1008V22.8616H56.8464V44.0261H51.3683V22.8616H51.3539ZM101.447 33.9471L96.8317 26.8012L90.908 17.9587L90.8504 17.8724H85.9332V44.0692H91.3968V27.9658L95.4514 34.2346L101.965 44.0692H106.911V17.8724H101.433V33.9471H101.447ZM109.168 22.9047V17.8724H127.198V22.9047H120.944V44.0836H115.48V22.9047H109.154H109.168Z" fill="black"/>
</svg>
