<svg width="128" height="60" viewBox="0 0 128 60" fill="none" xmlns="http://www.w3.org/2000/svg">
<g clip-path="url(#clip0_252_517)">
<path d="M35.8461 21.8399C35.8461 21.9541 35.8918 22.0683 35.9603 22.1825H39.5917C39.7744 22.1825 39.8201 22.1483 39.7973 21.977C39.7973 21.8399 39.7744 21.7143 39.7516 21.5773C39.4612 19.7319 38.6216 18.0166 37.342 16.6554C36.2001 15.4564 34.7155 14.5999 33.0711 14.2231C30.8995 13.6881 28.6267 13.7195 26.4706 14.3144C24.6349 14.8114 23.0187 15.9089 21.8799 17.432C20.8942 18.7583 20.2651 20.3153 20.0528 21.9541C20.03 22.1483 20.0642 22.1825 20.2812 22.1825H23.7527C23.9469 22.1825 23.9583 22.1825 23.9925 21.9541C24.1569 21.0181 24.588 20.1493 25.2342 19.4524C25.8805 18.7555 26.7143 18.2601 27.6354 18.0258C29.3063 17.5963 31.0652 17.6517 32.7057 18.1857C33.508 18.4584 34.2227 18.9413 34.7749 19.584C35.3273 20.2267 35.6972 21.0057 35.8461 21.8399ZM97.6489 22.2053H99.2705L99.9556 22.1939H100.892C101.223 22.1939 101.235 22.1939 101.189 21.8856C101.027 20.2609 100.488 18.6966 99.613 17.3178C98.7142 15.8846 97.3397 14.8133 95.7304 14.2916C94.7348 13.9727 93.6921 13.826 92.6471 13.8576C91.0255 13.8805 89.4496 14.4286 88.182 15.4107C87.4247 15.9789 86.7519 16.6518 86.1836 17.4091C86.1676 17.4172 86.15 17.4213 86.1322 17.4213C86.1144 17.4213 86.0968 17.4172 86.0808 17.4091C86.0671 17.4003 86.0554 17.3887 86.0466 17.3749L85.8753 17.1579L85.7953 17.0551C85.3386 16.4613 84.8018 15.9132 84.1966 15.4335C82.9334 14.4204 81.3623 13.8686 79.743 13.8691C79.0692 13.8691 78.3955 13.9262 77.7331 14.0403C76.7117 14.2111 75.7361 14.5889 74.8661 15.1506C73.9962 15.7122 73.2502 16.4459 72.6742 17.3063C71.757 18.6983 71.1962 20.2944 71.0412 21.9541C71.0298 22.1483 71.0641 22.1939 71.2696 22.1939H74.5813C74.9353 22.1939 74.9467 22.1939 74.981 21.8742C75.0267 21.3717 75.1523 20.8807 75.3578 20.4239C75.6031 19.7868 76.0029 19.2206 76.5212 18.776C77.0394 18.3316 77.6599 18.0228 78.3269 17.8773C78.8979 17.7631 79.4689 17.7175 80.0399 17.7631C80.6635 17.778 81.2747 17.941 81.8227 18.2389C82.3708 18.5368 82.8401 18.9608 83.1917 19.4761C83.5914 20.0699 83.8769 20.7322 84.0253 21.4174L84.1052 21.8628L84.1281 22.0341C84.1281 22.0797 84.1509 22.114 84.1852 22.1483C84.2194 22.1825 84.2651 22.1939 84.2994 22.1939H87.9194C87.9442 22.1977 87.9695 22.1954 87.9934 22.1875C88.0171 22.1795 88.0387 22.1662 88.0564 22.1483C88.0712 22.1332 88.0828 22.1154 88.0907 22.0957C88.0986 22.0762 88.1024 22.0552 88.1021 22.0341V22.0226L88.1135 21.8513C88.182 21.3032 88.3419 20.7551 88.5703 20.2412C88.7956 19.7103 89.1341 19.2349 89.5621 18.8483C89.9901 18.4618 90.4974 18.1732 91.0484 18.0029C91.8518 17.7476 92.7012 17.6696 93.5378 17.7746C95.0452 17.9573 96.1415 18.6995 96.7924 20.0585C97.0578 20.6396 97.2237 21.2611 97.2835 21.897C97.3063 22.2054 97.3405 22.2053 97.6375 22.2053H97.6489ZM30.456 41.4588C30.207 41.4487 29.9593 41.4997 29.7343 41.6071C29.5095 41.7146 29.3142 41.8754 29.1656 42.0754C28.8687 42.4865 28.7088 43.0575 28.7088 43.7884C28.7088 45.3186 29.2912 46.0723 30.456 46.0723C31.0652 46.0522 31.667 45.9325 32.2375 45.7183V46.9402C31.6208 47.1686 30.9813 47.2828 30.319 47.2828C29.3027 47.2828 28.5375 46.9858 28.0008 46.3692C27.4641 45.7754 27.2015 44.9075 27.2015 43.7769C27.1786 43.1375 27.3156 42.498 27.5897 41.9156C27.8295 41.4017 28.2292 40.9677 28.7317 40.6822C29.2456 40.3853 29.8508 40.2369 30.456 40.2597C31.1641 40.2597 31.8606 40.431 32.4887 40.7393L32.0205 41.9156C31.7579 41.8014 31.4952 41.6872 31.2326 41.5958C30.983 41.5076 30.7206 41.4613 30.456 41.4588ZM50.7601 47.1914V40.3511H52.2446V47.1914H50.7601ZM72.2517 47.1914H73.7248V41.5615H75.6091V40.3511H70.3561V41.5615H72.2517V47.1914ZM95.8903 43.1717L97.3405 40.3511H98.9393L96.6325 44.5306V47.1914H95.1822V44.5763L92.8755 40.3511H94.4742L95.9017 43.1717H95.8903ZM22.0284 23.256H23.7413C23.9469 23.256 23.9697 23.2902 23.9811 23.4843V24.4093C23.9925 25.0945 24.1296 25.7683 24.3694 26.3963C24.7234 27.3255 25.3365 28.1336 26.1361 28.7247C26.9357 29.3158 27.888 29.665 28.8801 29.7309C29.7937 29.8336 30.7187 29.7765 31.6208 29.5824C32.9218 29.3129 34.0776 28.5735 34.8676 27.5053C35.6577 26.4372 36.0263 25.1155 35.9032 23.7927V23.4501C35.9032 23.3016 35.9374 23.256 36.0745 23.256H39.6374C39.7858 23.256 39.8201 23.3016 39.8201 23.4501C40.0339 25.9 39.3207 28.341 37.8217 30.2904C36.7712 31.628 35.3367 32.6122 33.7106 33.1111C31.4948 33.7767 29.1415 33.8399 26.8931 33.2938C25.5551 32.9937 24.3092 32.3749 23.2615 31.4903C22.2137 30.6056 21.395 29.481 20.875 28.2121C20.447 27.2532 20.177 26.2312 20.0756 25.1859C20.03 24.7748 20.0414 24.3637 20.0414 23.9525C20.0477 23.7509 20.0514 23.5491 20.0528 23.3473C20.0612 23.3249 20.0751 23.3049 20.093 23.2891C20.1108 23.2732 20.1324 23.2618 20.1556 23.256H22.0284ZM4.22525 13.9604C5.30628 13.9528 6.38737 13.9528 7.46841 13.9604C9.50438 14.0085 11.4753 14.6867 13.1097 15.9017C14.5586 16.9968 15.5381 18.6006 15.8504 20.3896C15.9189 20.6751 15.9417 20.9606 15.976 21.2575C15.992 21.4824 16.0109 21.707 16.0331 21.9313C16.0331 22.1597 16.0103 22.1825 15.7819 22.1939H12.2646C12.2415 22.1996 12.2174 22.1996 12.1943 22.1939C12.1711 22.1882 12.1498 22.1771 12.1318 22.1615C12.1139 22.1457 12.1 22.126 12.0913 22.1038C12.0826 22.0817 12.0794 22.0578 12.0819 22.0341C12.0656 21.0697 11.7635 20.1318 11.214 19.339C10.5881 18.5403 9.68175 18.0096 8.67888 17.8545C8.32521 17.7859 7.96573 17.7514 7.60544 17.7517H4.08821C4.06694 17.75 4.04552 17.7531 4.0257 17.7611C4.00588 17.769 3.98818 17.7814 3.97402 17.7974C3.96206 17.8136 3.95381 17.8322 3.94986 17.852C3.94591 17.8717 3.94637 17.8921 3.95118 17.9116V21.7942C3.95118 22.0607 3.82175 22.1939 3.56291 22.1939H0.125616C0.109851 22.1923 0.0946022 22.1874 0.0808393 22.1795C0.0670776 22.1717 0.055103 22.161 0.0456784 22.1483C0.0241628 22.1272 0.011849 22.0985 0.0114196 22.0683V21.9199L0 21.76V14.3601C0 14.1545 0 14.0518 0.0456783 14.0061C0.102776 13.9604 0.194133 13.9604 0.388266 13.9604H4.22525ZM44.445 33.6478H50.3604L55.956 33.6249H56.3671C56.3857 33.6265 56.4043 33.6244 56.422 33.6184C56.4397 33.6126 56.4559 33.6031 56.4699 33.5907C56.4814 33.5786 56.4903 33.5642 56.4962 33.5485C56.5021 33.5328 56.5048 33.5161 56.5041 33.4993V30.1534C56.5041 29.9592 56.5041 29.8565 56.4584 29.8108C56.4128 29.7651 56.31 29.7651 56.1158 29.7651H48.6246C48.3962 29.7651 48.2934 29.7651 48.2477 29.708C48.2021 29.6623 48.2021 29.571 48.2021 29.3769V23.8384C48.1989 23.6707 48.1913 23.5032 48.1792 23.3359C48.1711 23.3198 48.1598 23.3054 48.1461 23.2938C48.1324 23.282 48.1164 23.273 48.0993 23.2674H44.6848C44.4793 23.256 44.3879 23.256 44.3423 23.3016C44.2851 23.3473 44.2852 23.4501 44.2852 23.6442V33.3623C44.2947 33.4306 44.3024 33.4992 44.308 33.5678C44.3161 33.5841 44.3274 33.5983 44.3411 33.6101C44.3548 33.6219 44.3707 33.6308 44.3879 33.6364L44.445 33.6478ZM121.093 13.8691H127.557L127.602 13.9033L127.637 13.949L127.648 14.0061V17.6489C127.648 17.6718 127.625 17.6832 127.614 17.6946C127.6 17.7071 127.584 17.7165 127.566 17.7224C127.549 17.7283 127.529 17.7305 127.511 17.7289H123.549C123.282 17.7289 123.149 17.8583 123.149 18.1171V21.977C123.149 22.1483 123.115 22.1711 122.92 22.1711H119.403C119.362 22.1749 119.321 22.1626 119.289 22.1368C119.27 22.1216 119.254 22.1021 119.243 22.0797C119.236 22.0615 119.233 22.0422 119.232 22.0226V21.8171L119.22 21.623V18.0486C119.209 17.7746 119.198 17.7517 118.901 17.7517H114.972C114.755 17.7517 114.653 17.7517 114.596 17.706C114.55 17.6604 114.55 17.5576 114.55 17.352V14.0175L114.561 13.9604C114.567 13.9418 114.578 13.9249 114.592 13.911C114.606 13.8971 114.623 13.8866 114.641 13.8805H115.098L121.093 13.8576V13.8691ZM106.065 23.6328V33.4194C106.065 33.6021 106.088 33.6364 106.259 33.6478H109.639C109.993 33.6478 109.993 33.6364 109.993 33.3052V23.4158C109.996 23.3955 109.994 23.3748 109.988 23.3552C109.982 23.3355 109.972 23.3173 109.959 23.3016C109.945 23.2848 109.928 23.271 109.908 23.2612C109.888 23.2514 109.867 23.2458 109.845 23.2445H106.453C106.195 23.2445 106.065 23.3473 106.065 23.5529V23.6328ZM97.3063 28.429V23.5529C97.3063 23.4044 97.3063 23.3245 97.352 23.2902C97.3976 23.2445 97.489 23.2445 97.6946 23.2445H101.12C101.136 23.2462 101.151 23.2512 101.165 23.259C101.179 23.2669 101.191 23.2775 101.2 23.2902C101.222 23.3113 101.234 23.3401 101.235 23.3701C101.232 23.4998 101.236 23.6293 101.246 23.7584V33.4765C101.246 33.6135 101.2 33.6478 101.04 33.6478H97.4319C97.4161 33.6462 97.4008 33.6413 97.3871 33.6334C97.3733 33.6255 97.3614 33.6149 97.352 33.6021C97.333 33.5839 97.3209 33.5597 97.3177 33.5336V33.328L97.3063 33.1339V28.429ZM88.1021 33.2024V23.5643L88.0907 23.3701C88.0902 23.3401 88.0779 23.3113 88.0564 23.2902C88.0353 23.2687 88.0066 23.2564 87.9765 23.256L87.7024 23.2445H84.5963C84.2994 23.2445 84.1547 23.3663 84.1623 23.61V33.5222C84.1623 33.5564 84.1852 33.5793 84.208 33.6021C84.2292 33.6237 84.2578 33.636 84.288 33.6364L84.5506 33.6478H87.7138C87.908 33.6478 88.0107 33.6478 88.0564 33.6021C88.1021 33.5564 88.1021 33.4536 88.1021 33.2709V33.2024ZM61.6543 28.4633V23.5871C61.6543 23.3587 61.7685 23.2445 61.9969 23.2445H65.4228C65.4458 23.2427 65.4689 23.2458 65.4906 23.2537C65.5123 23.2615 65.532 23.274 65.5484 23.2902C65.5637 23.3049 65.5757 23.3228 65.5836 23.3424C65.5915 23.3622 65.5951 23.3833 65.5941 23.4044V33.3851C65.5941 33.6135 65.5598 33.6364 65.32 33.6364H61.8485C61.6886 33.6364 61.6543 33.5907 61.6429 33.408V28.4633H61.6543ZM3.59717 33.4993C3.71137 33.5107 3.82556 33.4993 3.91692 33.4422C3.95222 33.312 3.96 33.1759 3.93976 33.0425V23.3816C3.93903 23.3539 3.9299 23.3271 3.91359 23.3046C3.89729 23.2822 3.87455 23.2652 3.8484 23.256L3.7913 23.2445H0.228392C0.0456783 23.2445 0 23.2674 0 23.4501V33.328C0 33.4422 0.0799371 33.4879 0.182713 33.4993H3.60859H3.59717ZM16.0445 28.5204V33.3965C16.0217 33.6249 16.0103 33.6478 15.7704 33.6478H12.3446C12.2989 33.6505 12.2532 33.6505 12.2075 33.6478C12.1918 33.6462 12.1765 33.6413 12.1628 33.6334C12.149 33.6255 12.1371 33.6149 12.1276 33.6021C12.1102 33.5794 12.102 33.5508 12.1048 33.5222C12.1061 33.4193 12.1022 33.3164 12.0933 33.2138V23.7813C12.0933 23.5224 12.2266 23.393 12.493 23.393H15.8275C15.9874 23.393 16.0217 23.4272 16.0331 23.61V28.5204H16.0445ZM71.0298 23.8041V33.408C71.0298 33.6021 71.0641 33.6364 71.2696 33.6364H74.7869C74.8081 33.6374 74.8292 33.6338 74.8489 33.626C74.8686 33.6181 74.8864 33.6061 74.9011 33.5907C74.9135 33.5769 74.9229 33.5605 74.9288 33.5428C74.9346 33.5252 74.9369 33.5065 74.9353 33.4879V23.4272C74.9239 23.2902 74.8782 23.256 74.7298 23.256H71.1669L71.1212 23.2674C71.0932 23.2773 71.0691 23.2959 71.0527 23.3207C71.0361 23.3454 71.0281 23.3748 71.0298 23.4044V23.8041ZM123.137 28.4975V33.2595C123.137 33.4536 123.137 33.5564 123.092 33.6021C123.046 33.6478 122.943 33.6478 122.761 33.6478H119.358C119.322 33.6439 119.29 33.6277 119.266 33.6021C119.241 33.578 119.224 33.5457 119.22 33.5107C119.211 33.4044 119.211 33.2974 119.22 33.191V23.6556C119.22 23.4501 119.22 23.3587 119.266 23.3131C119.312 23.256 119.415 23.256 119.609 23.256H122.624C122.761 23.2578 122.898 23.2653 123.035 23.2788L123.08 23.3131C123.092 23.3264 123.099 23.3421 123.103 23.3587V28.509H123.137V28.4975ZM110.005 21.9541V14.1089C109.993 13.9033 109.971 13.8805 109.754 13.8805H106.282C106.099 13.8805 106.077 13.9033 106.054 14.086V21.9655C106.077 22.1711 106.099 22.1939 106.305 22.1939H109.731C109.959 22.1939 110.005 22.1711 110.005 21.9541ZM61.6543 18.0372V14.2687C61.6543 14.0632 61.6543 13.9604 61.7 13.9262C61.7457 13.8691 61.8485 13.8691 62.0426 13.8691H65.2058L65.4685 13.8805C65.4987 13.8805 65.5279 13.8926 65.5492 13.9139C65.5707 13.9354 65.5827 13.9644 65.5827 13.9947V14.1545L65.5941 14.3144V21.8057C65.5941 21.9998 65.5941 22.1026 65.5484 22.1483C65.5027 22.2054 65.4 22.2053 65.1944 22.2053H62.0654L61.7571 22.1939C61.7269 22.1939 61.6977 22.1819 61.6764 22.1606C61.6549 22.1391 61.6429 22.1101 61.6429 22.0797V18.0372H61.6543ZM47.8138 22.2053C48.0726 22.2053 48.2021 22.0721 48.2021 21.8057V14.0632C48.2021 13.949 48.1564 13.8919 48.0422 13.8919H44.799C44.525 13.8919 44.3993 13.8805 44.3423 13.9376C44.2851 13.9947 44.2966 14.1203 44.2966 14.3944V22.0455C44.2933 22.0659 44.2947 22.0868 44.3007 22.1066C44.3066 22.1263 44.3169 22.1445 44.3308 22.1597C44.345 22.1757 44.3627 22.1881 44.3826 22.1961C44.4023 22.204 44.4238 22.2072 44.445 22.2053H47.8138Z" fill="#010101"/>
</g>
<defs>
<clipPath id="clip0_252_517">
<rect width="128" height="60" fill="white"/>
</clipPath>
</defs>
</svg>
