<svg width="120" height="60" viewBox="0 0 120 60" fill="none" xmlns="http://www.w3.org/2000/svg">
<g clip-path="url(#clip0_907_24)">
<path d="M0 28.0215C0 25.9302 0.311083 24.1797 0.948802 22.7545C1.41543 21.7011 2.05314 20.7716 2.86196 19.9351C3.67077 19.0986 4.55736 18.4944 5.52171 18.0917C6.81271 17.5495 8.29035 17.2861 9.97019 17.2861C13.0032 17.2861 15.4452 18.2311 17.2651 20.1055C19.0849 21.98 20.0026 24.598 20.0026 27.9441C20.0026 31.2592 19.1005 33.8617 17.2806 35.7361C15.4764 37.6105 13.0499 38.54 10.0169 38.54C6.95269 38.54 4.5107 37.6105 2.70642 35.7516C0.917693 33.8617 0 31.2901 0 28.0215ZM4.29294 27.8821C4.29294 30.2058 4.83733 31.9718 5.91057 33.1646C6.9838 34.3574 8.35256 34.9615 10.0169 34.9615C11.6811 34.9615 13.0344 34.3729 14.1076 33.1801C15.1653 31.9872 15.7097 30.2058 15.7097 27.8201C15.7097 25.4655 15.1964 23.715 14.1543 22.5531C13.1121 21.4068 11.7434 20.8181 10.0169 20.8181C8.29035 20.8181 6.92158 21.4068 5.87946 22.5841C4.82178 23.7459 4.29294 25.5274 4.29294 27.8821Z" fill="black"/>
<path d="M32.8814 38.1687V30.578C32.8814 28.9669 32.8036 27.929 32.6325 27.4643C32.4614 26.9995 32.197 26.6278 31.8081 26.3644C31.4348 26.1011 30.9682 25.9771 30.4394 25.9771C29.755 25.9771 29.1328 26.163 28.5884 26.5348C28.044 26.9066 27.6707 27.4023 27.4685 28.022C27.2663 28.6416 27.173 29.7725 27.173 31.4455V38.1842H23.2223V23.2817H26.893V25.4659C28.1996 23.7774 29.8328 22.9409 31.8237 22.9409C32.6947 22.9409 33.488 23.0958 34.219 23.4056C34.9345 23.7154 35.4945 24.1182 35.8522 24.5984C36.2255 25.0786 36.4744 25.6363 36.6299 26.256C36.7699 26.8756 36.8477 27.7586 36.8477 28.905V38.1687H32.8814Z" fill="black"/>
<path d="M40.8451 38.168V17.6267H44.7958V38.168H40.8451Z" fill="black"/>
<path d="M46.9734 23.2813H51.173L54.7505 33.8462L58.2501 23.2813H62.3409L57.068 37.6106L56.1192 40.1976C55.777 41.0651 55.4348 41.7312 55.1238 42.1805C54.8127 42.6452 54.4549 43.017 54.035 43.2958C53.6306 43.5747 53.1173 43.8071 52.5262 43.962C51.9352 44.1169 51.2508 44.1943 50.5042 44.1943C49.742 44.1943 48.9954 44.1169 48.2644 43.962L47.9067 40.8792C48.5288 41.0032 49.0888 41.0651 49.5865 41.0651C50.5042 41.0651 51.1886 40.8018 51.6241 40.2596C52.0596 39.7174 52.4018 39.0358 52.6351 38.1993L46.9734 23.2813Z" fill="black"/>
<path d="M64.7518 23.2817H68.4381V25.4659C68.9203 24.7223 69.558 24.1182 70.3824 23.638C71.1912 23.1732 72.1089 22.9409 73.1044 22.9409C74.8464 22.9409 76.3085 23.6225 77.5217 24.9702C78.735 26.3179 79.3416 28.2079 79.3416 30.6245C79.3416 33.1031 78.735 35.0395 77.5062 36.4182C76.293 37.7969 74.8153 38.4785 73.0733 38.4785C72.2489 38.4785 71.5023 38.3081 70.8335 37.9828C70.1646 37.6575 69.4492 37.0998 68.7181 36.2942V43.792H64.7674V23.2817H64.7518ZM68.6714 30.4696C68.6714 32.1426 68.9981 33.3819 69.6669 34.172C70.3357 34.9775 71.1446 35.3648 72.1089 35.3648C73.0266 35.3648 73.7887 34.993 74.3954 34.2649C75.002 33.5368 75.3131 32.3285 75.3131 30.6555C75.3131 29.0909 75.002 27.9445 74.3643 27.1854C73.7421 26.4264 72.9644 26.0546 72.0311 26.0546C71.0668 26.0546 70.258 26.4264 69.6202 27.1699C68.9825 27.9135 68.6714 29.0134 68.6714 30.4696Z" fill="black"/>
<path d="M82.4679 38.168V17.6267H86.4187V38.168H82.4679Z" fill="black"/>
<path d="M93.4336 27.8206L89.8406 27.1699C90.245 25.7293 90.9449 24.6604 91.9248 23.9788C92.9047 23.2817 94.3668 22.9409 96.3111 22.9409C98.0687 22.9409 99.3908 23.1422 100.246 23.5605C101.102 23.9788 101.724 24.5055 102.066 25.1406C102.424 25.7757 102.595 26.9531 102.595 28.6726L102.548 33.2735C102.548 34.5747 102.611 35.5507 102.735 36.1703C102.859 36.79 103.093 37.4561 103.45 38.1687H99.5463C99.4375 37.9053 99.313 37.518 99.173 37.0068C99.1108 36.7745 99.0642 36.6196 99.0331 36.5421C98.3642 37.1927 97.6332 37.6884 96.871 38.0138C96.1089 38.3391 95.2845 38.5095 94.4135 38.5095C92.8736 38.5095 91.6604 38.0912 90.7738 37.2547C89.8872 36.4182 89.4517 35.3648 89.4517 34.0945C89.4517 33.258 89.6539 32.4989 90.0583 31.8483C90.4627 31.1822 91.0227 30.6864 91.7537 30.3301C92.4848 29.9738 93.5269 29.6795 94.8957 29.4162C96.7466 29.0754 98.022 28.75 98.7375 28.4557V28.0684C98.7375 27.3094 98.5509 26.7672 98.1776 26.4574C97.8043 26.132 97.0888 25.9771 96.0467 25.9771C95.3467 25.9771 94.7868 26.1165 94.3979 26.3954C93.9935 26.6587 93.6824 27.139 93.4336 27.8206ZM98.722 31.0272C98.2087 31.1976 97.4154 31.399 96.3111 31.6314C95.2067 31.8638 94.4913 32.0961 94.1646 32.313C93.6513 32.6848 93.3869 33.134 93.3869 33.7072C93.3869 34.2649 93.5891 34.7296 94.0091 35.1324C94.429 35.5352 94.9423 35.7366 95.5801 35.7366C96.2955 35.7366 96.9799 35.5042 97.6176 35.0395C98.0998 34.6832 98.4109 34.2494 98.5664 33.7382C98.6753 33.3974 98.722 32.7623 98.722 31.8173V31.0272Z" fill="black"/>
<path d="M104.633 23.2813H108.832L112.41 33.8462L115.894 23.2813H120L114.727 37.6106L113.778 40.1976C113.436 41.0651 113.094 41.7312 112.783 42.1805C112.472 42.6452 112.114 43.017 111.694 43.2958C111.29 43.5747 110.776 43.8071 110.185 43.962C109.594 44.1169 108.91 44.1943 108.163 44.1943C107.401 44.1943 106.655 44.1169 105.924 43.962L105.566 40.8792C106.188 41.0032 106.748 41.0651 107.246 41.0651C108.163 41.0651 108.848 40.8018 109.283 40.2596C109.719 39.7174 110.061 39.0358 110.294 38.1993L104.633 23.2813Z" fill="black"/>
</g>
<defs>
<clipPath id="clip0_907_24">
<rect width="120" height="60" fill="white"/>
</clipPath>
</defs>
</svg>
