<svg width="125" height="61" viewBox="0 0 125 61" fill="none" xmlns="http://www.w3.org/2000/svg">
<g clip-path="url(#clip0_940_5)">
<path d="M27.5516 14.7168H24.8709V17.3975H27.5516V14.7168Z" fill="black"/>
<path d="M2.6807 17.7945H0V20.4752H2.6807V17.7945Z" fill="black"/>
<path d="M5.75853 42.6655H3.07783V45.3462H5.75853V42.6655Z" fill="black"/>
<path d="M21.3463 36.4601H18.6656V39.1408H21.3463V36.4601Z" fill="black"/>
<path fill-rule="evenodd" clip-rule="evenodd" d="M8.88602 14.7168H6.20532V17.3975H8.88602V14.7168ZM5.80818 14.7168H3.12748V17.3975H5.80818V14.7168ZM9.3328 17.3975H12.0135V14.7168H9.3328V17.3975ZM15.141 14.7168H12.4603V17.3975H15.141V14.7168ZM18.2188 14.7168H15.5381V17.3975H18.2188V14.7168ZM24.4241 14.7168H21.7435V17.3975H24.4241V14.7168ZM3.07784 20.525H5.75854V17.8443H3.07784V20.525ZM0 23.6028H2.6807V20.9221H0V23.6028ZM3.07784 23.6028H5.75854V20.9221H3.07784V23.6028ZM0 26.7303H2.6807V24.0496H0V26.7303ZM3.07784 26.7303H5.75854V24.0496H3.07784V26.7303ZM0 29.8578H2.6807V27.1771H0V29.8578ZM3.07784 29.8578H5.75854V27.1771H3.07784V29.8578ZM0 32.9356H2.6807V30.2549H0V32.9356ZM3.07784 32.9356H5.75854V30.2549H3.07784V32.9356ZM0 36.0631H2.6807V33.3824H0V36.0631ZM3.07784 36.0631H5.75854V33.3824H3.07784V36.0631ZM0 39.1409H2.6807V36.4602H0V39.1409ZM3.07784 39.1409H5.75854V36.4602H3.07784V39.1409ZM6.20532 36.0631H8.88602V33.3824H6.20532V36.0631ZM6.20532 39.1409H8.88602V36.4602H6.20532V39.1409ZM9.3328 36.0631H12.0135V33.3824H9.3328V36.0631ZM9.3328 39.1409H12.0135V36.4602H9.3328V39.1409ZM12.4106 36.0631H15.0913V33.3824H12.4106V36.0631ZM12.4106 39.1409H15.0913V36.4602H12.4106V39.1409ZM15.5381 36.0631H18.2188V33.3824H15.5381V36.0631ZM15.5381 39.1409H18.2188V36.4602H15.5381V39.1409ZM21.7435 36.0631H24.4241V33.3824H21.7435V36.0631ZM0 42.2684H2.6807V39.5877H0V42.2684ZM0 45.3959H2.6807V42.7152H0V45.3959ZM3.07784 42.2684H5.75854V39.5877H3.07784V42.2684ZM6.20532 20.525H8.88602V17.8443H6.20532V20.525ZM9.3328 20.525H12.0135V17.8443H9.3328V20.525ZM12.4106 20.525H15.0913V17.8443H12.4106V20.525ZM15.5381 20.525H18.2188V17.8443H15.5381V20.525ZM18.6656 17.3975H21.3463V14.7168H18.6656V17.3975ZM18.6656 36.0631H21.3463V33.3824H18.6656V36.0631ZM18.6656 20.525H21.3463V17.8443H18.6656V20.525ZM21.7435 20.525H24.4241V17.8443H21.7435V20.525ZM24.8709 20.525H27.5516V17.8443H24.8709V20.525ZM21.7435 23.6028H24.4241V20.9221H21.7435V23.6028ZM24.8709 23.6028H27.5516V20.9221H24.8709V23.6028ZM27.9488 20.9221V23.6028H30.6295V20.9221H27.9488ZM24.8709 26.7303H27.5516V24.0496H24.8709V26.7303ZM27.9488 26.7303H30.6295V24.0496H27.9488V26.7303ZM24.8709 29.8578H27.5516V27.1771H24.8709V29.8578ZM27.9488 29.8578H30.6295V27.1771H27.9488V29.8578ZM24.8709 32.9356H27.5516V30.2549H24.8709V32.9356ZM24.8709 36.0631H27.5516V33.3824H24.8709V36.0631ZM21.7435 32.9356H24.4241V30.2549H21.7435V32.9356ZM27.9488 32.9356H30.6295V30.2549H27.9488V32.9356Z" fill="black"/>
<path fill-rule="evenodd" clip-rule="evenodd" d="M36.7852 26.7303H39.4659V24.0496H36.7852V26.7303ZM36.7852 29.8578H39.4659V27.1771H36.7852V29.8578ZM36.7852 32.9356H39.4659V30.2549H36.7852V32.9356ZM36.7852 36.0631H39.4659V33.3824H36.7852V36.0631ZM36.7852 39.1409H39.4659V36.4602H36.7852V39.1409ZM39.9126 23.6028H42.5933V20.9221H39.9126V23.6028ZM39.9126 20.525H42.5933V17.8443H39.9126V20.525ZM43.0401 23.6028H45.7208V20.9221H43.0401V23.6028ZM43.0401 20.525H45.7208V17.8443H43.0401V20.525ZM48.8483 17.7946H46.1676V20.4753H48.8483V17.7946ZM46.118 17.3975H48.7987V14.7168H46.118V17.3975ZM49.2454 20.525H51.9261V17.8443H49.2454V20.525ZM49.2454 17.3975H51.9261V14.7168H49.2454V17.3975ZM52.3233 20.525H55.004V17.8443H52.3233V20.525ZM55.0536 14.7168H52.3233V17.3975H55.004V14.7168H55.0536ZM58.1315 17.7946H55.4508V20.4753H58.1315V17.7946ZM55.4508 17.3975H58.1315V14.7168H55.4508V17.3975ZM39.9126 26.7303H42.5933V24.0496H39.9126V26.7303ZM39.9126 29.8578H42.5933V27.1771H39.9126V29.8578ZM39.9126 32.9356H42.5933V30.2549H39.9126V32.9356ZM52.3233 29.8578H55.004V27.1771H52.3233V29.8578ZM52.3233 32.9356H55.004V30.2549H52.3233V32.9356ZM58.1315 27.1274H55.4508V29.8081H58.1315V27.1274ZM58.1315 30.2549H55.4508V32.9356H58.1315V30.2549ZM58.5783 29.8578H61.2589V27.1771H58.5783V29.8578ZM58.5783 32.9356H61.2589V30.2549H58.5783V32.9356ZM58.5783 39.1409H61.2589V36.4602H58.5783V39.1409ZM61.6561 29.8578H64.3368V27.1771H61.6561V29.8578ZM61.6561 32.9356H64.3368V30.2549H61.6561V32.9356ZM58.5783 20.525H61.2589V17.8443H58.5783V20.525ZM58.5783 23.6028H61.2589V20.9221H58.5783V23.6028ZM61.6561 20.525H64.3368V17.8443H61.6561V20.525ZM61.6561 23.6028H64.3368V20.9221H61.6561V23.6028ZM39.9126 36.0631H42.5933V33.3824H39.9126V36.0631ZM39.9126 39.1409H42.5933V36.4602H39.9126V39.1409ZM43.0401 39.1409H45.7208V36.4602H43.0401V39.1409ZM43.0401 42.2684H45.7208V39.5877H43.0401V42.2684ZM43.0401 45.3959H45.7208V42.7152H43.0401V45.3959ZM48.8483 39.5877H46.1676V42.2684H48.8483V39.5877ZM46.118 45.3959H48.7987V42.7152H46.118V45.3959ZM49.2454 42.2684H51.9261V39.5877H49.2454V42.2684ZM49.2454 45.3959H51.9261V42.7152H49.2454V45.3959ZM52.3233 42.2684H55.004V39.5877H52.3233V42.2684ZM52.3729 45.3959H55.0536V42.7152H52.3729V45.3959ZM58.1315 39.5877H55.4508V42.2684H58.1315V39.5877ZM55.4508 45.3959H58.1315V42.7152H55.4508V45.3959ZM58.5783 42.2684H61.2589V39.5877H58.5783V42.2684ZM61.6561 42.2684H64.3368V39.5877H61.6561V42.2684ZM61.6561 36.0631H64.3368V33.3824H61.6561V36.0631ZM61.6561 39.1409H64.3368V36.4602H61.6561V39.1409ZM64.7836 30.2549V32.9356H67.4643V30.2549H64.7836ZM64.7836 36.0631H67.4643V33.3824H64.7836V36.0631Z" fill="black"/>
<path d="M39.4659 20.9221H36.7852V23.6028H39.4659V20.9221Z" fill="black"/>
<path d="M45.7208 14.7168H43.0401V17.3975H45.7208V14.7168Z" fill="black"/>
<path d="M42.5933 39.5878H39.9126V42.2685H42.5933V39.5878Z" fill="black"/>
<path d="M61.2589 42.6655H58.5782V45.3462H61.2589V42.6655Z" fill="black"/>
<path d="M67.4643 27.1274H64.7836V29.8081H67.4643V27.1274Z" fill="black"/>
<path d="M67.4643 36.4601H64.7836V39.1408H67.4643V36.4601Z" fill="black"/>
<path d="M78.8324 14.7168H73.5703V23.1064H75.6553V19.9789H78.7828V18.8868H79.8252V15.7593H78.7828V14.7168H78.8324ZM77.7899 17.8443H75.7049V16.8018H77.7899V17.8443ZM82.0095 23.1064H86.1795V22.0639H87.222V15.7593H86.1795V14.7168H82.0095V15.7593H80.967V22.0639H82.0095V23.1064ZM83.052 16.8018H85.137V21.0214H83.052V16.8018ZM89.3566 23.1064H93.5266V22.0639H94.5691V19.9789H92.4841V21.0214H90.3991V16.8018H92.4841V17.8443H94.5691V15.7593H93.5266V14.7168H89.3566V15.7593H88.3141V22.0639H89.3566V23.1064ZM97.7462 19.9293H99.8312V23.0568H101.916V19.9293H100.874V17.8443H101.916V14.7168H99.8312V17.8443H97.7462V14.7168H95.6612V23.1064H97.7462V19.9293ZM109.263 21.0214H105.044V19.9789H108.171V17.8939H105.044V16.8514H109.263V14.7664H102.959V23.156H109.263V21.0214ZM110.306 14.7168V16.8018H112.391V23.1064H114.476V16.8018H116.561V14.7168H110.306ZM76.7474 31.0988H77.7899V32.1413H75.7049V27.9217H78.8324V25.8367H74.6624V26.8792H73.6199V33.1838H74.6624V34.2263H78.8324V33.1838H79.8749V29.0139H76.7474V31.0988ZM86.1795 25.8367H82.0095V26.8792H80.967V34.2263H83.052V32.1413H85.137V34.2263H87.222V26.8792H86.1795V25.8367ZM85.137 30.0564H83.052V27.9714H85.137V30.0564ZM93.5266 27.9714H92.4841V29.0139H91.4416V27.9714H90.3991V26.9289H89.3566V25.8367H88.3141V34.2263H90.3991V31.0988H91.4416V32.1413H92.4841V31.0988H93.5266V34.2263H95.6116V25.8367H94.5691V26.8792H93.5266V27.9714ZM102.959 34.2263V32.1413H98.7391V31.0988H101.867V29.0139H98.7391V27.9714H102.959V25.8367H96.6541V34.2263H102.959ZM104.051 26.8792V30.0067H105.093V31.0492H108.221V32.0917H104.051V34.1767H109.313V33.1342H110.355V30.0067H109.313V28.9642H106.185V27.9217H110.405V25.8367H105.143V26.8792H104.051ZM74.6624 38.0488H73.6199V41.1763H74.6624V42.2188H77.7899V43.2613H73.6199V45.3463H78.882V44.3038H79.9245V41.1763H78.882V40.1338H75.7546V39.0913H79.9742V37.0063H74.6624V38.0488ZM86.1795 37.0063H82.0095V38.0488H80.967V44.3534H82.0095V45.3959H86.1795V44.3534H87.222V38.0488H86.1795V37.0063ZM85.137 43.3109H83.052V39.0913H85.137V43.3109ZM88.3141 45.3959H90.3991V42.2188H93.5266V40.1338H90.3991V39.0913H94.6187V37.0063H88.3141V45.3959ZM97.6966 39.0913V45.3959H99.7816V39.0913H101.867V37.0063H95.562V39.0913H97.6966Z" fill="black"/>
<path d="M119.589 18.2911V15.2629H118.695V14.7168H121.029V15.2629H120.135V18.2911H119.589ZM121.525 18.2911V14.7168H122.121L123.263 17.0004L124.404 14.7168H125V18.2911H124.454V15.8586L123.61 17.5961H123.014L122.121 15.8089V18.2911H121.525Z" fill="black"/>
</g>
<defs>
<clipPath id="clip0_940_5">
<rect width="125" height="60" fill="white" transform="translate(0 0.556641)"/>
</clipPath>
</defs>
</svg>
