<svg width="116" height="61" viewBox="0 0 116 61" fill="none" xmlns="http://www.w3.org/2000/svg">
<path d="M99.8 22.04C93.87 22.38 96.53 29.46 103.1 29.09C109.52 28.72 106.13 21.68 99.8 22.04Z" fill="black" fill-opacity="0.8"/>
<path d="M97.4 17.85C87.12 17.85 78.8 26.05 78.8 36.16C78.8 46.27 87.12 54.46 97.4 54.46C107.67 54.46 116 46.27 116 36.16C116 26.05 107.67 17.86 97.4 17.86V17.85ZM97.4 52.55C90.66 52.55 84.6 48.56 82.01 42.44C80.7512 39.4443 80.4223 36.1393 81.0661 32.9543C81.7098 29.7693 83.2965 26.8515 85.62 24.58C87.9682 22.2839 90.9364 20.7244 94.1594 20.0937C97.3825 19.4629 100.72 19.7884 103.76 21.03C106.783 22.2445 109.376 24.3326 111.207 27.0275C113.038 29.7224 114.024 32.9019 114.04 36.16C114.04 45.21 106.59 52.55 97.39 52.55H97.4ZM96.83 5.06997C92.42 8.35997 93.19 13.39 93.19 13.39C93.19 13.39 90.4 6.29997 86.8 1.96997C86.31 7.54997 88.09 14.94 88.09 14.94C88.09 14.94 85.83 10.36 80.3 10.1C84.89 12.7 86.67 17.37 87.07 18.63C89.8119 16.9672 92.9352 16.0374 96.14 15.93C95.78 14.76 94.49 9.82997 96.82 5.06997H96.83Z" fill="black" fill-opacity="0.8"/>
<path d="M2.44998 37.58V41.4H0.849976V31.57H4.20998C5.33998 31.57 6.19998 31.84 6.76998 32.37C7.33998 32.91 7.62998 33.65 7.62998 34.59C7.62998 35.52 7.33998 36.25 6.74998 36.78C6.16998 37.31 5.31998 37.58 4.20998 37.58H2.44998ZM6.00998 34.58C6.00998 34.03 5.84998 33.61 5.53998 33.31C5.22998 33.02 4.72998 32.87 4.03998 32.87H2.43998V36.29H4.03998C5.34998 36.29 6.00998 35.72 6.00998 34.59V34.58ZM14.21 41.4L11.75 37.47H10.62V41.4H9.01998V31.57H12.5C13.63 31.57 14.48 31.84 15.07 32.39C15.65 32.93 15.94 33.66 15.94 34.56C15.94 35.33 15.72 35.96 15.29 36.46C14.86 36.95 14.23 37.26 13.42 37.4L16.01 41.4H14.21ZM10.61 36.34H12.37C13.66 36.34 14.3 35.78 14.3 34.64C14.3 34.11 14.15 33.69 13.83 33.38C13.52 33.08 13.03 32.93 12.37 32.93H10.62V36.34H10.61ZM23.26 39.27H19.09L18.34 41.4H16.64L20.27 31.72H22.1L25.71 41.4H24.01L23.26 39.27ZM22.81 38.04L21.17 33.44L19.54 38.04H22.81ZM33.76 32.34C34.5424 32.9159 35.0923 33.7532 35.31 34.7H33.63C33.43 34.18 33.05 33.73 32.58 33.43C32.0586 33.1061 31.4535 32.9427 30.84 32.96C30.2578 32.9496 29.6839 33.0983 29.18 33.39C28.69 33.68 28.3 34.1 28.04 34.61C27.7574 35.1918 27.6202 35.8335 27.64 36.48C27.62 37.15 27.76 37.82 28.05 38.42C28.31 38.94 28.73 39.37 29.23 39.65C29.77 39.95 30.38 40.09 31 40.08C31.7913 40.0956 32.559 39.8099 33.1476 39.2808C33.7362 38.7516 34.1016 38.0185 34.17 37.23H30.55V36.06H35.5V37.58C35.3963 38.2866 35.133 38.9604 34.73 39.55C34.32 40.15 33.77 40.63 33.13 40.97C32.42 41.33 31.63 41.51 30.83 41.49C29.95 41.51 29.07 41.29 28.3 40.85C27.5762 40.4341 26.9864 39.8199 26.6 39.08C26.2035 38.2706 25.9973 37.3813 25.9973 36.48C25.9973 35.5787 26.2035 34.6894 26.6 33.88C26.98 33.14 27.57 32.53 28.29 32.12C29.0644 31.6838 29.9414 31.4629 30.83 31.48C32 31.48 32.98 31.77 33.76 32.34ZM46.74 31.72V41.4H45.14V34.14L42.34 41.4H40.94L38.11 34.14V41.4H36.52V31.72H38.45L41.66 39.45L44.82 31.72H46.74ZM54.54 39.27H50.38L49.63 41.4H47.92L51.55 31.72H53.38L57 41.4H55.3L54.54 39.27ZM54.09 38.04L52.46 33.44L50.82 38.04H54.09ZM63.81 31.57V32.85H61.06V41.4H59.46V32.85H56.72V31.57H63.82H63.81ZM66.25 31.57V41.4H64.66V31.57H66.26H66.25ZM75.26 32.39C76.0663 33.0127 76.6374 33.8906 76.88 34.88H75.2C74.9768 34.282 74.5682 33.771 74.0338 33.422C73.4994 33.0729 72.8673 32.904 72.23 32.94C71.6733 32.9348 71.1268 33.0893 70.6553 33.3853C70.1839 33.6813 69.8072 34.1064 69.57 34.61C69.3083 35.1969 69.1731 35.8324 69.1731 36.475C69.1731 37.1176 69.3083 37.7531 69.57 38.34C69.8069 38.841 70.1824 39.2636 70.6521 39.5578C71.1217 39.852 71.6658 40.0054 72.22 40C72.8546 40.0359 73.4842 39.8693 74.018 39.5242C74.5518 39.1791 74.9622 38.6734 75.19 38.08H76.89C76.6485 39.0725 76.073 39.9517 75.26 40.57C74.46 41.17 73.46 41.47 72.25 41.47C71.38 41.5 70.52 41.27 69.77 40.84C69.0592 40.4247 68.483 39.8138 68.11 39.08C67.722 38.2682 67.5206 37.3798 67.5206 36.48C67.5206 35.5802 67.722 34.6918 68.11 33.88C68.49 33.14 69.06 32.53 69.77 32.11C70.52 31.67 71.37 31.45 72.25 31.47C73.45 31.47 74.46 31.77 75.26 32.39ZM84.39 37.58V41.4H82.8V31.57H86.15C87.29 31.57 88.15 31.84 88.72 32.37C89.29 32.91 89.58 33.65 89.58 34.59C89.58 35.52 89.28 36.25 88.7 36.78C88.11 37.31 87.27 37.58 86.16 37.58H84.39ZM87.96 34.58C87.96 34.03 87.8 33.61 87.49 33.31C87.18 33.02 86.68 32.87 85.99 32.87H84.39V36.29H86C87.31 36.29 87.97 35.72 87.97 34.59L87.96 34.58ZM92.31 40.16H95.71V41.4H90.71V31.57H92.31V40.16ZM103.01 39.26H98.85L98.09 41.4H96.39L100.02 31.72H101.85L105.47 41.4H103.77L103.01 39.27V39.26ZM102.56 38.04L100.93 33.44L99.29 38.04H102.56ZM111.86 31.57L108.58 37.82V41.4H106.98V37.82L103.68 31.57H105.52L107.79 36.12L110.05 31.57H111.85H111.86Z" fill="black"/>
</svg>
