<svg width="134" height="61" viewBox="0 0 134 61" fill="none" xmlns="http://www.w3.org/2000/svg">
<g clip-path="url(#clip0_3_2836)">
<path d="M23.05 12.45H2.47C1.81768 12.4461 1.18967 12.6973 0.720002 13.15C0.492812 13.3711 0.312091 13.6354 0.188449 13.9273C0.0648078 14.2193 0.000738034 14.5329 1.83389e-06 14.85V46.25C-0.000393593 46.5672 0.0631619 46.8812 0.18687 47.1733C0.310579 47.4654 0.491901 47.7295 0.720002 47.95C1.18788 48.4055 1.81707 48.6571 2.47 48.65H23.05C23.7019 48.6518 24.3292 48.4009 24.8 47.95C25.0281 47.729 25.2101 47.465 25.3354 47.1731C25.4607 46.8813 25.5269 46.5675 25.53 46.25V14.85C25.5291 14.5321 25.464 14.2176 25.3385 13.9255C25.2131 13.6333 25.0299 13.3696 24.8 13.15C24.3321 12.6945 23.7029 12.4428 23.05 12.45ZM21.2 31.77C21.2 33.07 20.78 34.34 19.98 35.38L16.68 39.72L20.51 43.18C20.5892 43.2534 20.6441 43.3492 20.6673 43.4546C20.6905 43.5601 20.681 43.6701 20.64 43.77C20.6001 43.8716 20.5304 43.9588 20.44 44.02C20.35 44.08 20.24 44.11 20.14 44.11H15.3C15.02 44.11 14.76 44.01 14.55 43.83L13.48 42.86L12.76 42.21L10.96 40.59C10.8621 40.5016 10.8006 40.3798 10.7877 40.2485C10.7747 40.1172 10.8112 39.9858 10.89 39.88L16 33.15C16.56 32.41 16.86 31.51 16.86 30.59V24.93C16.86 23.12 16.15 22.33 15.88 22.13C15.57 21.9 14.91 21.33 12.75 21.33C10.6 21.33 9.94 21.9 9.63 22.13C9.35 22.34 8.64 23.12 8.64 24.93V30.93C8.63883 31.4246 8.7425 31.9138 8.94417 32.3654C9.14584 32.817 9.44094 33.2207 9.81 33.55L11.53 35.1C11.628 35.1884 11.6894 35.3101 11.7024 35.4414C11.7153 35.5727 11.6788 35.7042 11.6 35.81L9.55 38.51C9.50245 38.5718 9.44207 38.6226 9.37302 38.6588C9.30397 38.6951 9.22788 38.7159 9.15 38.72C9.07415 38.7264 8.99779 38.7173 8.92558 38.6932C8.85337 38.6692 8.78682 38.6306 8.73 38.58L6.32 36.4C5.69619 35.8354 5.19634 35.1475 4.85208 34.3798C4.50782 33.6121 4.32664 32.7813 4.32 31.94V23.12C4.32 20.58 5.12 19.44 6.02 18.66C7.07 17.77 8.9 17 12.77 17C16.63 17 18.47 17.77 19.51 18.66C20.41 19.44 21.21 20.58 21.21 23.12V31.77H21.2ZM130.68 31.69V43.76L124.79 33.34C124.08 32.1 123.59 31.69 122.66 31.69C121.73 31.69 121.07 32.32 121.07 33.57V46.87H123.16V34.79L129.04 45.22C129.75 46.46 130.24 46.86 131.17 46.86C132.1 46.86 132.76 46.24 132.76 44.99V31.69H130.68ZM89.2 31.7H86.34L80.6 37.68V31.7H78.52V46.88H80.6V40.63L81.22 39.99L86.5 46.87H89.2L82.66 38.5L89.19 31.69L89.2 31.7ZM110.88 32.6C109.728 31.9371 108.407 31.6243 107.08 31.7H103.25V46.88H105.41V41.55H107.08C108.39 41.55 109.72 41.38 110.88 40.64C111.555 40.2156 112.106 39.6201 112.476 38.9141C112.847 38.2081 113.024 37.4166 112.99 36.62C112.99 34.62 112.03 33.35 110.88 32.61V32.6ZM109.78 38.95C109.19 39.39 108.29 39.67 107.08 39.67H105.41V33.57H107.08C108.29 33.57 109.19 33.85 109.78 34.3C110.136 34.5738 110.426 34.9248 110.627 35.3266C110.828 35.7285 110.935 36.1707 110.94 36.62C110.941 37.0729 110.836 37.5197 110.633 37.9244C110.429 38.3291 110.134 38.6804 109.77 38.95H109.78ZM42.72 45.1C42.99 44.76 43.22 44.4 43.42 44.01C43.98 42.89 43.98 41.59 43.97 40.74V37.74C43.97 36.9 43.97 35.6 43.42 34.47C42.42 32.47 40.64 31.47 38.53 31.47H38.51C36.4 31.47 34.62 32.47 33.63 34.47C33.07 35.6 33.07 36.89 33.07 37.75V40.74C33.07 41.59 33.07 42.89 33.63 44.01C34.63 46.01 36.41 47.02 38.53 47.02C39.34 47.02 40.15 46.86 40.9 46.52L42.57 48.66H45.52L42.72 45.1ZM41.88 40.82C41.88 41.52 41.89 42.47 41.53 43.18C41.2627 43.7536 40.8356 44.2379 40.2999 44.5749C39.7643 44.9119 39.1428 45.0873 38.51 45.08C37.8767 45.0898 37.2541 44.9155 36.718 44.5782C36.1819 44.2409 35.7553 43.7551 35.49 43.18C35.12 42.43 35.14 41.35 35.14 40.66V37.83C35.14 37.13 35.12 36.06 35.49 35.31C35.759 34.7356 36.1879 34.2509 36.7253 33.9139C37.2627 33.577 37.8858 33.402 38.52 33.41C39.1528 33.4027 39.7743 33.578 40.3099 33.915C40.8456 34.252 41.2727 34.7364 41.54 35.31C41.92 36.06 41.89 37.14 41.89 37.83V40.83L41.88 40.82ZM69.73 34.15C71.16 33.11 72.78 33 75.29 33.57V32.17C75.29 32.17 74.05 31.47 72.08 31.47C70.11 31.47 68.96 31.97 68.04 32.76C66.99 33.66 66.2 35.11 65.97 37.36C65.9 38.01 65.87 38.66 65.87 39.3C65.87 39.95 65.9 40.6 65.97 41.23C66.2 43.48 67 44.93 68.04 45.84C68.96 46.64 70.09 47.13 72.08 47.13C74.06 47.13 75.28 46.43 75.28 46.43V45.03C72.78 45.59 71.16 45.48 69.73 44.43C68.28 43.38 68 41.39 68 39.3C67.99 37.21 68.3 35.22 69.74 34.15H69.73ZM97.14 33.24C98.2 33.28 99.26 33.39 100.31 33.56V31.93C98.1342 31.3633 95.8548 31.3222 93.66 31.81C92.803 31.9702 92.0384 32.449 91.52 33.15C91.2779 33.5068 91.1339 33.9209 91.1023 34.3509C91.0707 34.7809 91.1527 35.2116 91.34 35.6C91.7819 36.6155 92.4209 37.5332 93.22 38.3C94.15 39.3 96.08 41.05 96.89 42C97.39 42.6 97.99 43.4 97.69 44.1C97.37 44.86 95.95 45.4 94.24 45.35C93.1814 45.2977 92.1265 45.1876 91.08 45.02V46.65C91.08 46.65 92.39 47.22 95.28 47.1C98.17 47 99.31 46.24 99.86 45.43C100.13 44.99 100.29 44.48 100.31 43.96V43.92L100.3 43.66C100.25 42.88 100.09 42.29 99.07 41.14C97.93 39.86 95.88 37.97 94.97 37.04L94.71 36.77C94.03 36.07 93.29 35.19 93.64 34.35C94 33.47 95.61 33.21 97.14 33.25V33.24ZM63.03 31.7H60.87V46.88H63.03V31.7ZM117.83 31.67H115.67V46.86H117.83V31.67ZM48.98 31.7H46.9V41.65C46.9 43.43 47.52 47.11 52.2 47.11C56.88 47.11 57.5 43.42 57.5 41.65V31.7H55.4V41.65C55.4 44.82 53.18 45.22 52.19 45.22C51.2 45.22 48.97 44.82 48.97 41.65V31.7H48.98Z" fill="black"/>
</g>
<defs>
<clipPath id="clip0_3_2836">
<rect width="134" height="61" fill="white"/>
</clipPath>
</defs>
</svg>
