<svg width="128" height="60" viewBox="0 0 128 60" fill="none" xmlns="http://www.w3.org/2000/svg">
<g clip-path="url(#clip0_197_493)">
<path d="M35.1418 49.6118C35.1812 49.2568 35.1944 48.8888 35.5887 48.7311C36.2459 48.4683 36.9162 48.8231 37.4288 49.2437C37.6786 49.454 38.6643 50.6896 38.6643 50.6896C38.4278 47.2327 34.9841 44.0782 29.7134 43.7891C28.6716 43.7266 27.627 43.7266 26.5852 43.7891C21.3013 44.0782 17.8577 47.2327 17.6211 50.6896C17.6211 50.6896 18.62 49.454 18.8698 49.2437C19.3692 48.8231 20.0527 48.4683 20.7099 48.718C21.1042 48.8888 21.1042 49.2437 21.1436 49.6118C21.1963 50.0061 21.3277 50.4004 21.5642 50.7421C22.1163 51.557 23.102 51.8331 23.9959 52.0828C24.8765 52.3325 25.8754 52.4376 26.7561 52.1222C27.0978 51.9908 27.4132 51.8067 27.6761 51.5439C27.7812 51.4256 28.0179 51.1496 28.1493 51.1496C28.2807 51.1496 28.5042 51.4125 28.6225 51.5439C28.8722 51.8067 29.1876 52.0039 29.5294 52.1222C30.41 52.4376 31.4089 52.3325 32.2896 52.0828C33.1966 51.8331 34.1692 51.557 34.7344 50.7421C34.9578 50.4135 35.1023 50.0192 35.1418 49.6118Z" fill="black"/>
<path d="M52.53 12.3101C53.293 11.54 53.8922 10.6234 54.2913 9.61566C54.5016 8.97147 54.6331 8.30128 54.712 7.64409C54.7908 6.94743 54.8959 6.17183 54.7908 5.48833C54.6199 4.30543 53.7262 3.16193 52.2935 3.39851C51.5443 3.52991 50.8739 3.89806 50.1905 4.18726C49.415 4.52893 48.6395 4.84429 47.8508 5.14657C47.0622 5.43578 46.2736 5.67236 45.485 5.93525C44.6175 6.22454 40.5954 6.51366 39.7017 6.61884L43.1191 7.17085C43.3557 7.21032 43.6054 7.18393 43.842 7.11815C44.6306 6.89472 46.4971 6.35586 47.22 6.19814C48.0743 6.01411 50.3744 5.59366 51.1631 6.7634C50.6768 7.76234 49.0338 8.44584 48.8761 8.69558L48.8498 8.72173C50.1379 8.36682 50.7162 8.65603 50.7162 8.65603C49.8441 9.51386 49.1593 10.5432 48.7052 11.6792C48.0349 13.0987 47.7194 15.0703 47.1148 16.5292C46.5891 17.8174 45.8924 19.0529 45.0907 20.1964C44.3026 21.3265 43.2748 22.2689 42.0807 22.9566C43.1848 21.7474 44.2495 20.1307 44.8672 18.9609C46.8387 15.1755 46.9702 11.022 47.2725 9.73391C46.3656 10.1282 44.4729 9.90479 44.4729 9.90479C44.4729 9.90479 47.5486 8.472 48.4423 7.99884C48.046 7.75512 47.6026 7.59828 47.1411 7.53892C45.1169 7.32857 44.3546 7.95953 43.0534 8.15664C42.3831 8.24866 37.5987 6.60568 36.6129 6.38226H36.7049C35.9162 6.19822 35.1276 6.01419 34.3259 5.85647L34.0105 5.77761C33.2984 5.66995 32.5841 5.57802 31.868 5.50164C30.5255 5.38805 29.1798 5.31352 27.8328 5.27806C27.123 5.31745 25.3618 5.40963 24.4154 5.50164C23.5933 5.59928 22.7738 5.71769 21.9575 5.85647C21.1889 6.02302 20.4221 6.19838 19.6574 6.38226C18.6716 6.60568 13.9004 8.24866 13.2169 8.15664C11.9157 7.95953 11.1533 7.32857 9.14238 7.53892C8.67645 7.59644 8.22824 7.75344 7.828 7.99884C9.14664 8.65675 10.4743 9.29653 11.8105 9.91778C11.8105 9.91778 9.90475 10.1282 8.99782 9.73391C9.31326 11.022 9.43151 15.1755 11.4162 18.9609C12.0209 20.1437 13.0987 21.7605 14.1896 22.9434C12.9966 22.26 11.969 21.322 11.1797 20.1964C10.3911 19.0529 9.6944 17.8304 9.15554 16.516C8.56405 15.0702 8.23546 13.0987 7.57827 11.6661C6.99994 10.4306 6.52678 9.56296 5.55407 8.65603C5.55407 8.65603 6.1324 8.36699 7.43371 8.73497L7.40739 8.69558C7.23652 8.43269 5.6067 7.76234 5.12038 6.7634C5.90898 5.60674 8.19599 6.01411 9.05037 6.19814C9.77326 6.36894 11.6528 6.89472 12.4415 7.11815C12.6781 7.19701 12.9278 7.21032 13.1644 7.17085L16.5686 6.61884C15.688 6.51366 11.666 6.22454 10.7854 5.93525C9.99668 5.67236 9.20809 5.43578 8.41949 5.14657C7.63081 4.85745 6.85537 4.52893 6.07985 4.20034C5.39635 3.89806 4.72608 3.52991 3.97688 3.41166C2.57048 3.16193 1.66355 4.30543 1.47952 5.47517C1.3875 6.17183 1.47952 6.93419 1.57154 7.63077C1.6504 8.30112 1.7818 8.97147 1.99215 9.61566C2.30759 10.5883 3.05679 11.5609 3.75337 12.3101C4.08197 12.6781 4.45004 12.9673 4.67346 13.401C4.83118 13.6639 4.94951 13.9398 5.06776 14.229L3.22767 13.2828C3.00425 15.6092 4.25285 15.8195 5.89582 16.4899C6.1324 16.0035 6.30328 15.2806 7.24967 14.4788C7.17081 16.4504 9.24756 22.5227 11.6528 24.9938C11.1446 25.4319 10.3604 25.4056 9.3001 24.915C9.3001 25.7037 9.73387 26.7946 10.3122 27.1888C10.9299 27.6225 11.9946 27.4122 12.8752 27.4779C12.7701 28.5295 11.4819 29.1472 9.94414 29.2392C9.94414 29.2392 9.64186 32.3411 12.6781 31.6577C13.0724 31.5657 13.9136 31.0005 14.1239 30.685C14.5575 30.0674 14.5182 30.0541 15.2017 29.673C15.8719 29.3049 16.6474 29.1472 17.2783 29.6073C14.8468 29.7388 15.8719 33.0248 12.6781 33.3138L12.6386 33.3665C13.3353 34.3654 13.1907 34.9437 12.1523 35.4694C11.1402 35.9951 11.1533 38.7555 11.85 39.7806C13.2564 41.8048 13.0329 46.4313 12.8883 46.4839C12.8883 46.4839 12.31 44.3809 12.0077 43.6449C11.2454 41.8572 10.0887 40.8059 9.14238 39.6754C8.48519 38.8868 7.95941 36.4815 9.52353 35.1671C9.6287 35.0751 9.66809 34.9043 9.60239 34.7729C9.47098 34.4574 5.76442 26.4923 5.65924 26.3609C5.65924 26.3609 7.89371 34.7729 7.92002 35.1934C7.44678 35.0619 5.25179 34.2733 5.25179 34.2733C5.90898 36.5078 6.43476 38.7949 7.26283 40.9505C8.07774 43.1192 9.22124 45.1695 10.2202 47.2595C10.2202 47.2595 8.76116 47.0491 7.7623 46.0501C4.64722 42.8956 3.75337 38.6371 3.39855 34.3259L3.01732 29.4495C2.60987 31.0531 2.09732 32.236 1.86066 33.8527C1.49268 36.2449 1.20347 37.0993 1.76873 40.3853C1.82127 40.6876 2.05785 41.647 2.21557 41.9099C4.33171 45.2485 8.86634 51.8466 8.86634 51.8466L9.10291 49.7435L12.3363 56.9858C12.3363 55.4085 11.5477 51.0449 13.2301 50.2957C13.7953 50.0591 14.5707 50.6504 14.5839 51.3997V54.1993C15.8457 53.4896 16.3452 53.1083 16.9629 52.8324C18.5132 52.2079 20.2239 52.1019 21.8393 52.53C21.185 52.0789 20.4426 51.7718 19.661 51.629C18.8791 51.4863 18.0761 51.5112 17.3046 51.7021C17.0286 51.781 16.7395 51.8334 16.4634 51.8861C16.3919 51.8956 16.319 51.887 16.2515 51.8612C16.1842 51.8354 16.1242 51.7932 16.0771 51.7384C16.0302 51.6836 15.9976 51.6179 15.9825 51.5472C15.9672 51.4766 15.97 51.4033 15.9903 51.3339L17.0812 47.4171C17.3835 46.2341 17.2389 45.117 17.0944 43.9341C16.7526 42.8038 16.0954 41.8969 14.8073 41.647C14.3604 41.5549 14.2816 40.9636 14.2159 40.5956C14.1107 39.991 14.0187 39.3731 13.9925 38.7553C13.9273 37.2943 14.197 35.8377 14.7811 34.4969C15.0833 33.8397 15.4776 33.2087 15.9639 32.6566C16.4634 32.0782 17.0417 31.6971 17.6464 31.2502L17.7516 31.1583C18.2641 30.6981 18.251 30.225 18.2773 29.581C18.3167 28.3323 19.2762 27.8328 20.4066 27.5831C20.1307 27.8002 19.8987 28.0679 19.7231 28.3717C19.5917 28.6083 19.5917 29.8175 19.5653 30.133C19.4734 31.3422 19.3025 31.6708 17.4624 32.2097L21.6552 35.6271C19.3682 36.1922 18.3824 34.4967 16.976 33.5635C17.0812 36.3106 19.7494 36.521 21.1426 37.9011C21.0769 38.0326 18.5533 37.7695 16.5423 37.0466C17.423 38.9526 19.0002 38.624 20.3014 39.1365C19.71 39.7281 18.4481 39.6622 17.5412 39.8331C17.2126 39.8857 16.9497 39.8068 16.6343 39.9251C16.8446 40.2406 16.9892 40.6613 17.2783 40.8584C18.0275 41.3711 18.8031 41.8572 19.6442 42.1858C20.078 42.3567 20.6826 42.3173 21.1426 42.1466C22.9696 41.4894 24.7703 40.7795 26.7287 40.0434C27.2019 39.8463 27.5305 39.3863 27.5436 38.8606C27.57 38.1377 27.5831 37.3491 27.4779 36.5605C27.4254 36.1661 26.8733 35.6404 26.4264 35.4827C24.4286 34.7729 22.273 33.2876 21.6684 31.9338C21.1952 30.8953 21.353 27.8855 21.3398 27.4254C21.3398 27.1101 21.1558 25.8612 20.5906 24.915C20.2756 24.4842 19.8724 24.1258 19.4076 23.8633C18.7767 23.469 18.0407 23.2458 17.331 23.0223C14.2684 22.0627 12.9147 19.9467 11.85 17.7779C11.5871 17.2653 11.2717 16.2533 11.0351 15.412C10.9168 14.9651 11.206 14.5051 11.6528 14.4131C11.85 14.9389 11.9157 15.2937 12.1786 15.8458C12.5861 16.7659 13.1907 17.2784 14.321 17.2914C16.8577 17.2914 19.3156 17.7254 20.6958 20.3935C21.0244 21.0113 21.445 21.6552 21.9313 22.2073C21.1426 21.6158 20.6826 20.7221 19.5653 19.6312C18.4391 18.5889 16.9454 18.0359 15.4119 18.0934C14.0975 18.0934 13.4141 17.7517 13.4141 17.7517C13.8741 18.6058 14.6364 18.698 15.9114 18.8557C16.0823 18.882 16.24 18.9083 16.4109 18.9609C16.0691 19.7233 16.1217 20.6433 16.6738 21.2873C17.2521 21.9182 18.2116 22.1285 18.9213 21.6159C19.1579 21.4451 19.3419 21.2216 19.4602 20.9587C19.7757 21.2611 20.1043 21.5897 20.4066 21.9445C21.3143 22.9804 22.5841 23.6294 23.9554 23.7583C23.9554 23.7583 23.6925 22.2337 23.5216 21.4581C24.7046 20.9719 24.1 20.2358 23.4691 19.5524L20.8403 16.7264C21.7473 16.4635 22.4176 15.9904 22.8644 15.5829C22.8644 15.5829 20.722 16.0561 18.7636 15.8984C18.4304 15.8576 18.1227 15.6991 17.8961 15.4515C19.3419 15.1755 21.4975 14.3079 22.2204 13.8742C19.6837 12.3101 16.5949 13.138 14.505 12.1391C17.8173 11.9972 21.0536 11.1027 23.9686 9.52365H17.4492C19.4996 8.60356 21.3003 7.24963 23.6794 7.28902C24.6521 7.31534 25.9795 7.49937 27.1493 7.61762C27.6883 7.68332 28.5952 7.68332 29.1341 7.61762C30.317 7.51253 31.6314 7.31534 32.6041 7.30218C34.9699 7.24963 36.7838 8.59025 38.8342 9.53664H32.3148C35.2283 11.1197 38.4657 12.0143 41.7784 12.1522C39.6754 13.138 36.5866 12.31 34.063 13.8872C34.7859 14.3079 36.9547 15.1755 38.4004 15.4384H38.3873C38.2033 15.6749 37.809 15.872 37.5198 15.8984C35.5483 16.0561 33.419 15.5829 33.419 15.5829C33.8658 15.9904 34.5362 16.4635 35.4562 16.7264L32.8275 19.5524C32.1834 20.2358 31.5788 20.9719 32.7618 21.4581C32.5909 22.2468 32.3148 23.7583 32.3148 23.7583C32.3148 23.7583 34.3391 23.6926 35.8637 21.9445C36.1791 21.5897 36.4946 21.2611 36.8232 20.9587C36.9283 21.2216 37.1255 21.4451 37.349 21.6159C38.0718 22.1285 39.0313 21.9182 39.5966 21.2873C40.1617 20.6433 40.2143 19.7101 39.8594 18.9609C40.0434 18.9083 40.2011 18.882 40.3589 18.8557C41.647 18.698 42.4093 18.5928 42.8562 17.7517C42.8562 17.7517 42.199 18.0803 40.8846 18.0934C39.9382 18.0934 38.1507 18.2117 36.7049 19.6312C35.6008 20.7221 35.1276 21.6027 34.3521 22.2073C34.8516 21.6421 35.2591 21.0245 35.5876 20.3935C36.9678 17.7254 39.4125 17.3048 41.9624 17.2784C43.0928 17.2784 43.6974 16.7527 44.1049 15.8458C44.3678 15.2937 44.4335 14.9257 44.6306 14.4131C45.025 14.2817 45.4324 14.6497 45.3273 15.0703C45.1038 15.9509 44.7226 17.1996 44.4335 17.7779C43.382 19.9467 42.015 22.0628 38.9525 23.0354C38.2427 23.2458 37.5067 23.4822 36.8626 23.8633C36.5209 24.0605 36.0083 24.4286 35.6928 24.915C35.2709 25.6856 35.0157 26.5366 34.9436 27.4122C34.9305 27.8855 35.0751 30.8953 34.615 31.9338C34.0105 33.2876 31.8548 34.7729 29.857 35.4827C29.4101 35.6404 28.858 36.1529 28.8055 36.5605C28.7003 37.3491 28.7135 38.1377 28.7398 38.8606C28.7398 39.3863 29.0815 39.8463 29.5547 40.0434C31.5131 40.7795 33.3138 41.4894 35.1408 42.1466C35.6008 42.3043 36.2054 42.3567 36.6392 42.1858C37.4723 41.8329 38.2653 41.3923 39.0051 40.8714C39.2942 40.6612 39.4389 40.2406 39.6491 39.9251C39.3337 39.7937 39.0708 39.8857 38.7422 39.8331C37.8353 39.6622 36.5734 39.7281 35.982 39.1365C37.2832 38.624 38.8474 38.9526 39.7411 37.0336C37.7301 37.7565 35.2065 38.0457 35.1408 37.9011C36.534 36.521 39.2022 36.3106 39.3074 33.5635C37.901 34.4836 36.9152 36.1922 34.6282 35.6271L38.8079 32.2097C36.994 31.6839 36.8101 31.3422 36.7181 30.133C36.7049 29.8307 36.7049 28.6083 36.5604 28.3586C36.3839 28.059 36.1519 27.7959 35.8769 27.5831C37.0072 27.846 37.9667 28.3323 38.0061 29.581C38.0325 30.225 38.0193 30.6981 38.5319 31.1583L38.637 31.2502C39.2417 31.6971 39.82 32.0782 40.3326 32.6566C40.8058 33.2087 41.2001 33.8397 41.4893 34.4969C42.0732 35.8377 42.3431 37.2943 42.2779 38.7553C42.2647 39.3731 42.1727 39.991 42.0676 40.5956C42.0018 40.9636 41.9098 41.5549 41.4761 41.647C40.188 41.8969 39.5308 42.8038 39.1891 43.9341C39.0445 45.117 38.8999 46.2341 39.1891 47.4171C39.3994 48.2189 39.9777 50.2825 40.2932 51.3339C40.3135 51.4033 40.3162 51.4766 40.301 51.5472C40.2858 51.6179 40.2534 51.6836 40.2063 51.7384C40.1593 51.7932 40.0994 51.8354 40.0319 51.8612C39.9644 51.887 39.8916 51.8956 39.82 51.8861C39.5439 51.8467 39.2548 51.781 38.9656 51.7021C38.1943 51.5112 37.3911 51.4863 36.6095 51.629C35.8277 51.7718 35.0852 52.0789 34.431 52.53C36.4552 52.0043 38.3479 52.3986 39.3205 52.8324C39.9382 53.1083 40.4377 53.4896 41.6864 54.1993V51.3997C41.7127 50.6374 42.4881 50.0591 43.0534 50.2957C44.7489 51.0449 43.9472 55.3954 43.9472 56.9989L47.1805 49.7435L47.4171 51.8466C47.4171 51.8466 51.9517 45.2485 54.0678 41.9099C54.2256 41.647 54.4622 40.6743 54.5148 40.3853C55.0799 37.0993 54.7777 36.245 54.4228 33.8397C54.1862 32.2361 53.6735 31.0531 53.2661 29.4495L52.8849 34.3127C52.53 38.6371 51.6363 42.9088 48.5212 46.0501C47.5222 47.0491 46.0633 47.2725 46.0633 47.2725C47.0622 45.1695 48.2058 43.1191 49.0338 40.9635C49.8487 38.7948 50.3744 36.5078 51.0316 34.2733C51.0316 34.2733 48.8366 35.0619 48.3635 35.1934C48.3898 34.7729 50.6242 26.3609 50.6242 26.3609C50.5191 26.4923 46.8125 34.4574 46.681 34.7729C46.6153 34.9043 46.6548 35.0751 46.7599 35.1671C48.3109 36.4815 47.7983 38.8999 47.1411 39.6754C46.1947 40.8059 45.0381 41.8572 44.2758 43.6449C43.9734 44.3809 43.3951 46.4839 43.3951 46.4839C43.2637 46.4313 43.0271 41.8048 44.4335 39.7806C45.1301 38.7686 45.1432 36.0084 44.1311 35.4827C43.0796 34.9569 42.9482 34.3653 43.6448 33.3795L43.6186 33.3138C40.4115 33.0248 41.4367 29.7255 39.0182 29.6073C39.6491 29.1472 40.4115 29.3049 41.0818 29.673C41.7653 30.0541 41.739 30.0674 42.1596 30.6981C42.3699 31.0005 43.2111 31.5657 43.6054 31.6577C46.6416 32.3543 46.3394 29.2392 46.3394 29.2392C44.8146 29.1472 43.5134 28.5295 43.4082 27.4779C44.2889 27.4122 45.3536 27.6225 45.9844 27.1888C46.5496 26.7946 46.9834 25.7168 46.9834 24.9282C45.9319 25.4014 45.1476 25.4232 44.6306 24.9938C47.0359 22.5227 49.1127 16.4504 49.0338 14.4788C49.9801 15.2675 50.1642 16.0035 50.3876 16.4899C52.0306 15.8195 53.2792 15.6092 53.0427 13.2828L51.2288 14.229C51.334 13.9398 51.4654 13.6639 51.5969 13.401C51.8335 12.9673 52.2014 12.6781 52.53 12.3101Z" fill="black"/>
<path d="M96.128 27.8856C98.4744 27.8806 100.725 26.9556 102.398 25.3094C103.237 24.4965 103.903 23.5218 104.355 22.4442C104.807 21.3665 105.035 20.2084 105.026 19.0398C105.035 17.8717 104.809 16.7137 104.362 15.6345C103.915 14.5554 103.256 13.5768 102.424 12.757C100.742 11.1117 98.4805 10.1954 96.128 10.2071H89.6875V27.8856H96.128ZM94.2221 14.0977H95.2999C96.7983 14.0977 97.9944 14.5314 98.9145 15.4121C99.8345 16.2796 100.281 17.5019 100.281 19.0398C100.281 19.8678 100.15 20.6039 99.8871 21.2348C99.6242 21.8657 99.2693 22.3915 98.7962 22.7858C98.3361 23.2064 97.7972 23.5087 97.1926 23.7059C96.588 23.8899 95.944 23.995 95.2473 23.995H94.2221V14.0977Z" fill="black"/>
<path d="M65.6727 21.0901H65.7253L70.0233 27.8855H75.6751L70.181 20.6301C70.7394 20.5448 71.2753 20.3498 71.7581 20.0566C72.2407 19.7634 72.6607 19.3776 72.9938 18.9214C73.6773 18.0013 74.0059 16.9103 74.0059 15.6354C74.0059 13.8347 73.4538 12.4809 72.3366 11.5609C71.2194 10.654 69.7473 10.207 67.9335 10.207H61.125V27.8855H65.6727V21.0901ZM65.6727 13.7164H66.1065C66.5025 13.7174 66.898 13.7483 67.2895 13.8084C67.6574 13.861 67.986 13.9661 68.2883 14.1239C68.5907 14.2685 68.8273 14.5051 69.0113 14.7942C69.1821 15.0966 69.2741 15.4777 69.2741 15.9246C69.2741 16.3846 69.1821 16.7526 69.0113 17.055C68.8273 17.3441 68.5907 17.5807 68.2883 17.7253C67.986 17.8831 67.6443 17.9881 67.2895 18.0539C66.9214 18.1065 66.5402 18.1328 66.1196 18.1328H65.6727V13.7164Z" fill="black"/>
<path d="M86.8625 23.9949H81.4604V20.9455H86.5865V17.055H81.4604V14.0976H81.4736H86.8757V10.207H76.9258V27.8855H86.8625V23.9949Z" fill="black"/>
<path d="M78.1741 32.3809H73.6133V50.0593H78.1741V32.3809Z" fill="black"/>
<path d="M100.676 50.0593H110.639V46.1555H105.224V43.1193H110.35V39.2157H105.224V36.2715H110.639V32.3809H100.676V50.0593Z" fill="black"/>
<path d="M122.496 42.8039C123.057 42.7202 123.595 42.5261 124.08 42.2328C124.565 41.9394 124.987 41.5529 125.322 41.0952C125.992 40.1751 126.334 39.0843 126.334 37.8093C126.334 36.0086 125.769 34.6416 124.665 33.7347C123.534 32.8278 122.075 32.3809 120.248 32.3809H113.453V50.0593H118.001V43.2508H118.04L122.338 50.0593H128.003L122.496 42.8039ZM121.326 39.2157C121.155 39.5179 120.906 39.7414 120.603 39.8992C120.301 40.0569 119.972 40.162 119.618 40.2146C119.25 40.2671 118.855 40.3066 118.435 40.3066H118.001V35.8902H118.435C118.826 35.8877 119.217 35.9139 119.604 35.9691C119.972 36.0217 120.301 36.14 120.603 36.2846C120.906 36.4423 121.155 36.6789 121.326 36.968C121.51 37.2704 121.589 37.6384 121.589 38.0985C121.589 38.5585 121.51 38.9265 121.326 39.2157Z" fill="black"/>
<path d="M89.5687 43.7894H93.2752C93.1832 44.7752 92.8021 45.5375 92.1317 46.0764C91.4745 46.6022 90.6333 46.8651 89.595 46.8651C88.93 46.8757 88.2722 46.7259 87.6774 46.4286C87.0826 46.1311 86.5681 45.6947 86.1776 45.1564C85.7964 44.6174 85.4941 44.0129 85.2839 43.3557C84.9932 42.3735 84.9214 41.3397 85.0735 40.3269C85.2257 39.314 85.5981 38.3469 86.1645 37.4935C86.5588 36.9546 87.0319 36.534 87.6103 36.2185C88.2045 35.9028 88.8697 35.7445 89.5424 35.7585C90.3761 35.7389 91.1918 36.0031 91.8558 36.5077C92.5332 37.0412 93.044 37.7572 93.3279 38.5713L97.639 36.7311C96.9966 35.2067 95.9056 33.914 94.5108 33.0246C93.1701 32.1965 91.5666 31.7891 89.7527 31.7891C88.3595 31.7891 87.0846 32.0126 85.9016 32.4594C84.7669 32.8813 83.736 33.5421 82.8788 34.397C82.0217 35.252 81.3581 36.281 80.9332 37.4147C80.4863 38.5845 80.2629 39.8857 80.2629 41.3052C80.2433 42.597 80.4662 43.881 80.9201 45.0906C81.3529 46.2014 82.0123 47.2099 82.8565 48.0516C83.7005 48.8935 84.7107 49.5503 85.8227 49.9801C86.9662 50.4139 88.2281 50.6373 89.5818 50.6373C91.0802 50.6373 92.4603 50.3613 93.6959 49.7961C94.9445 49.2103 96.0151 48.3031 96.7978 47.1673C97.5207 46.1816 97.9807 45.1301 98.2042 44.0786C98.45 42.8005 98.577 41.5026 98.5848 40.2011H89.5687V43.7894Z" fill="black"/>
<path d="M33.4828 30.3821V30.369C33.4828 29.5804 32.7467 29.1992 32.7467 29.1992C32.6284 30.5793 31.2615 31.1708 28.1596 31.2233C25.0707 31.1708 23.6513 30.5793 23.5329 29.1992C23.5329 29.1992 22.7969 29.5672 22.7969 30.369C22.7969 31.1971 23.6249 31.3679 23.901 31.4337C24.6764 31.6571 25.8199 32.1697 28.1069 32.1697C30.4071 32.1697 31.6032 31.6439 32.3787 31.4337C32.6547 31.3679 33.4828 31.1971 33.4828 30.3821Z" fill="black"/>
<path d="M59.9023 36.2583H63.6615V50.0593H68.2092V36.2715H71.9684V32.3809H59.9023V36.2583Z" fill="black"/>
</g>
<defs>
<clipPath id="clip0_197_493">
<rect width="128" height="60" fill="white"/>
</clipPath>
</defs>
</svg>
