<svg width="148" height="61" viewBox="0 0 148 61" fill="none" xmlns="http://www.w3.org/2000/svg">
<path d="M10.67 25.99L1.07998 26.32C0.998478 26.3224 0.918314 26.3413 0.844382 26.3757C0.770451 26.4101 0.704304 26.4592 0.64998 26.52C0.545316 26.6274 0.484667 26.7701 0.47998 26.92L0.659981 29.52C0.667684 29.6739 0.734283 29.8189 0.84598 29.925C0.957678 30.0311 1.10591 30.0902 1.25998 30.09H3.85998L4.45998 42.32C4.46361 42.4023 4.48413 42.4829 4.52026 42.5569C4.55638 42.6308 4.60735 42.6966 4.66998 42.75C4.73121 42.8074 4.80378 42.8512 4.88302 42.8788C4.96225 42.9063 5.04638 42.917 5.12998 42.91L8.06998 42.71C8.22911 42.71 8.38172 42.6468 8.49424 42.5343C8.60677 42.4217 8.66998 42.2691 8.66998 42.11L8.30998 30.02L10.9 30C10.9832 29.999 11.0653 29.9807 11.141 29.9463C11.2168 29.9118 11.2845 29.862 11.34 29.8C11.396 29.7399 11.4392 29.669 11.4667 29.5916C11.4942 29.5142 11.5055 29.432 11.5 29.35L11.32 26.57C11.3148 26.4504 11.274 26.335 11.2027 26.2388C11.1314 26.1425 11.0329 26.0698 10.92 26.03C10.8397 26.0024 10.7545 25.9922 10.67 26V25.99ZM21.85 26.79L18.95 26.63C18.8712 26.63 18.7932 26.6455 18.7204 26.6757C18.6476 26.7058 18.5814 26.75 18.5257 26.8057C18.47 26.8615 18.4258 26.9276 18.3957 27.0004C18.3655 27.0732 18.35 27.1512 18.35 27.23L18.31 33.61L17.04 33.88L16.72 26.64C16.72 26.4809 16.6568 26.3283 16.5442 26.2157C16.4317 26.1032 16.2791 26.04 16.12 26.04L13.26 26.11C13.1812 26.11 13.1032 26.1255 13.0304 26.1557C12.9576 26.1858 12.8914 26.23 12.8357 26.2857C12.78 26.3415 12.7358 26.4076 12.7057 26.4804C12.6755 26.5532 12.66 26.6312 12.66 26.71L13.13 42.83C13.13 42.9891 13.1932 43.1418 13.3057 43.2543C13.4182 43.3668 13.5709 43.43 13.73 43.43L16.59 43.36C16.6717 43.3616 16.7529 43.3464 16.8286 43.3154C16.9042 43.2845 16.9728 43.2384 17.03 43.18C17.0902 43.1237 17.1381 43.0555 17.1708 42.9798C17.2035 42.9041 17.2202 42.8225 17.22 42.74L16.9 37.34L18.02 37.42L18.22 42.22C18.2157 42.3027 18.2287 42.3853 18.2579 42.4628C18.2872 42.5402 18.3321 42.6108 18.39 42.67C18.4463 42.7302 18.5145 42.7782 18.5902 42.8108C18.6659 42.8435 18.7475 42.8603 18.83 42.86L21.84 43.06H21.88C21.9588 43.06 22.0368 43.0445 22.1096 43.0143C22.1824 42.9842 22.2485 42.94 22.3042 42.8843C22.36 42.8286 22.4042 42.7624 22.4343 42.6896C22.4645 42.6168 22.48 42.5388 22.48 42.46V27.38C22.4903 27.2549 22.4611 27.1297 22.3965 27.0221C22.3319 26.9145 22.2352 26.8298 22.12 26.78C22.0436 26.7504 21.9619 26.7368 21.88 26.74L21.85 26.79ZM32.62 25.44L30 25.64C29.8461 25.6477 29.7011 25.7143 29.595 25.826C29.4889 25.9377 29.4298 26.0859 29.43 26.24V37.64C29.43 38.42 29.52 39.74 28.66 39.77C28.06 39.77 27.86 38.93 27.85 37.72C27.85 36.35 27.95 26.98 27.95 26.92C27.9505 26.7692 27.8942 26.6237 27.7923 26.5125C27.6904 26.4013 27.5503 26.3326 27.4 26.32L24.39 25.99C24.3055 25.9801 24.2199 25.9882 24.1388 26.0139C24.0577 26.0396 23.9831 26.0822 23.9197 26.1389C23.8563 26.1957 23.8058 26.2652 23.7713 26.343C23.7369 26.4208 23.7194 26.505 23.72 26.59L23.84 38.81C23.8483 39.3883 23.974 39.9589 24.2095 40.4871C24.445 41.0154 24.7853 41.4903 25.2098 41.883C25.6344 42.2758 26.1343 42.5782 26.6792 42.7719C27.2242 42.9656 27.8028 43.0466 28.38 43.01C32.12 42.91 32.79 40.69 33.02 38.11C33.12 37.03 33.29 27.2 33.31 26.11C33.3118 26.0234 33.2949 25.9375 33.2604 25.8581C33.2258 25.7787 33.1745 25.7077 33.11 25.65C33.049 25.5782 32.9719 25.5218 32.8851 25.4853C32.7982 25.4488 32.704 25.4333 32.61 25.44H32.62ZM44.22 26.08L41.49 26.21C41.4085 26.2124 41.3283 26.2313 41.2544 26.2657C41.1805 26.3001 41.1143 26.3492 41.06 26.41C40.9515 26.5343 40.8943 26.6951 40.9 26.86L41.35 34.42L38.52 26.62C38.4752 26.4901 38.3872 26.3796 38.2707 26.3068C38.1543 26.234 38.0163 26.2033 37.88 26.22L35.13 26.52C34.9797 26.5326 34.8396 26.6013 34.7377 26.7125C34.6358 26.8237 34.5795 26.9692 34.58 27.12L35.03 42.02C35.03 42.1791 35.0932 42.3317 35.2057 42.4443C35.3182 42.5568 35.4709 42.62 35.63 42.62L38.39 42.82C38.4776 42.8286 38.566 42.8178 38.6489 42.7885C38.7319 42.7591 38.8073 42.7118 38.87 42.65C38.9322 42.5894 38.9806 42.5159 39.0116 42.4348C39.0427 42.3536 39.0558 42.2667 39.05 42.18L38.59 35.68L40.97 42.45C41.0104 42.5645 41.0846 42.664 41.1828 42.7355C41.281 42.8069 41.3986 42.8468 41.52 42.85H44.46C44.6099 42.8453 44.7526 42.7847 44.86 42.68C44.98 42.57 45.04 42.4 45.05 42.23L44.87 26.69C44.869 26.6068 44.8507 26.5247 44.8162 26.449C44.7818 26.3732 44.732 26.3055 44.67 26.25C44.5498 26.1402 44.3928 26.0796 44.23 26.08H44.22ZM47.9 25.76H47.3C47.1409 25.76 46.9882 25.8232 46.8757 25.9357C46.7632 26.0483 46.7 26.2009 46.7 26.36L46.2 41.84C46.1998 41.9941 46.2589 42.1423 46.365 42.254C46.4711 42.3657 46.6161 42.4323 46.77 42.44C46.77 42.44 47.13 42.47 47.67 42.47C49.61 42.47 54.22 42.12 55.27 38.87C56.17 36.19 56.02 32.52 55.79 30.77C55.38 27.42 52.79 25.77 47.9 25.77V25.76ZM52 35.96C51.68 38.58 50.85 38.74 49.95 39.06L50.37 29.33C50.6127 29.3595 50.846 29.442 51.0533 29.5716C51.2607 29.7012 51.4371 29.8748 51.57 30.08C52.34 31.05 52.32 33.4 52 35.96ZM64.8 39.75L61.2 40.03L61.02 36.68L63.35 36.55C63.4992 36.5508 63.6434 36.4958 63.7544 36.396C63.8653 36.2961 63.9351 36.1585 63.95 36.01L64.17 33.95C64.1814 33.8616 64.173 33.7717 64.1453 33.687C64.1176 33.6022 64.0714 33.5247 64.01 33.46C63.9501 33.3928 63.8759 33.3399 63.7928 33.3053C63.7097 33.2707 63.6199 33.2552 63.53 33.26L61 33.4V29.75H64.74C64.8991 29.75 65.0517 29.6868 65.1642 29.5743C65.2768 29.4618 65.34 29.3091 65.34 29.15V29.01L65.14 26.83C65.1272 26.6725 65.0528 26.5265 64.933 26.4235C64.8132 26.3205 64.6576 26.269 64.5 26.28L57.66 26.44C57.5812 26.44 57.5032 26.4555 57.4304 26.4857C57.3576 26.5158 57.2914 26.56 57.2357 26.6157C57.18 26.6715 57.1358 26.7376 57.1057 26.8104C57.0755 26.8832 57.06 26.9612 57.06 27.04L57.27 42.35C57.27 42.5091 57.3332 42.6618 57.4457 42.7743C57.5582 42.8868 57.7108 42.95 57.87 42.95H64.79C64.9491 42.95 65.1017 42.8868 65.2142 42.7743C65.3268 42.6618 65.39 42.5091 65.39 42.35L65.45 40.35C65.4518 40.2634 65.4349 40.1775 65.4004 40.0981C65.3658 40.0187 65.3145 39.9477 65.25 39.89C65.1903 39.837 65.1207 39.7964 65.0451 39.7707C64.9695 39.7449 64.8896 39.7345 64.81 39.74V39.75H64.8ZM76 30.75C75.85 28.6 75.1 25.75 70.4 25.75C69.23 25.77 68.05 25.9 66.9 26.14C66.7587 26.1639 66.6307 26.2375 66.539 26.3475C66.4473 26.4576 66.398 26.5968 66.4 26.74L66.62 41.74C66.6198 41.8941 66.6789 42.0423 66.785 42.154C66.8911 42.2657 67.0361 42.3323 67.19 42.34L69.34 42.51C69.4252 42.5184 69.5112 42.5085 69.5923 42.4809C69.6734 42.4533 69.7476 42.4087 69.81 42.35C69.8732 42.2934 69.9238 42.224 69.9583 42.1465C69.9927 42.0689 70.0104 41.9849 70.01 41.9V37.1L71.11 37.04L72.31 42.21C72.3338 42.3512 72.4074 42.4793 72.5175 42.571C72.6275 42.6627 72.7668 42.712 72.91 42.71H72.96L75.11 42.54C75.1955 42.5358 75.2792 42.5133 75.3553 42.474C75.4315 42.4347 75.4983 42.3796 75.5514 42.3123C75.6044 42.245 75.6425 42.1672 75.6629 42.084C75.6834 42.0008 75.6858 41.9142 75.67 41.83L74.14 36.07C75.22 35.22 76.22 33.75 76 30.77V30.75ZM72.1 32.86C71.52 33.37 70.78 33.66 70 33.68V29.28C70.2 29.24 70.4 29.22 70.6 29.22C71.43 29.22 72.4 29.58 72.56 31.34C72.6018 31.614 72.5832 31.8938 72.5055 32.1598C72.4278 32.4259 72.2928 32.6717 72.11 32.88V32.86H72.1ZM84.22 35.16C86.2665 32.7628 87.3057 29.6665 87.12 26.52C87.1203 26.4368 87.1033 26.3545 87.07 26.2782C87.0368 26.202 86.9881 26.1335 86.9269 26.077C86.8658 26.0206 86.7936 25.9775 86.715 25.9505C86.6363 25.9235 86.5529 25.9131 86.47 25.92L83.91 26.09C83.8259 26.0896 83.7426 26.1069 83.6656 26.1407C83.5886 26.1745 83.5196 26.2242 83.463 26.2864C83.4064 26.3486 83.3636 26.4221 83.3372 26.5019C83.3108 26.5818 83.3016 26.6663 83.31 26.75C83.4 28.09 82.51 30.95 81.22 32.75L81.41 26.91C81.4129 26.8266 81.3984 26.7435 81.3674 26.666C81.3364 26.5885 81.2896 26.5184 81.23 26.46C81.1716 26.4004 81.1014 26.3535 81.024 26.3225C80.9465 26.2916 80.8634 26.2771 80.78 26.28L77.48 26.33C77.3986 26.3299 77.318 26.3464 77.2432 26.3784C77.1684 26.4104 77.1009 26.4573 77.0447 26.5162C76.9886 26.5751 76.9451 26.6449 76.9167 26.7212C76.8884 26.7975 76.8759 26.8787 76.88 26.96L77.24 42.52C77.2421 42.6064 77.2628 42.6914 77.3008 42.7691C77.3387 42.8467 77.3931 42.9153 77.46 42.97C77.5244 43.0283 77.6006 43.0718 77.6835 43.0977C77.7664 43.1236 77.8539 43.1312 77.94 43.12L80.51 42.77C80.6585 42.7551 80.7961 42.6853 80.896 42.5744C80.9958 42.4634 81.0507 42.3193 81.05 42.17L81.09 37.63C81.61 37.94 83.14 40.15 83.4 42.33C83.4125 42.4803 83.4813 42.6204 83.5925 42.7223C83.7036 42.8242 83.8491 42.8805 84 42.88H86.75C86.9027 42.87 87.0457 42.802 87.15 42.69C87.2066 42.632 87.2508 42.563 87.28 42.4874C87.3092 42.4118 87.3228 42.331 87.32 42.25C87.32 41.66 86.39 36.9 84.22 35.15V35.16ZM91.89 25.62L88.96 26C88.8115 26.0149 88.6738 26.0847 88.574 26.1956C88.4741 26.3066 88.4192 26.4507 88.42 26.6V41.8C88.4196 41.8849 88.4372 41.9689 88.4717 42.0465C88.5062 42.124 88.5567 42.1934 88.62 42.25C88.6789 42.3048 88.7481 42.3472 88.8237 42.3747C88.8993 42.4022 88.9797 42.4142 89.06 42.41L92.26 42.18C92.4138 42.1723 92.5589 42.1057 92.665 41.994C92.7711 41.8823 92.8302 41.7341 92.83 41.58L92.6 26.25C92.6012 26.162 92.5831 26.0749 92.5469 25.9947C92.5107 25.9145 92.4573 25.8433 92.3905 25.7861C92.3237 25.7288 92.2452 25.6869 92.1604 25.6634C92.0756 25.6399 91.9867 25.6353 91.9 25.65L91.89 25.63V25.62ZM98.13 26.07C97.24 26.13 94.33 26.67 94.08 30.93C94.08 31.47 94.02 31.99 93.99 32.48C93.82 35.39 93.69 37.5 94.06 39.32C94.29 40.42 95.2 42.92 98.82 42.92C99.05 42.92 99.28 42.92 99.52 42.89C101.02 42.77 102.15 42.29 102.84 41.46C103.84 40.26 103.7 38.78 103.64 37.96V37.81C103.635 37.7312 103.614 37.6541 103.579 37.5832C103.544 37.5123 103.496 37.4491 103.436 37.397C103.377 37.345 103.308 37.3052 103.233 37.28C103.158 37.2548 103.079 37.2446 103 37.25L100.7 37.35C100.571 37.3545 100.446 37.4008 100.345 37.4819C100.244 37.563 100.172 37.6746 100.14 37.8C100.116 37.8844 100.109 37.9729 100.12 38.06C100.23 38.66 100.13 39.28 99.83 39.82C99.7406 39.9208 99.6291 39.9994 99.5041 40.0498C99.3792 40.1001 99.2442 40.1207 99.11 40.11H99.08C98.9375 40.1191 98.7948 40.097 98.6618 40.0451C98.5288 39.9933 98.4087 39.9131 98.31 39.81C97.98 39.46 97.61 38.61 97.71 36.51C97.71 36.03 97.76 35.46 97.78 34.86C97.84 33.3 97.91 31.53 98.06 30.42V30.4C98.16 29.55 98.33 29.2 99.04 29.16C99.227 29.1247 99.4198 29.1344 99.6024 29.1883C99.785 29.2422 99.9521 29.3388 100.09 29.47C100.27 29.75 100.33 30.08 100.27 30.41C100.252 30.4977 100.254 30.5885 100.276 30.6753C100.299 30.762 100.341 30.8424 100.4 30.91C100.456 30.9814 100.527 31.0391 100.609 31.0789C100.69 31.1188 100.779 31.1397 100.87 31.14L103.62 31.17C103.779 31.17 103.932 31.1068 104.044 30.9943C104.157 30.8818 104.22 30.7291 104.22 30.57C104.22 29.44 103.79 28.35 103.02 27.53C101.95 26.43 100.3 25.93 98.13 26.07ZM116.43 41.6C116.38 41.42 115.23 36.8 112.78 34.58C113.98 33.47 116.4 31.27 115.58 26.28C115.569 26.2018 115.543 26.1266 115.502 26.0586C115.462 25.9906 115.409 25.9312 115.346 25.8838C115.283 25.8364 115.211 25.802 115.134 25.7825C115.058 25.7629 114.978 25.7587 114.9 25.77L111.71 26.12C111.628 26.1284 111.549 26.1536 111.477 26.1939C111.405 26.2343 111.342 26.289 111.293 26.3547C111.243 26.4204 111.207 26.4956 111.188 26.5756C111.169 26.6557 111.166 26.7389 111.18 26.82C111.18 26.88 111.84 30.48 109.38 32.65L109.43 26.5C109.432 26.4134 109.415 26.3275 109.38 26.2481C109.346 26.1687 109.295 26.0977 109.23 26.04C109.166 25.9818 109.089 25.9382 109.006 25.9123C108.924 25.8864 108.836 25.8788 108.75 25.89L105.56 26.24C105.41 26.2526 105.27 26.3213 105.168 26.4325C105.066 26.5437 105.009 26.6892 105.01 26.84L105.39 42.24C105.392 42.324 105.412 42.4065 105.448 42.4823C105.484 42.5581 105.536 42.6254 105.6 42.68C105.72 42.78 105.87 42.84 106.03 42.83H106.08L108.76 42.53C108.91 42.5174 109.05 42.4487 109.152 42.3375C109.254 42.2263 109.311 42.0808 109.31 41.93L109.53 37.13C110.798 38.5413 111.662 40.2687 112.03 42.13C112.043 42.2524 112.093 42.3679 112.173 42.4609C112.254 42.5539 112.361 42.6199 112.48 42.65C112.555 42.6682 112.633 42.6716 112.71 42.66L115.89 42.31C115.974 42.3031 116.055 42.2786 116.129 42.2382C116.203 42.1977 116.267 42.1422 116.318 42.0753C116.369 42.0083 116.405 41.9314 116.425 41.8495C116.444 41.7677 116.446 41.6826 116.43 41.6ZM145.79 35.78L146.62 30L143.14 22.75L140.78 23.55L137.7 20.27L132.28 17.32L131.08 21.7L130.23 19.4L126.05 23.47L123.71 27.52L123.61 31.72L121.96 30.94L123.08 37.72L125.63 42.07L131.65 44.12L136.57 44.3L145.06 41.23L147.5 35.23L145.79 35.78ZM142.12 32.58L137.3 32.7L137.12 38.1L136.87 41.3L132.65 41.26V38.2L132.3 32.85L127.28 33.06L127.11 27.89L134.51 27.85L142.17 27.63L142.3 28.33L142.12 32.57V32.58Z" fill="black"/>
</svg>
