<svg width="128" height="60" viewBox="0 0 128 60" fill="none" xmlns="http://www.w3.org/2000/svg">
<path d="M18.4814 17.4727L12.6982 37.5079L6.96875 17.4727H1.07812L10.0033 43.864H15.2133L24.2109 17.4727H18.4814Z" fill="black"/>
<path d="M32.0549 23.7207C28.7006 23.7207 26.2001 24.7525 24.5529 26.816C22.9056 28.8789 22.082 31.3179 22.082 34.1323C22.082 36.9948 22.9056 39.4426 24.5529 41.4759C26.2001 43.5092 28.7006 44.5258 32.0549 44.5258C35.4089 44.5258 37.9097 43.5092 39.5569 41.4759C41.2041 39.4426 42.0277 36.9948 42.0277 34.1323C42.0277 31.3179 41.2041 28.8789 39.5569 26.816C37.9097 24.7525 35.4089 23.7207 32.0549 23.7207ZM35.4746 38.6554C34.6748 39.7162 33.5289 40.2466 32.0369 40.2466C30.5447 40.2466 29.3961 39.7162 28.5903 38.6554C27.7846 37.5945 27.3818 36.0872 27.3818 34.1323C27.3818 32.1773 27.7846 30.6727 28.5903 29.618C29.3961 28.5634 30.5447 28.0357 32.0369 28.0357C33.5289 28.0357 34.6748 28.5634 35.4746 29.618C36.2742 30.6727 36.6743 32.1773 36.6743 34.1323C36.6743 36.0872 36.2742 37.5945 35.4746 38.6554Z" fill="black"/>
<path d="M51.0735 17.4727H45.9707V43.864H51.0735V17.4727Z" fill="black"/>
<path d="M62.6221 19.084H57.5731V24.527H54.8516V28.1616H57.5731V40.1756C57.5731 41.3931 57.8595 42.2945 58.4324 42.8792C59.3157 43.7985 60.9629 44.2159 63.3741 44.1325L65.7913 44.043V40.2293C65.624 40.2416 65.4539 40.2506 65.2809 40.2562C65.1078 40.2623 64.9436 40.2651 64.7886 40.2651C63.7501 40.2651 63.1293 40.1666 62.9265 39.9697C62.7234 39.7727 62.6221 39.2748 62.6221 38.4747V28.1616H65.7913V24.527H62.6221V19.084Z" fill="black"/>
<path d="M78.4889 32.3334H91.3088V27.7499H78.4889V22.1458H92.4548V17.4727H73.0996V43.864H93.0993V39.1193H78.4889V32.3334Z" fill="black"/>
<path d="M111.621 25.4674C110.343 24.411 108.7 23.8828 106.692 23.8828C105.087 23.8828 103.761 24.2767 102.716 25.0645C102.133 25.5066 101.515 26.2283 100.862 27.231V24.3842H95.9199V43.8644H101.023V33.3007C101.023 32.0955 101.188 31.1046 101.52 30.3285C102.16 28.8603 103.339 28.1262 105.057 28.1262C106.455 28.1262 107.403 28.6276 107.901 29.6302C108.173 30.1797 108.31 30.9675 108.31 31.9936V43.8644H113.538V30.7224C113.538 28.2756 112.899 26.5237 111.621 25.4674Z" fill="black"/>
<path d="M126.924 28.1616V24.527H123.755V19.084H118.706V24.527H115.984V28.1616H118.706V40.1756C118.706 41.3931 118.992 42.2945 119.565 42.8792C120.449 43.7985 122.096 44.2159 124.507 44.1325L126.924 44.043V40.2293C126.757 40.2416 126.587 40.2506 126.414 40.2562C126.241 40.2623 126.076 40.2651 125.921 40.2651C124.883 40.2651 124.262 40.1666 124.059 39.9697C123.856 39.7727 123.755 39.2748 123.755 38.4747V28.1616H126.924Z" fill="black"/>
</svg>
